SplineFontDB: 3.0
FontName: BZFthores
FullName: BZ Fthores
FamilyName: BZ Fthores
Weight: Book
Version: 0.00 March 30, 2006
ItalicAngle: 0
UnderlinePosition: 0
UnderlineWidth: 0
Ascent: 1638
Descent: 410
sfntRevision: 0x00000000
LayerCount: 2
Layer: 0 1 "Back"  1
Layer: 1 1 "Fore"  0
XUID: [1021 761 1329040319 10880848]
FSType: 0
OS2Version: 0
OS2_WeightWidthSlopeOnly: 0
OS2_UseTypoMetrics: 1
CreationTime: -2082844800
ModificationTime: 1147706550
PfmFamily: 17
TTFWeight: 400
TTFWidth: 5
LineGap: 0
VLineGap: 0
Panose: 2 11 6 3 5 3 2 2 2 4
OS2TypoAscent: 2333
OS2TypoAOffset: 1
OS2TypoDescent: 761
OS2TypoDOffset: 1
OS2TypoLinegap: 0
OS2WinAscent: 0
OS2WinAOffset: 1
OS2WinDescent: 2
OS2WinDOffset: 1
HheadAscent: 0
HheadAOffset: 1
HheadDescent: -2
HheadDOffset: 1
OS2SubXSize: 0
OS2SubYSize: 0
OS2SubXOff: 0
OS2SubYOff: 0
OS2SupXSize: 0
OS2SupYSize: 0
OS2SupXOff: 0
OS2SupYOff: 0
OS2StrikeYSize: 0
OS2StrikeYPos: 0
OS2UnicodeRanges: 00000000.00000000.00000000.00000000
DEI: 91125
ShortTable: maxp 16
  1
  0
  97
  93
  4
  0
  0
  1
  0
  16
  0
  0
  0
  0
  0
  0
EndShort
LangName: 1033 "" "" "Regular" "BZ Fthores:Version 0.00" "" "Version 0.00 March 30, 2006" 
Encoding: UnicodeFull
UnicodeInterp: none
NameList: Adobe Glyph List
DisplaySize: -96
AntiAlias: 1
FitToEm: 1
WinInfo: 64 8 2
BeginChars: 1114112 97

StartChar: exclam
Encoding: 33 33 4
Width: 0
Flags: W
LayerCount: 2
Fore
SplineSet
-550 2906 m 1,0,-1
 -980 3005 l 1,1,2
 -980 2998 -980 2998 -980.5 2993 c 128,-1,3
 -981 2988 -981 2988 -981 2982 c 0,4,5
 -981 2889 -981 2889 -915.5 2824.5 c 128,-1,6
 -850 2760 -850 2760 -758 2760 c 0,7,8
 -686 2760 -686 2760 -629.5 2801 c 128,-1,9
 -573 2842 -573 2842 -550 2906 c 1,0,-1
-537 2959 m 1,10,11
 -537 2964 -537 2964 -537 2982 c 0,12,13
 -537 3073 -537 3073 -601.5 3138 c 128,-1,14
 -666 3203 -666 3203 -758 3203 c 0,15,16
 -829 3203 -829 3203 -886 3162.5 c 128,-1,17
 -943 3122 -943 3122 -967 3059 c 1,18,-1
 -537 2959 l 1,10,11
-484 2947 m 1,19,-1
 -184 2880 l 2,20,21
 -99 2860 -99 2860 -82.5 2919.5 c 128,-1,22
 -66 2979 -66 2979 -183 3005 c 1,23,24
 -225 3013 -225 3013 -208.5 3089 c 128,-1,25
 -192 3165 -192 3165 -104 3143 c 0,26,27
 -17 3121 -17 3121 0.5 3044 c 128,-1,28
 18 2967 18 2967 -2 2920 c 0,29,30
 -12 2894 -12 2894 -58.5 2849 c 128,-1,31
 -105 2804 -105 2804 -197 2825 c 2,32,-1
 -497 2894 l 1,33,34
 -523 2811 -523 2811 -595 2757.5 c 128,-1,35
 -667 2704 -667 2704 -758 2704 c 0,36,37
 -873 2704 -873 2704 -955 2785.5 c 128,-1,38
 -1037 2867 -1037 2867 -1037 2982 c 0,39,40
 -1037 2994 -1037 2994 -1033 3017 c 1,41,-1
 -1328 3085 l 2,42,43
 -1416 3105 -1416 3105 -1431.5 3044.5 c 128,-1,44
 -1447 2984 -1447 2984 -1330 2959 c 1,45,46
 -1287 2951 -1287 2951 -1304 2875 c 128,-1,47
 -1321 2799 -1321 2799 -1409 2821 c 0,48,49
 -1496 2842 -1496 2842 -1514 2919.5 c 128,-1,50
 -1532 2997 -1532 2997 -1512 3045 c 0,51,52
 -1502 3070 -1502 3070 -1456.5 3115.5 c 128,-1,53
 -1411 3161 -1411 3161 -1315 3139 c 2,54,-1
 -1022 3071 l 1,55,56
 -992 3153 -992 3153 -920.5 3206.5 c 128,-1,57
 -849 3260 -849 3260 -758 3260 c 0,58,59
 -644 3260 -644 3260 -562.5 3178.5 c 128,-1,60
 -481 3097 -481 3097 -481 2982 c 0,61,62
 -481 2970 -481 2970 -484 2947 c 1,19,-1
EndSplineSet
EndChar

StartChar: quotedbl
Encoding: 34 34 5
Width: 0
Flags: W
LayerCount: 2
Fore
SplineSet
-1 1970 m 0,0,1
 1 1970 1 1970 1 1967 c 0,2,3
 1 1965 1 1965 -1 1965 c 0,4,5
 -4 1965 -4 1965 -4 1967 c 0,6,7
 -4 1970 -4 1970 -1 1970 c 0,0,1
54 3327 m 1,8,-1
 54 3049 l 2,9,10
 54 3019 54 3019 25 3019 c 2,11,-1
 -10 3019 l 2,12,13
 -39 3019 -39 3019 -39 3049 c 2,14,-1
 -39 3327 l 1,15,-1
 -316 3327 l 2,16,17
 -346 3327 -346 3327 -346 3356 c 2,18,-1
 -346 3390 l 2,19,20
 -346 3419 -346 3419 -316 3419 c 2,21,-1
 -38 3419 l 1,22,-1
 -39 3696 l 2,23,24
 -39 3727 -39 3727 -10 3727 c 2,25,-1
 25 3727 l 2,26,27
 54 3727 54 3727 54 3696 c 2,28,-1
 54 3419 l 1,29,-1
 331 3419 l 2,30,31
 361 3419 361 3419 361 3390 c 2,32,-1
 361 3356 l 2,33,34
 361 3327 361 3327 331 3327 c 2,35,-1
 54 3327 l 1,8,-1
EndSplineSet
EndChar

StartChar: numbersign
Encoding: 35 35 6
Width: 0
Flags: W
LayerCount: 2
Fore
SplineSet
-726 2791 m 1,0,-1
 -931 2586 l 1,1,-1
 -954 2559 l 1,2,3
 -976 2536 -976 2536 -997.5 2557.5 c 128,-1,4
 -1019 2579 -1019 2579 -996 2604 c 1,5,-1
 -935 2662 l 1,6,-1
 -763 2828 l 1,7,8
 -814 2893 -814 2893 -814 2976 c 0,9,10
 -814 3077 -814 3077 -742.5 3148 c 128,-1,11
 -671 3219 -671 3219 -571 3219 c 0,12,13
 -484 3219 -484 3219 -416 3163 c 1,14,-1
 -314 3265 l 1,15,-1
 -416 3370 l 2,16,17
 -437 3391 -437 3391 -415 3409 c 128,-1,18
 -393 3427 -393 3427 -376 3409 c 2,19,-1
 -275 3304 l 1,20,-1
 -203 3378 l 1,21,-1
 -179 3405 l 1,22,23
 -157 3427 -157 3427 -136 3405.5 c 128,-1,24
 -115 3384 -115 3384 -138 3360 c 1,25,-1
 -198 3302 l 1,26,-1
 -236 3265 l 1,27,-1
 -138 3163 l 1,28,29
 -117 3144 -117 3144 -139 3124.5 c 128,-1,30
 -161 3105 -161 3105 -179 3124 c 2,31,-1
 -276 3225 l 1,32,-1
 -380 3125 l 1,33,34
 -329 3059 -329 3059 -329 2976 c 0,35,36
 -329 2876 -329 2876 -400 2805 c 128,-1,37
 -471 2734 -471 2734 -571 2734 c 0,38,39
 -661 2734 -661 2734 -726 2791 c 1,0,-1
-571 2786 m 256,40,41
 -493 2786 -493 2786 -437 2841.5 c 128,-1,42
 -381 2897 -381 2897 -381 2976 c 0,43,44
 -381 3054 -381 3054 -437 3110 c 128,-1,45
 -493 3166 -493 3166 -571 3166 c 256,46,47
 -649 3166 -649 3166 -705 3110 c 128,-1,48
 -761 3054 -761 3054 -761 2976 c 0,49,50
 -761 2897 -761 2897 -705 2841.5 c 128,-1,51
 -649 2786 -649 2786 -571 2786 c 256,40,41
EndSplineSet
EndChar

StartChar: dollar
Encoding: 36 36 7
Width: 0
Flags: W
LayerCount: 2
Fore
SplineSet
-714 2781 m 1,0,-1
 -881 2611 l 2,1,2
 -901 2590 -901 2590 -920.5 2608 c 128,-1,3
 -940 2626 -940 2626 -918 2649 c 2,4,-1
 -748 2816 l 1,5,6
 -805 2887 -805 2887 -801 2979 c 128,-1,7
 -797 3071 -797 3071 -731 3138 c 0,8,9
 -665 3204 -665 3204 -573 3208 c 128,-1,10
 -481 3212 -481 3212 -409 3155 c 1,11,-1
 -233 3335 l 1,12,13
 -214 3356 -214 3356 -195.5 3337 c 128,-1,14
 -177 3318 -177 3318 -197 3298 c 2,15,-1
 -375 3120 l 1,16,17
 -317 3048 -317 3048 -321 2955.5 c 128,-1,18
 -325 2863 -325 2863 -392 2798 c 1,19,20
 -457 2731 -457 2731 -549.5 2727 c 128,-1,21
 -642 2723 -642 2723 -714 2781 c 1,0,-1
-428 3101 m 0,22,23
 -483 3156 -483 3156 -561 3156 c 128,-1,24
 -639 3156 -639 3156 -695 3101 c 1,25,26
 -750 3045 -750 3045 -750 2967.5 c 128,-1,27
 -750 2890 -750 2890 -695 2835 c 0,28,29
 -639 2779 -639 2779 -561 2779 c 128,-1,30
 -483 2779 -483 2779 -428 2835 c 1,31,32
 -372 2890 -372 2890 -372 2967.5 c 128,-1,33
 -372 3045 -372 3045 -428 3101 c 0,22,23
EndSplineSet
EndChar

StartChar: percent
Encoding: 37 37 8
Width: 0
Flags: W
LayerCount: 2
Fore
SplineSet
9 1970 m 0,0,1
 11 1970 11 1970 11 1967 c 0,2,3
 11 1965 11 1965 9 1965 c 0,4,5
 6 1965 6 1965 6 1967 c 0,6,7
 6 1970 6 1970 9 1970 c 0,0,1
-1093 2753 m 1,8,-1
 -1093 2678 l 1,9,-1
 -1513 2678 l 1,10,11
 -1514 2707 -1514 2707 -1504 2732 c 0,12,13
 -1488 2775 -1488 2775 -1453 2816.5 c 128,-1,14
 -1418 2858 -1418 2858 -1351 2913 c 0,15,16
 -1247 2997 -1247 2997 -1210.5 3046.5 c 128,-1,17
 -1174 3096 -1174 3096 -1174 3141 c 0,18,19
 -1174 3187 -1174 3187 -1207 3219 c 128,-1,20
 -1240 3251 -1240 3251 -1294 3251 c 0,21,22
 -1350 3251 -1350 3251 -1384 3217 c 128,-1,23
 -1418 3183 -1418 3183 -1418 3123 c 1,24,-1
 -1498 3131 l 1,25,26
 -1490 3221 -1490 3221 -1436.5 3268 c 128,-1,27
 -1383 3315 -1383 3315 -1292 3315 c 256,28,29
 -1201 3315 -1201 3315 -1147.5 3264 c 128,-1,30
 -1094 3213 -1094 3213 -1094 3139 c 0,31,32
 -1094 3101 -1094 3101 -1109.5 3064 c 128,-1,33
 -1125 3027 -1125 3027 -1161 2986.5 c 128,-1,34
 -1197 2946 -1197 2946 -1281 2875 c 0,35,36
 -1352 2816 -1352 2816 -1372 2795 c 128,-1,37
 -1392 2774 -1392 2774 -1404 2753 c 1,38,-1
 -1093 2753 l 1,8,-1
EndSplineSet
EndChar

StartChar: ampersand
Encoding: 38 38 9
Width: 0
Flags: W
LayerCount: 2
Fore
SplineSet
8 1970 m 0,0,1
 10 1970 10 1970 10 1967 c 0,2,3
 10 1965 10 1965 8 1965 c 0,4,5
 5 1965 5 1965 5 1967 c 0,6,7
 5 1970 5 1970 8 1970 c 0,0,1
-1243 2661 m 1,8,-1
 -1243 2819 l 1,9,-1
 -1528 2819 l 1,10,-1
 -1528 2893 l 1,11,-1
 -1228 3320 l 1,12,-1
 -1162 3320 l 1,13,-1
 -1162 2893 l 1,14,-1
 -1073 2893 l 1,15,-1
 -1073 2819 l 1,16,-1
 -1162 2819 l 1,17,-1
 -1162 2661 l 1,18,-1
 -1243 2661 l 1,8,-1
-1243 2893 m 1,19,-1
 -1243 3190 l 1,20,-1
 -1448 2893 l 1,21,-1
 -1243 2893 l 1,19,-1
EndSplineSet
EndChar

StartChar: quotesingle
Encoding: 39 39 10
Width: 936
Flags: W
LayerCount: 2
Fore
SplineSet
585 1907 m 1,0,-1
 585 1629 l 2,1,2
 585 1599 585 1599 556 1599 c 2,3,-1
 521 1599 l 2,4,5
 492 1599 492 1599 492 1629 c 2,6,-1
 492 1907 l 1,7,-1
 215 1907 l 2,8,9
 185 1907 185 1907 185 1936 c 2,10,-1
 185 1970 l 2,11,12
 185 1999 185 1999 215 1999 c 2,13,-1
 493 1999 l 1,14,-1
 492 2276 l 2,15,16
 492 2307 492 2307 521 2307 c 2,17,-1
 556 2307 l 2,18,19
 585 2307 585 2307 585 2276 c 2,20,-1
 585 1999 l 1,21,-1
 862 1999 l 2,22,23
 892 1999 892 1999 892 1970 c 2,24,-1
 892 1936 l 2,25,26
 892 1907 892 1907 862 1907 c 2,27,-1
 585 1907 l 1,0,-1
EndSplineSet
EndChar

StartChar: parenleft
Encoding: 40 40 11
Width: 0
Flags: W
LayerCount: 2
Fore
SplineSet
-234 3305 m 1,0,-1
 -31 3509 l 1,1,-1
 -7 3536 l 1,2,3
 15 3559 15 3559 36 3537.5 c 128,-1,4
 57 3516 57 3516 34 3491 c 1,5,-1
 -26 3434 l 1,6,-1
 -197 3266 l 1,7,8
 -147 3201 -147 3201 -147 3118 c 0,9,10
 -147 3017 -147 3017 -218.5 2946 c 128,-1,11
 -290 2875 -290 2875 -390 2875 c 0,12,13
 -479 2875 -479 2875 -546 2932 c 1,14,-1
 -648 2828 l 1,15,-1
 -546 2723 l 1,16,17
 -524 2702 -524 2702 -546 2684 c 128,-1,18
 -568 2666 -568 2666 -586 2685 c 2,19,-1
 -688 2789 l 1,20,-1
 -761 2716 l 1,21,-1
 -784 2689 l 1,22,23
 -806 2666 -806 2666 -827.5 2687.5 c 128,-1,24
 -849 2709 -849 2709 -826 2734 c 1,25,-1
 -765 2792 l 1,26,-1
 -727 2829 l 1,27,-1
 -826 2932 l 1,28,29
 -846 2950 -846 2950 -824.5 2968.5 c 128,-1,30
 -803 2987 -803 2987 -786 2970 c 2,31,-1
 -686 2868 l 1,32,-1
 -582 2970 l 1,33,34
 -633 3033 -633 3033 -633 3118 c 0,35,36
 -633 3217 -633 3217 -561.5 3289 c 128,-1,37
 -490 3361 -490 3361 -390 3361 c 0,38,39
 -302 3361 -302 3361 -234 3305 c 1,0,-1
-390 3308 m 0,40,41
 -468 3308 -468 3308 -524 3252 c 128,-1,42
 -580 3196 -580 3196 -580 3118 c 0,43,44
 -580 3039 -580 3039 -524 2983 c 128,-1,45
 -468 2927 -468 2927 -390 2927 c 0,46,47
 -311 2927 -311 2927 -255 2983 c 128,-1,48
 -199 3039 -199 3039 -199 3118 c 0,49,50
 -199 3196 -199 3196 -255 3252 c 128,-1,51
 -311 3308 -311 3308 -390 3308 c 0,40,41
EndSplineSet
EndChar

StartChar: parenright
Encoding: 41 41 12
Width: 0
Flags: W
LayerCount: 2
Fore
SplineSet
-264 2945 m 1,0,-1
 -412 2753 l 2,1,2
 -437 2719 -437 2719 -470.5 2699 c 128,-1,3
 -504 2679 -504 2679 -526 2668 c 1,4,5
 -550 2654 -550 2654 -598 2657 c 128,-1,6
 -646 2660 -646 2660 -673 2673 c 1,7,8
 -737 2700 -737 2700 -766.5 2755 c 128,-1,9
 -796 2810 -796 2810 -756 2866 c 0,10,11
 -708 2933 -708 2933 -632 2881 c 0,12,13
 -608 2865 -608 2865 -606.5 2825.5 c 128,-1,14
 -605 2786 -605 2786 -629 2764 c 0,15,16
 -670 2726 -670 2726 -649 2713 c 1,17,18
 -618 2692 -618 2692 -556.5 2711 c 128,-1,19
 -495 2730 -495 2730 -463 2773 c 2,20,-1
 -308 2975 l 1,21,22
 -390 3047 -390 3047 -390 3154 c 0,23,24
 -390 3251 -390 3251 -320 3321.5 c 128,-1,25
 -250 3392 -250 3392 -152 3392 c 0,26,27
 -55 3392 -55 3392 15 3321.5 c 128,-1,28
 85 3251 85 3251 85 3154 c 0,29,30
 85 3056 85 3056 15 2986.5 c 128,-1,31
 -55 2917 -55 2917 -152 2917 c 0,32,33
 -214 2917 -214 2917 -264 2945 c 1,0,-1
-152 3341 m 256,34,35
 -229 3341 -229 3341 -284 3285.5 c 128,-1,36
 -339 3230 -339 3230 -339 3154 c 256,37,38
 -339 3078 -339 3078 -284 3023 c 128,-1,39
 -229 2968 -229 2968 -152 2968 c 256,40,41
 -75 2968 -75 2968 -21 3023 c 128,-1,42
 33 3078 33 3078 33 3154 c 256,43,44
 33 3230 33 3230 -21 3285.5 c 128,-1,45
 -75 3341 -75 3341 -152 3341 c 256,34,35
EndSplineSet
EndChar

StartChar: asterisk
Encoding: 42 42 13
Width: 0
Flags: W
LayerCount: 2
Fore
SplineSet
8 1970 m 0,0,1
 10 1970 10 1970 10 1967 c 0,2,3
 10 1965 10 1965 8 1965 c 0,4,5
 5 1965 5 1965 5 1967 c 0,6,7
 5 1970 5 1970 8 1970 c 0,0,1
-609 2806 m 1,8,-1
 -757 2804 l 2,9,10
 -782 2803 -782 2803 -785 2831 c 128,-1,11
 -788 2859 -788 2859 -758 2860 c 2,12,-1
 -609 2862 l 1,13,-1
 -609 3010 l 1,14,15
 -698 3017 -698 3017 -761 3081 c 1,16,17
 -833 3152 -833 3152 -833 3254 c 128,-1,18
 -833 3356 -833 3356 -761 3428 c 256,19,20
 -689 3500 -689 3500 -587 3500 c 128,-1,21
 -485 3500 -485 3500 -414 3428 c 1,22,23
 -341 3356 -341 3356 -341 3254 c 128,-1,24
 -341 3152 -341 3152 -414 3081 c 1,25,26
 -474 3020 -474 3020 -557 3010 c 1,27,-1
 -554 2863 l 1,28,-1
 -411 2865 l 2,29,30
 -385 2865 -385 2865 -382.5 2836 c 128,-1,31
 -380 2807 -380 2807 -409 2809 c 1,32,-1
 -553 2807 l 1,33,-1
 -552 2752 l 1,34,-1
 -550 2667 l 1,35,36
 -551 2633 -551 2633 -581.5 2632.5 c 128,-1,37
 -612 2632 -612 2632 -612 2665 c 1,38,-1
 -609 2701 l 1,39,-1
 -609 2806 l 1,8,-1
-451 3391 m 0,40,41
 -507 3447 -507 3447 -587 3447 c 128,-1,42
 -667 3447 -667 3447 -724 3391 c 1,43,44
 -780 3333 -780 3333 -780 3253.5 c 128,-1,45
 -780 3174 -780 3174 -724 3118 c 0,46,47
 -667 3061 -667 3061 -587 3061 c 128,-1,48
 -507 3061 -507 3061 -451 3118 c 1,49,50
 -394 3174 -394 3174 -394 3253.5 c 128,-1,51
 -394 3333 -394 3333 -451 3391 c 0,40,41
EndSplineSet
EndChar

StartChar: plus
Encoding: 43 43 14
Width: 0
Flags: W
LayerCount: 2
Fore
SplineSet
8 1970 m 0,0,1
 10 1970 10 1970 10 1967 c 0,2,3
 10 1965 10 1965 8 1965 c 0,4,5
 5 1965 5 1965 5 1967 c 0,6,7
 5 1970 5 1970 8 1970 c 0,0,1
-623 3330 m 1,8,-1
 -623 3433 l 1,9,-1
 -626 3468 l 1,10,11
 -626 3500 -626 3500 -596 3499.5 c 128,-1,12
 -566 3499 -566 3499 -565 3466 c 1,13,-1
 -567 3383 l 1,14,-1
 -567 3329 l 1,15,-1
 -426 3327 l 1,16,17
 -397 3328 -397 3328 -399.5 3299.5 c 128,-1,18
 -402 3271 -402 3271 -428 3271 c 2,19,-1
 -568 3274 l 1,20,-1
 -571 3129 l 1,21,22
 -490 3119 -490 3119 -431 3060 c 0,23,24
 -359 2989 -359 2989 -359 2888.5 c 128,-1,25
 -359 2788 -359 2788 -431 2718 c 1,26,27
 -500 2647 -500 2647 -601 2647 c 128,-1,28
 -702 2647 -702 2647 -772 2718 c 1,29,30
 -843 2788 -843 2788 -843 2888.5 c 128,-1,31
 -843 2989 -843 2989 -772 3060 c 0,32,33
 -711 3122 -711 3122 -623 3130 c 1,34,-1
 -623 3274 l 1,35,-1
 -770 3276 l 2,36,37
 -799 3276 -799 3276 -796 3304.5 c 128,-1,38
 -793 3333 -793 3333 -768 3333 c 2,39,-1
 -623 3330 l 1,8,-1
-467 2755 m 0,40,41
 -411 2810 -411 2810 -411 2888.5 c 128,-1,42
 -411 2967 -411 2967 -467 3023 c 256,43,44
 -523 3079 -523 3079 -601.5 3079 c 128,-1,45
 -680 3079 -680 3079 -736 3023 c 0,46,47
 -791 2967 -791 2967 -791 2888.5 c 128,-1,48
 -791 2810 -791 2810 -736 2755 c 0,49,50
 -680 2699 -680 2699 -601.5 2699 c 128,-1,51
 -523 2699 -523 2699 -467 2755 c 0,40,41
EndSplineSet
EndChar

StartChar: comma
Encoding: 44 44 15
Width: 0
Flags: W
LayerCount: 2
Fore
SplineSet
8 1970 m 0,0,1
 10 1970 10 1970 10 1967 c 0,2,3
 10 1965 10 1965 8 1965 c 0,4,5
 5 1965 5 1965 5 1967 c 0,6,7
 5 1970 5 1970 8 1970 c 0,0,1
-1614 1129 m 1,8,-1
 -1616 1422 l 2,9,10
 -1616 1450 -1616 1450 -1589.5 1451 c 128,-1,11
 -1563 1452 -1563 1452 -1563 1422 c 2,12,-1
 -1564 1129 l 1,13,14
 -1472 1119 -1472 1119 -1409 1049.5 c 128,-1,15
 -1346 980 -1346 980 -1346 887 c 0,16,17
 -1346 786 -1346 786 -1417 714.5 c 128,-1,18
 -1488 643 -1488 643 -1590 643 c 0,19,20
 -1690 643 -1690 643 -1761.5 714.5 c 128,-1,21
 -1833 786 -1833 786 -1833 887 c 0,22,23
 -1833 980 -1833 980 -1769.5 1049.5 c 128,-1,24
 -1706 1119 -1706 1119 -1614 1129 c 1,8,-1
-1590 1078 m 0,25,26
 -1668 1078 -1668 1078 -1724.5 1021.5 c 128,-1,27
 -1781 965 -1781 965 -1781 887 c 0,28,29
 -1781 808 -1781 808 -1724.5 752 c 128,-1,30
 -1668 696 -1668 696 -1590 696 c 0,31,32
 -1511 696 -1511 696 -1455 752 c 128,-1,33
 -1399 808 -1399 808 -1399 887 c 0,34,35
 -1399 965 -1399 965 -1455 1021.5 c 128,-1,36
 -1511 1078 -1511 1078 -1590 1078 c 0,25,26
EndSplineSet
EndChar

StartChar: hyphen
Encoding: 45 45 16
Width: 0
Flags: W
LayerCount: 2
Fore
SplineSet
26 1970 m 0,0,1
 28 1970 28 1970 28 1967 c 0,2,3
 28 1965 28 1965 26 1965 c 0,4,5
 23 1965 23 1965 23 1967 c 0,6,7
 23 1970 23 1970 26 1970 c 0,0,1
-1116 3261 m 1,8,-1
 -975 3454 l 1,9,-1
 -956 3485 l 1,10,11
 -937 3511 -937 3511 -912.5 3492.5 c 128,-1,12
 -888 3474 -888 3474 -908 3447 c 2,13,-1
 -958 3380 l 1,14,-1
 -1076 3227 l 1,15,16
 -1006 3154 -1006 3154 -1006 3058 c 0,17,18
 -1006 2957 -1006 2957 -1078 2885.5 c 128,-1,19
 -1150 2814 -1150 2814 -1251 2814 c 0,20,21
 -1311 2814 -1311 2814 -1366 2843 c 1,22,-1
 -1518 2645 l 2,23,24
 -1543 2611 -1543 2611 -1577.5 2590.5 c 128,-1,25
 -1612 2570 -1612 2570 -1634 2559 c 1,26,27
 -1659 2544 -1659 2544 -1708.5 2547 c 128,-1,28
 -1758 2550 -1758 2550 -1786 2563 c 0,29,30
 -1851 2591 -1851 2591 -1881.5 2647.5 c 128,-1,31
 -1912 2704 -1912 2704 -1871 2761 c 0,32,33
 -1822 2831 -1822 2831 -1743 2778 c 0,34,35
 -1719 2761 -1719 2761 -1717 2720 c 128,-1,36
 -1715 2679 -1715 2679 -1742 2657 c 1,37,38
 -1783 2619 -1783 2619 -1761 2605 c 0,39,40
 -1729 2584 -1729 2584 -1666 2603 c 128,-1,41
 -1603 2622 -1603 2622 -1569 2666 c 2,42,-1
 -1410 2873 l 1,43,44
 -1495 2947 -1495 2947 -1495 3058 c 0,45,46
 -1495 3158 -1495 3158 -1423 3230 c 128,-1,47
 -1351 3302 -1351 3302 -1251 3302 c 0,48,49
 -1176 3302 -1176 3302 -1116 3261 c 1,8,-1
-1251 3249 m 0,50,51
 -1329 3249 -1329 3249 -1385.5 3193 c 128,-1,52
 -1442 3137 -1442 3137 -1442 3058 c 256,53,54
 -1442 2979 -1442 2979 -1385.5 2922.5 c 128,-1,55
 -1329 2866 -1329 2866 -1251 2866 c 0,56,57
 -1171 2866 -1171 2866 -1115 2922.5 c 128,-1,58
 -1059 2979 -1059 2979 -1059 3058 c 256,59,60
 -1059 3137 -1059 3137 -1115 3193 c 128,-1,61
 -1171 3249 -1171 3249 -1251 3249 c 0,50,51
EndSplineSet
EndChar

StartChar: slash
Encoding: 47 47 17
Width: 0
Flags: W
LayerCount: 2
Fore
SplineSet
-1538 1467 m 1,0,1
 -1520 1516 -1520 1516 -1497 1576.5 c 128,-1,2
 -1474 1637 -1474 1637 -1474 1651 c 1,3,4
 -1461 1682 -1461 1682 -1434 1674 c 128,-1,5
 -1407 1666 -1407 1666 -1418 1636 c 2,6,-1
 -1490 1454 l 1,7,8
 -1422 1426 -1422 1426 -1378.5 1364.5 c 128,-1,9
 -1335 1303 -1335 1303 -1335 1225 c 0,10,11
 -1335 1123 -1335 1123 -1406.5 1051.5 c 128,-1,12
 -1478 980 -1478 980 -1580 980 c 0,13,14
 -1632 980 -1632 980 -1682 1002 c 1,15,-1
 -1748 872 l 2,16,17
 -1761 847 -1761 847 -1663.5 892.5 c 128,-1,18
 -1566 938 -1566 938 -1413 854 c 0,19,20
 -1390 841 -1390 841 -1345.5 800.5 c 128,-1,21
 -1301 760 -1301 760 -1267 776 c 1,22,23
 -1264 776 -1264 776 -1298.5 822 c 128,-1,24
 -1333 868 -1333 868 -1267 917 c 1,25,26
 -1224 947 -1224 947 -1171.5 904.5 c 128,-1,27
 -1119 862 -1119 862 -1157 780 c 0,28,29
 -1178 734 -1178 734 -1230 724 c 128,-1,30
 -1282 714 -1282 714 -1321 717 c 0,31,32
 -1444 724 -1444 724 -1506 779.5 c 128,-1,33
 -1568 835 -1568 835 -1650 843 c 1,34,35
 -1732 849 -1732 849 -1742 824.5 c 128,-1,36
 -1752 800 -1752 800 -1784 804 c 1,37,38
 -1793 804 -1793 804 -1803 816.5 c 128,-1,39
 -1813 829 -1813 829 -1814 835 c 0,40,41
 -1817 851 -1817 851 -1810 859.5 c 128,-1,42
 -1803 868 -1803 868 -1801 875 c 1,43,-1
 -1721 1024 l 1,44,45
 -1826 1098 -1826 1098 -1826 1225 c 0,46,47
 -1826 1327 -1826 1327 -1754 1399 c 128,-1,48
 -1682 1471 -1682 1471 -1580 1471 c 0,49,50
 -1556 1471 -1556 1471 -1538 1467 c 1,0,1
-1580 1418 m 0,51,52
 -1659 1418 -1659 1418 -1715.5 1361 c 128,-1,53
 -1772 1304 -1772 1304 -1772 1225 c 256,54,55
 -1772 1146 -1772 1146 -1715.5 1089.5 c 128,-1,56
 -1659 1033 -1659 1033 -1580 1033 c 0,57,58
 -1500 1033 -1500 1033 -1444 1089.5 c 128,-1,59
 -1388 1146 -1388 1146 -1388 1225 c 256,60,61
 -1388 1304 -1388 1304 -1444 1361 c 128,-1,62
 -1500 1418 -1500 1418 -1580 1418 c 0,51,52
8 1970 m 0,63,64
 10 1970 10 1970 10 1967 c 0,65,66
 10 1965 10 1965 8 1965 c 0,67,68
 5 1965 5 1965 5 1967 c 0,69,70
 5 1970 5 1970 8 1970 c 0,63,64
EndSplineSet
EndChar

StartChar: zero
Encoding: 48 48 18
Width: 0
Flags: W
LayerCount: 2
Fore
SplineSet
27 1970 m 0,0,1
 29 1970 29 1970 29 1967 c 0,2,3
 29 1965 29 1965 27 1965 c 0,4,5
 24 1965 24 1965 24 1967 c 0,6,7
 24 1970 24 1970 27 1970 c 0,0,1
-1377 2867 m 1,8,-1
 -1525 2674 l 2,9,10
 -1550 2640 -1550 2640 -1583.5 2620.5 c 128,-1,11
 -1617 2601 -1617 2601 -1639 2588 c 0,12,13
 -1663 2575 -1663 2575 -1711.5 2578 c 128,-1,14
 -1760 2581 -1760 2581 -1787 2593 c 0,15,16
 -1851 2620 -1851 2620 -1881 2675.5 c 128,-1,17
 -1911 2731 -1911 2731 -1871 2788 c 0,18,19
 -1822 2856 -1822 2856 -1746 2804 c 1,20,21
 -1722 2786 -1722 2786 -1720 2746.5 c 128,-1,22
 -1718 2707 -1718 2707 -1744 2685 c 1,23,24
 -1784 2648 -1784 2648 -1763 2634 c 0,25,26
 -1732 2613 -1732 2613 -1670 2632 c 128,-1,27
 -1608 2651 -1608 2651 -1575 2694 c 2,28,-1
 -1420 2897 l 1,29,30
 -1503 2969 -1503 2969 -1503 3077 c 0,31,32
 -1503 3176 -1503 3176 -1432.5 3246 c 128,-1,33
 -1362 3316 -1362 3316 -1264 3316 c 0,34,35
 -1165 3316 -1165 3316 -1095 3246 c 128,-1,36
 -1025 3176 -1025 3176 -1025 3077 c 256,37,38
 -1025 2978 -1025 2978 -1095 2908.5 c 128,-1,39
 -1165 2839 -1165 2839 -1264 2839 c 0,40,41
 -1326 2839 -1326 2839 -1377 2867 c 1,8,-1
-1264 3264 m 0,42,43
 -1341 3264 -1341 3264 -1396 3209 c 128,-1,44
 -1451 3154 -1451 3154 -1451 3077 c 0,45,46
 -1451 2999 -1451 2999 -1396 2944.5 c 128,-1,47
 -1341 2890 -1341 2890 -1264 2890 c 0,48,49
 -1186 2890 -1186 2890 -1131.5 2944.5 c 128,-1,50
 -1077 2999 -1077 2999 -1077 3077 c 0,51,52
 -1077 3154 -1077 3154 -1131.5 3209 c 128,-1,53
 -1186 3264 -1186 3264 -1264 3264 c 0,42,43
EndSplineSet
EndChar

StartChar: one
Encoding: 49 49 19
Width: 0
Flags: W
LayerCount: 2
Fore
SplineSet
18 1970 m 0,0,1
 20 1970 20 1970 20 1967 c 0,2,3
 20 1965 20 1965 18 1965 c 0,4,5
 15 1965 15 1965 15 1967 c 0,6,7
 15 1970 15 1970 18 1970 c 0,0,1
-1300 2789 m 1,8,-1
 -1728 2887 l 1,9,10
 -1730 2879 -1730 2879 -1730 2864 c 0,11,12
 -1730 2773 -1730 2773 -1664.5 2708 c 128,-1,13
 -1599 2643 -1599 2643 -1508 2643 c 0,14,15
 -1436 2643 -1436 2643 -1379.5 2684.5 c 128,-1,16
 -1323 2726 -1323 2726 -1300 2789 c 1,8,-1
-1288 2842 m 1,17,18
 -1287 2847 -1287 2847 -1287 2864 c 0,19,20
 -1287 2955 -1287 2955 -1351.5 3020 c 128,-1,21
 -1416 3085 -1416 3085 -1508 3085 c 0,22,23
 -1579 3085 -1579 3085 -1635 3044.5 c 128,-1,24
 -1691 3004 -1691 3004 -1716 2940 c 1,25,-1
 -1288 2842 l 1,17,18
-1235 2830 m 1,26,-1
 -936 2762 l 2,27,28
 -850 2743 -850 2743 -833.5 2802.5 c 128,-1,29
 -817 2862 -817 2862 -934 2887 c 1,30,31
 -977 2895 -977 2895 -960.5 2971 c 128,-1,32
 -944 3047 -944 3047 -855 3025 c 1,33,34
 -767 3002 -767 3002 -749.5 2925.5 c 128,-1,35
 -732 2849 -732 2849 -753 2803 c 1,36,37
 -764 2776 -764 2776 -810.5 2731.5 c 128,-1,38
 -857 2687 -857 2687 -949 2708 c 2,39,-1
 -1247 2776 l 1,40,41
 -1274 2694 -1274 2694 -1345 2640.5 c 128,-1,42
 -1416 2587 -1416 2587 -1508 2587 c 0,43,44
 -1622 2587 -1622 2587 -1704 2668.5 c 128,-1,45
 -1786 2750 -1786 2750 -1786 2864 c 0,46,47
 -1786 2878 -1786 2878 -1782 2899 c 1,48,-1
 -2075 2967 l 2,49,50
 -2164 2987 -2164 2987 -2179.5 2926.5 c 128,-1,51
 -2195 2866 -2195 2866 -2078 2842 c 0,52,53
 -2035 2833 -2035 2833 -2051.5 2757.5 c 128,-1,54
 -2068 2682 -2068 2682 -2157 2704 c 0,55,56
 -2243 2725 -2243 2725 -2261 2802 c 128,-1,57
 -2279 2879 -2279 2879 -2259 2926 c 0,58,59
 -2248 2952 -2248 2952 -2203 2997 c 128,-1,60
 -2158 3042 -2158 3042 -2062 3021 c 1,61,-1
 -1770 2954 l 1,62,63
 -1741 3035 -1741 3035 -1669.5 3088 c 128,-1,64
 -1598 3141 -1598 3141 -1508 3141 c 0,65,66
 -1393 3141 -1393 3141 -1312 3059.5 c 128,-1,67
 -1231 2978 -1231 2978 -1231 2864 c 0,68,69
 -1231 2844 -1231 2844 -1235 2830 c 1,26,-1
EndSplineSet
EndChar

StartChar: two
Encoding: 50 50 20
Width: 0
Flags: W
LayerCount: 2
Fore
SplineSet
8 1970 m 0,0,1
 10 1970 10 1970 10 1967 c 0,2,3
 10 1965 10 1965 8 1965 c 0,4,5
 5 1965 5 1965 5 1967 c 0,6,7
 5 1970 5 1970 8 1970 c 0,0,1
-1275 2884 m 1,8,9
 -1130 2884 -1130 2884 -1059.5 2878 c 128,-1,10
 -989 2872 -989 2872 -914 2864 c 0,11,12
 -869 2859 -869 2859 -828 2847.5 c 128,-1,13
 -787 2836 -787 2836 -759 2825 c 1,14,15
 -680 2790 -680 2790 -665 2715 c 0,16,17
 -649 2637 -649 2637 -680.5 2576.5 c 128,-1,18
 -712 2516 -712 2516 -791 2519 c 1,19,20
 -882 2520 -882 2520 -884 2622 c 0,21,22
 -884 2657 -884 2657 -850.5 2683 c 128,-1,23
 -817 2709 -817 2709 -778 2700 c 1,24,25
 -737 2689 -737 2689 -727 2694.5 c 128,-1,26
 -717 2700 -717 2700 -717 2717 c 0,27,28
 -717 2760 -717 2760 -772.5 2788 c 128,-1,29
 -828 2816 -828 2816 -893 2824 c 1,30,31
 -1026 2837 -1026 2837 -1092 2839 c 128,-1,32
 -1158 2841 -1158 2841 -1274 2841 c 1,33,34
 -1281 2730 -1281 2730 -1361.5 2656 c 128,-1,35
 -1442 2582 -1442 2582 -1554 2582 c 0,36,37
 -1664 2582 -1664 2582 -1744.5 2656 c 128,-1,38
 -1825 2730 -1825 2730 -1832 2841 c 1,39,40
 -2007 2843 -2007 2843 -2109 2837 c 128,-1,41
 -2211 2831 -2211 2831 -2337 2831 c 0,42,43
 -2345 2831 -2345 2831 -2358.5 2834 c 128,-1,44
 -2372 2837 -2372 2837 -2372 2843 c 2,45,-1
 -2372 2866 l 2,46,47
 -2372 2870 -2372 2870 -2358 2873.5 c 128,-1,48
 -2344 2877 -2344 2877 -2337 2877 c 0,49,50
 -2211 2877 -2211 2877 -2085 2880.5 c 128,-1,51
 -1959 2884 -1959 2884 -1834 2884 c 1,52,53
 -1824 2991 -1824 2991 -1744 3066.5 c 128,-1,54
 -1664 3142 -1664 3142 -1554 3142 c 256,55,56
 -1444 3142 -1444 3142 -1363.5 3066.5 c 128,-1,57
 -1283 2991 -1283 2991 -1275 2884 c 1,8,9
-1776 2883 m 1,58,-1
 -1331 2883 l 1,59,60
 -1338 2967 -1338 2967 -1401.5 3026.5 c 128,-1,61
 -1465 3086 -1465 3086 -1554 3086 c 0,62,63
 -1640 3086 -1640 3086 -1704 3027 c 128,-1,64
 -1768 2968 -1768 2968 -1776 2883 c 1,58,-1
-1776 2841 m 1,65,66
 -1771 2753 -1771 2753 -1707 2695.5 c 128,-1,67
 -1643 2638 -1643 2638 -1554 2638 c 0,68,69
 -1466 2638 -1466 2638 -1402.5 2696.5 c 128,-1,70
 -1339 2755 -1339 2755 -1332 2841 c 1,71,-1
 -1776 2841 l 1,65,66
EndSplineSet
EndChar

StartChar: three
Encoding: 51 51 21
Width: 0
Flags: W
LayerCount: 2
Fore
SplineSet
20 1970 m 0,0,1
 22 1970 22 1970 22 1967 c 0,2,3
 22 1965 22 1965 20 1965 c 0,4,5
 17 1965 17 1965 17 1967 c 0,6,7
 17 1970 17 1970 20 1970 c 0,0,1
-1667 2792 m 1,8,-1
 -1871 2589 l 1,9,-1
 -1893 2562 l 1,10,11
 -1915 2539 -1915 2539 -1936.5 2560.5 c 128,-1,12
 -1958 2582 -1958 2582 -1935 2607 c 1,13,-1
 -1874 2664 l 1,14,-1
 -1703 2831 l 1,15,16
 -1754 2895 -1754 2895 -1754 2978 c 0,17,18
 -1754 3077 -1754 3077 -1682.5 3148.5 c 128,-1,19
 -1611 3220 -1611 3220 -1511 3220 c 0,20,21
 -1424 3220 -1424 3220 -1357 3164 c 1,22,-1
 -1255 3266 l 1,23,-1
 -1357 3371 l 2,24,25
 -1377 3392 -1377 3392 -1355 3409.5 c 128,-1,26
 -1333 3427 -1333 3427 -1316 3409 c 2,27,-1
 -1215 3305 l 1,28,-1
 -1143 3378 l 1,29,-1
 -1119 3405 l 1,30,31
 -1097 3428 -1097 3428 -1075.5 3406 c 128,-1,32
 -1054 3384 -1054 3384 -1077 3360 c 1,33,-1
 -1137 3304 l 1,34,-1
 -1177 3266 l 1,35,-1
 -1077 3164 l 2,36,37
 -1057 3145 -1057 3145 -1079 3126 c 128,-1,38
 -1101 3107 -1101 3107 -1119 3126 c 2,39,-1
 -1217 3227 l 1,40,-1
 -1321 3127 l 1,41,42
 -1270 3061 -1270 3061 -1270 2978 c 0,43,44
 -1270 2878 -1270 2878 -1340.5 2807.5 c 128,-1,45
 -1411 2737 -1411 2737 -1511 2737 c 0,46,47
 -1600 2737 -1600 2737 -1667 2792 c 1,8,-1
-1511 2789 m 256,48,49
 -1433 2789 -1433 2789 -1377.5 2844 c 128,-1,50
 -1322 2899 -1322 2899 -1322 2978 c 0,51,52
 -1322 3056 -1322 3056 -1377.5 3112 c 128,-1,53
 -1433 3168 -1433 3168 -1511 3168 c 256,54,55
 -1589 3168 -1589 3168 -1645.5 3112 c 128,-1,56
 -1702 3056 -1702 3056 -1702 2978 c 0,57,58
 -1702 2899 -1702 2899 -1645.5 2844 c 128,-1,59
 -1589 2789 -1589 2789 -1511 2789 c 256,48,49
EndSplineSet
EndChar

StartChar: four
Encoding: 52 52 22
Width: 0
Flags: W
LayerCount: 2
Fore
SplineSet
19 1970 m 0,0,1
 21 1970 21 1970 21 1967 c 0,2,3
 21 1965 21 1965 19 1965 c 0,4,5
 16 1965 16 1965 16 1967 c 0,6,7
 16 1970 16 1970 19 1970 c 0,0,1
-1694 2730 m 1,8,-1
 -1861 2561 l 2,9,10
 -1882 2540 -1882 2540 -1901 2558 c 128,-1,11
 -1920 2576 -1920 2576 -1898 2598 c 2,12,-1
 -1730 2765 l 1,13,14
 -1786 2835 -1786 2835 -1781.5 2927 c 128,-1,15
 -1777 3019 -1777 3019 -1713 3084 c 0,16,17
 -1647 3150 -1647 3150 -1555 3154 c 128,-1,18
 -1463 3158 -1463 3158 -1393 3101 c 1,19,-1
 -1218 3281 l 1,20,21
 -1196 3302 -1196 3302 -1178.5 3282.5 c 128,-1,22
 -1161 3263 -1161 3263 -1181 3244 c 2,23,-1
 -1359 3067 l 1,24,25
 -1301 2996 -1301 2996 -1305 2904 c 128,-1,26
 -1309 2812 -1309 2812 -1375 2747 c 1,27,28
 -1440 2681 -1440 2681 -1532 2677 c 128,-1,29
 -1624 2673 -1624 2673 -1694 2730 c 1,8,-1
-1412 3048 m 0,30,31
 -1466 3103 -1466 3103 -1543.5 3103 c 128,-1,32
 -1621 3103 -1621 3103 -1676 3048 c 0,33,34
 -1731 2992 -1731 2992 -1731 2915 c 128,-1,35
 -1731 2838 -1731 2838 -1676 2783 c 256,36,37
 -1621 2728 -1621 2728 -1543.5 2728 c 128,-1,38
 -1466 2728 -1466 2728 -1412 2783 c 1,39,40
 -1356 2838 -1356 2838 -1356 2915 c 128,-1,41
 -1356 2992 -1356 2992 -1412 3048 c 0,30,31
EndSplineSet
EndChar

StartChar: five
Encoding: 53 53 23
Width: 0
Flags: W
LayerCount: 2
Fore
SplineSet
9 1970 m 0,0,1
 11 1970 11 1970 11 1967 c 0,2,3
 11 1965 11 1965 9 1965 c 0,4,5
 6 1965 6 1965 6 1967 c 0,6,7
 6 1970 6 1970 9 1970 c 0,0,1
-2051 2752 m 1,8,-1
 -2051 2677 l 1,9,-1
 -2472 2677 l 1,10,11
 -2473 2706 -2473 2706 -2463 2732 c 0,12,13
 -2447 2774 -2447 2774 -2411.5 2815.5 c 128,-1,14
 -2376 2857 -2376 2857 -2309 2912 c 0,15,16
 -2206 2997 -2206 2997 -2169 3046.5 c 128,-1,17
 -2132 3096 -2132 3096 -2132 3141 c 256,18,19
 -2132 3186 -2132 3186 -2165 3218.5 c 128,-1,20
 -2198 3251 -2198 3251 -2252 3251 c 0,21,22
 -2308 3251 -2308 3251 -2342 3217 c 128,-1,23
 -2376 3183 -2376 3183 -2377 3123 c 1,24,-1
 -2457 3131 l 1,25,26
 -2449 3221 -2449 3221 -2395 3268 c 128,-1,27
 -2341 3315 -2341 3315 -2250 3315 c 256,28,29
 -2159 3315 -2159 3315 -2105.5 3264 c 128,-1,30
 -2052 3213 -2052 3213 -2052 3139 c 0,31,32
 -2052 3101 -2052 3101 -2067.5 3063.5 c 128,-1,33
 -2083 3026 -2083 3026 -2119.5 2985.5 c 128,-1,34
 -2156 2945 -2156 2945 -2240 2874 c 0,35,36
 -2310 2816 -2310 2816 -2330 2795 c 128,-1,37
 -2350 2774 -2350 2774 -2363 2752 c 1,38,-1
 -2051 2752 l 1,8,-1
EndSplineSet
EndChar

StartChar: six
Encoding: 54 54 24
Width: 0
Flags: W
LayerCount: 2
Fore
SplineSet
8 1970 m 0,0,1
 10 1970 10 1970 10 1967 c 0,2,3
 10 1965 10 1965 8 1965 c 0,4,5
 5 1965 5 1965 5 1967 c 0,6,7
 5 1970 5 1970 8 1970 c 0,0,1
-2506 2846 m 1,8,-1
 -2428 2856 l 1,9,10
 -2414 2790 -2414 2790 -2382 2761 c 128,-1,11
 -2350 2732 -2350 2732 -2303 2732 c 0,12,13
 -2248 2732 -2248 2732 -2210.5 2769.5 c 128,-1,14
 -2173 2807 -2173 2807 -2173 2864 c 0,15,16
 -2173 2918 -2173 2918 -2208 2953 c 128,-1,17
 -2243 2988 -2243 2988 -2297 2988 c 0,18,19
 -2319 2988 -2319 2988 -2352 2979 c 1,20,-1
 -2343 3048 l 1,21,22
 -2335 3047 -2335 3047 -2331 3047 c 0,23,24
 -2281 3047 -2281 3047 -2241 3072.5 c 128,-1,25
 -2201 3098 -2201 3098 -2201 3152 c 0,26,27
 -2201 3196 -2201 3196 -2230.5 3224 c 128,-1,28
 -2260 3252 -2260 3252 -2305 3252 c 256,29,30
 -2350 3252 -2350 3252 -2381 3223.5 c 128,-1,31
 -2412 3195 -2412 3195 -2420 3137 c 1,32,-1
 -2498 3152 l 1,33,34
 -2484 3230 -2484 3230 -2433 3273 c 128,-1,35
 -2382 3316 -2382 3316 -2307 3316 c 0,36,37
 -2255 3316 -2255 3316 -2211 3294 c 128,-1,38
 -2167 3272 -2167 3272 -2144 3233 c 128,-1,39
 -2121 3194 -2121 3194 -2121 3151 c 0,40,41
 -2121 3110 -2121 3110 -2143.5 3076 c 128,-1,42
 -2166 3042 -2166 3042 -2209 3023 c 1,43,44
 -2152 3009 -2152 3009 -2121 2968 c 128,-1,45
 -2090 2927 -2090 2927 -2090 2866 c 0,46,47
 -2090 2783 -2090 2783 -2150.5 2725 c 128,-1,48
 -2211 2667 -2211 2667 -2304 2667 c 0,49,50
 -2388 2667 -2388 2667 -2443 2717 c 128,-1,51
 -2498 2767 -2498 2767 -2506 2846 c 1,8,-1
EndSplineSet
EndChar

StartChar: seven
Encoding: 55 55 25
Width: 0
Flags: W
LayerCount: 2
Fore
SplineSet
8 1970 m 0,0,1
 10 1970 10 1970 10 1967 c 0,2,3
 10 1965 10 1965 8 1965 c 0,4,5
 5 1965 5 1965 5 1967 c 0,6,7
 5 1970 5 1970 8 1970 c 0,0,1
-2219 2658 m 1,8,-1
 -2219 2816 l 1,9,-1
 -2504 2816 l 1,10,-1
 -2504 2890 l 1,11,-1
 -2204 3317 l 1,12,-1
 -2138 3317 l 1,13,-1
 -2138 2890 l 1,14,-1
 -2049 2890 l 1,15,-1
 -2049 2816 l 1,16,-1
 -2138 2816 l 1,17,-1
 -2138 2658 l 1,18,-1
 -2219 2658 l 1,8,-1
-2219 2890 m 1,19,-1
 -2219 3187 l 1,20,-1
 -2424 2890 l 1,21,-1
 -2219 2890 l 1,19,-1
EndSplineSet
EndChar

StartChar: eight
Encoding: 56 56 26
Width: 0
Flags: W
LayerCount: 2
Fore
SplineSet
8 1970 m 0,0,1
 10 1970 10 1970 10 1967 c 0,2,3
 10 1965 10 1965 8 1965 c 0,4,5
 5 1965 5 1965 5 1967 c 0,6,7
 5 1970 5 1970 8 1970 c 0,0,1
-1617 2734 m 1,8,-1
 -1763 2731 l 2,9,10
 -1788 2730 -1788 2730 -1791.5 2758.5 c 128,-1,11
 -1795 2787 -1795 2787 -1765 2788 c 2,12,-1
 -1617 2790 l 1,13,-1
 -1617 2936 l 1,14,15
 -1705 2944 -1705 2944 -1768 3007 c 0,16,17
 -1839 3078 -1839 3078 -1839 3179.5 c 128,-1,18
 -1839 3281 -1839 3281 -1768 3353 c 1,19,20
 -1696 3424 -1696 3424 -1594.5 3424 c 128,-1,21
 -1493 3424 -1493 3424 -1422 3353 c 0,22,23
 -1350 3281 -1350 3281 -1350 3179.5 c 128,-1,24
 -1350 3078 -1350 3078 -1422 3007 c 1,25,26
 -1480 2947 -1480 2947 -1564 2937 c 1,27,-1
 -1562 2791 l 1,28,-1
 -1420 2793 l 2,29,30
 -1393 2793 -1393 2793 -1391 2764 c 128,-1,31
 -1389 2735 -1389 2735 -1418 2736 c 1,32,-1
 -1562 2734 l 1,33,-1
 -1560 2680 l 1,34,-1
 -1558 2595 l 1,35,36
 -1559 2562 -1559 2562 -1589.5 2561.5 c 128,-1,37
 -1620 2561 -1620 2561 -1620 2594 c 1,38,-1
 -1617 2630 l 1,39,-1
 -1617 2734 l 1,8,-1
-1459 3315 m 0,40,41
 -1515 3371 -1515 3371 -1594.5 3371 c 128,-1,42
 -1674 3371 -1674 3371 -1731 3315 c 1,43,44
 -1787 3258 -1787 3258 -1787 3179 c 128,-1,45
 -1787 3100 -1787 3100 -1731 3044 c 0,46,47
 -1674 2987 -1674 2987 -1594.5 2987 c 128,-1,48
 -1515 2987 -1515 2987 -1459 3044 c 1,49,50
 -1402 3100 -1402 3100 -1402 3179 c 128,-1,51
 -1402 3258 -1402 3258 -1459 3315 c 0,40,41
EndSplineSet
EndChar

StartChar: nine
Encoding: 57 57 27
Width: 0
Flags: W
LayerCount: 2
Fore
SplineSet
20 1970 m 0,0,1
 22 1970 22 1970 22 1967 c 0,2,3
 22 1965 22 1965 20 1965 c 0,4,5
 17 1965 17 1965 17 1967 c 0,6,7
 17 1970 17 1970 20 1970 c 0,0,1
-1182 3267 m 1,8,-1
 -978 3472 l 1,9,-1
 -955 3499 l 1,10,11
 -932 3523 -932 3523 -910.5 3501 c 128,-1,12
 -889 3479 -889 3479 -912 3454 c 1,13,-1
 -973 3398 l 1,14,-1
 -1146 3230 l 1,15,16
 -1095 3165 -1095 3165 -1095 3081 c 0,17,18
 -1095 2981 -1095 2981 -1166.5 2909.5 c 128,-1,19
 -1238 2838 -1238 2838 -1338 2838 c 0,20,21
 -1427 2838 -1427 2838 -1495 2894 c 1,22,-1
 -1597 2792 l 1,23,-1
 -1495 2686 l 1,24,25
 -1473 2665 -1473 2665 -1495 2647 c 128,-1,26
 -1517 2629 -1517 2629 -1535 2648 c 2,27,-1
 -1637 2752 l 1,28,-1
 -1710 2679 l 1,29,-1
 -1733 2652 l 1,30,31
 -1755 2629 -1755 2629 -1776.5 2650.5 c 128,-1,32
 -1798 2672 -1798 2672 -1775 2697 c 1,33,-1
 -1714 2755 l 1,34,-1
 -1676 2793 l 1,35,-1
 -1775 2894 l 2,36,37
 -1795 2913 -1795 2913 -1773.5 2932 c 128,-1,38
 -1752 2951 -1752 2951 -1735 2933 c 2,39,-1
 -1636 2831 l 1,40,-1
 -1531 2932 l 1,41,42
 -1582 2999 -1582 2999 -1582 3081 c 0,43,44
 -1582 3181 -1582 3181 -1510.5 3253 c 128,-1,45
 -1439 3325 -1439 3325 -1338 3325 c 0,46,47
 -1250 3325 -1250 3325 -1182 3267 c 1,8,-1
-1338 3272 m 256,48,49
 -1416 3272 -1416 3272 -1473 3215.5 c 128,-1,50
 -1530 3159 -1530 3159 -1530 3081 c 0,51,52
 -1530 3002 -1530 3002 -1473 2946.5 c 128,-1,53
 -1416 2891 -1416 2891 -1338 2891 c 256,54,55
 -1260 2891 -1260 2891 -1203.5 2946.5 c 128,-1,56
 -1147 3002 -1147 3002 -1147 3081 c 0,57,58
 -1147 3159 -1147 3159 -1203.5 3215.5 c 128,-1,59
 -1260 3272 -1260 3272 -1338 3272 c 256,48,49
EndSplineSet
EndChar

StartChar: colon
Encoding: 58 58 28
Width: 0
Flags: W
LayerCount: 2
Fore
SplineSet
-683 3325 m 1,0,1
 -665 3373 -665 3373 -641.5 3433 c 128,-1,2
 -618 3493 -618 3493 -618 3507 c 1,3,4
 -606 3538 -606 3538 -578.5 3530 c 128,-1,5
 -551 3522 -551 3522 -563 3492 c 2,6,-1
 -635 3311 l 1,7,8
 -567 3284 -567 3284 -523.5 3222.5 c 128,-1,9
 -480 3161 -480 3161 -480 3084 c 0,10,11
 -480 2983 -480 2983 -551.5 2911.5 c 128,-1,12
 -623 2840 -623 2840 -724 2840 c 0,13,14
 -776 2840 -776 2840 -826 2862 c 1,15,-1
 -891 2733 l 2,16,17
 -903 2709 -903 2709 -806.5 2754 c 128,-1,18
 -710 2799 -710 2799 -558 2715 c 0,19,20
 -535 2702 -535 2702 -491 2662 c 128,-1,21
 -447 2622 -447 2622 -412 2637 c 0,22,23
 -410 2637 -410 2637 -444.5 2683 c 128,-1,24
 -479 2729 -479 2729 -413 2778 c 1,25,26
 -370 2808 -370 2808 -317.5 2765.5 c 128,-1,27
 -265 2723 -265 2723 -303 2642 c 0,28,29
 -324 2596 -324 2596 -376.5 2586 c 128,-1,30
 -429 2576 -429 2576 -466 2579 c 0,31,32
 -589 2586 -589 2586 -651 2641 c 128,-1,33
 -713 2696 -713 2696 -794 2704 c 1,34,35
 -874 2710 -874 2710 -885 2686 c 128,-1,36
 -896 2662 -896 2662 -927 2665 c 0,37,38
 -936 2665 -936 2665 -946 2678 c 128,-1,39
 -956 2691 -956 2691 -956 2696 c 0,40,41
 -958 2711 -958 2711 -943 2736 c 1,42,-1
 -864 2885 l 1,43,44
 -969 2958 -969 2958 -969 3084 c 0,45,46
 -969 3185 -969 3185 -897 3256.5 c 128,-1,47
 -825 3328 -825 3328 -724 3328 c 0,48,49
 -701 3328 -701 3328 -683 3325 c 1,0,1
-724 3276 m 256,50,51
 -803 3276 -803 3276 -859.5 3219 c 128,-1,52
 -916 3162 -916 3162 -916 3084 c 0,53,54
 -916 3005 -916 3005 -859.5 2949 c 128,-1,55
 -803 2893 -803 2893 -724 2893 c 256,56,57
 -645 2893 -645 2893 -589 2949 c 128,-1,58
 -533 3005 -533 3005 -533 3084 c 0,59,60
 -533 3162 -533 3162 -589 3219 c 128,-1,61
 -645 3276 -645 3276 -724 3276 c 256,50,51
-172 1970 m 0,62,63
 -170 1970 -170 1970 -170 1967 c 0,64,65
 -170 1965 -170 1965 -172 1965 c 0,66,67
 -175 1965 -175 1965 -175 1967 c 0,68,69
 -175 1970 -175 1970 -172 1970 c 0,62,63
EndSplineSet
EndChar

StartChar: semicolon
Encoding: 59 59 29
Width: 0
Flags: W
LayerCount: 2
Fore
SplineSet
-1607 3308 m 1,0,1
 -1589 3356 -1589 3356 -1566 3416 c 128,-1,2
 -1543 3476 -1543 3476 -1543 3489 c 1,3,4
 -1530 3520 -1530 3520 -1503.5 3512 c 128,-1,5
 -1477 3504 -1477 3504 -1488 3475 c 2,6,-1
 -1559 3294 l 1,7,8
 -1492 3267 -1492 3267 -1449 3206 c 128,-1,9
 -1406 3145 -1406 3145 -1406 3069 c 0,10,11
 -1406 2969 -1406 2969 -1477 2897.5 c 128,-1,12
 -1548 2826 -1548 2826 -1648 2826 c 0,13,14
 -1699 2826 -1699 2826 -1749 2848 c 1,15,-1
 -1815 2720 l 1,16,17
 -1826 2696 -1826 2696 -1730 2741 c 128,-1,18
 -1634 2786 -1634 2786 -1483 2701 c 0,19,20
 -1461 2689 -1461 2689 -1417 2649 c 128,-1,21
 -1373 2609 -1373 2609 -1339 2624 c 1,22,23
 -1336 2624 -1336 2624 -1370 2670.5 c 128,-1,24
 -1404 2717 -1404 2717 -1339 2764 c 0,25,26
 -1296 2794 -1296 2794 -1244 2751.5 c 128,-1,27
 -1192 2709 -1192 2709 -1230 2629 c 0,28,29
 -1251 2583 -1251 2583 -1302.5 2573.5 c 128,-1,30
 -1354 2564 -1354 2564 -1391 2567 c 1,31,32
 -1513 2572 -1513 2572 -1575 2627.5 c 128,-1,33
 -1637 2683 -1637 2683 -1718 2691 c 1,34,35
 -1798 2697 -1798 2697 -1808 2672.5 c 128,-1,36
 -1818 2648 -1818 2648 -1850 2652 c 1,37,38
 -1859 2652 -1859 2652 -1868.5 2665 c 128,-1,39
 -1878 2678 -1878 2678 -1879 2683 c 0,40,41
 -1882 2699 -1882 2699 -1875.5 2707.5 c 128,-1,42
 -1869 2716 -1869 2716 -1866 2722 c 2,43,-1
 -1787 2870 l 1,44,45
 -1891 2943 -1891 2943 -1891 3069 c 0,46,47
 -1891 3169 -1891 3169 -1819.5 3240 c 128,-1,48
 -1748 3311 -1748 3311 -1648 3311 c 0,49,50
 -1625 3311 -1625 3311 -1607 3308 c 1,0,1
-1648 3259 m 256,51,52
 -1726 3259 -1726 3259 -1782.5 3203 c 128,-1,53
 -1839 3147 -1839 3147 -1839 3069 c 0,54,55
 -1839 2990 -1839 2990 -1782.5 2934 c 128,-1,56
 -1726 2878 -1726 2878 -1648 2878 c 256,57,58
 -1570 2878 -1570 2878 -1514 2934 c 128,-1,59
 -1458 2990 -1458 2990 -1458 3069 c 0,60,61
 -1458 3147 -1458 3147 -1514 3203 c 128,-1,62
 -1570 3259 -1570 3259 -1648 3259 c 256,51,52
8 1970 m 0,63,64
 10 1970 10 1970 10 1967 c 0,65,66
 10 1965 10 1965 8 1965 c 0,67,68
 5 1965 5 1965 5 1967 c 0,69,70
 5 1970 5 1970 8 1970 c 0,63,64
EndSplineSet
EndChar

StartChar: less
Encoding: 60 60 30
Width: 0
Flags: W
LayerCount: 2
Fore
SplineSet
-252 2120 m 0,0,1
 -250 2120 -250 2120 -250 2117 c 0,2,3
 -250 2115 -250 2115 -252 2115 c 0,4,5
 -255 2115 -255 2115 -255 2117 c 0,6,7
 -255 2120 -255 2120 -252 2120 c 0,0,1
-602 1127 m 1,8,-1
 -604 1417 l 2,9,10
 -604 1444 -604 1444 -577.5 1445.5 c 128,-1,11
 -551 1447 -551 1447 -551 1417 c 2,12,-1
 -552 1127 l 1,13,14
 -461 1117 -461 1117 -398.5 1048 c 128,-1,15
 -336 979 -336 979 -336 887 c 0,16,17
 -336 786 -336 786 -406.5 715.5 c 128,-1,18
 -477 645 -477 645 -577 645 c 0,19,20
 -676 645 -676 645 -747.5 715.5 c 128,-1,21
 -819 786 -819 786 -819 887 c 0,22,23
 -819 980 -819 980 -756 1048.5 c 128,-1,24
 -693 1117 -693 1117 -602 1127 c 1,8,-1
-577 1076 m 0,25,26
 -655 1076 -655 1076 -710.5 1020 c 128,-1,27
 -766 964 -766 964 -766 887 c 0,28,29
 -766 808 -766 808 -710.5 752.5 c 128,-1,30
 -655 697 -655 697 -577 697 c 0,31,32
 -498 697 -498 697 -443 752.5 c 128,-1,33
 -388 808 -388 808 -388 887 c 0,34,35
 -388 964 -388 964 -443 1020 c 128,-1,36
 -498 1076 -498 1076 -577 1076 c 0,25,26
EndSplineSet
EndChar

StartChar: equal
Encoding: 61 61 31
Width: 0
Flags: W
LayerCount: 2
Fore
SplineSet
8 1970 m 0,0,1
 10 1970 10 1970 10 1967 c 0,2,3
 10 1965 10 1965 8 1965 c 0,4,5
 5 1965 5 1965 5 1967 c 0,6,7
 5 1970 5 1970 8 1970 c 0,0,1
-1536 3268 m 1,8,-1
 -1536 3371 l 1,9,-1
 -1540 3407 l 1,10,11
 -1540 3440 -1540 3440 -1509 3439.5 c 128,-1,12
 -1478 3439 -1478 3439 -1477 3406 c 1,13,-1
 -1479 3321 l 1,14,-1
 -1481 3267 l 1,15,-1
 -1337 3265 l 2,16,17
 -1308 3265 -1308 3265 -1310 3236.5 c 128,-1,18
 -1312 3208 -1312 3208 -1339 3208 c 2,19,-1
 -1481 3210 l 1,20,-1
 -1484 3064 l 1,21,22
 -1400 3053 -1400 3053 -1341 2994 c 0,23,24
 -1269 2922 -1269 2922 -1269 2820 c 128,-1,25
 -1269 2718 -1269 2718 -1341 2648 c 1,26,27
 -1412 2576 -1412 2576 -1514 2576 c 128,-1,28
 -1616 2576 -1616 2576 -1687 2648 c 1,29,30
 -1759 2718 -1759 2718 -1759 2820 c 128,-1,31
 -1759 2922 -1759 2922 -1687 2994 c 1,32,33
 -1627 3056 -1627 3056 -1536 3065 c 1,34,-1
 -1536 3211 l 1,35,-1
 -1685 3213 l 2,36,37
 -1715 3213 -1715 3213 -1711.5 3241.5 c 128,-1,38
 -1708 3270 -1708 3270 -1683 3270 c 2,39,-1
 -1536 3268 l 1,8,-1
-1379 2685 m 1,40,41
 -1322 2741 -1322 2741 -1322 2820.5 c 128,-1,42
 -1322 2900 -1322 2900 -1379 2956 c 1,43,44
 -1434 3013 -1434 3013 -1513.5 3013 c 128,-1,45
 -1593 3013 -1593 3013 -1650 2956 c 0,46,47
 -1706 2900 -1706 2900 -1706 2820.5 c 128,-1,48
 -1706 2741 -1706 2741 -1650 2685 c 0,49,50
 -1593 2629 -1593 2629 -1513.5 2629 c 128,-1,51
 -1434 2629 -1434 2629 -1379 2685 c 1,40,41
EndSplineSet
EndChar

StartChar: question
Encoding: 63 63 32
Width: 0
Flags: W
LayerCount: 2
Fore
SplineSet
-617 1212 m 1,0,1
 -599 1261 -599 1261 -575.5 1322.5 c 128,-1,2
 -552 1384 -552 1384 -552 1397 c 1,3,4
 -540 1428 -540 1428 -512 1420 c 128,-1,5
 -484 1412 -484 1412 -496 1382 c 2,6,-1
 -568 1199 l 1,7,8
 -500 1171 -500 1171 -456 1108.5 c 128,-1,9
 -412 1046 -412 1046 -412 968 c 0,10,11
 -412 866 -412 866 -484.5 793 c 128,-1,12
 -557 720 -557 720 -660 720 c 0,13,14
 -712 720 -712 720 -762 742 c 1,15,-1
 -829 612 l 2,16,17
 -841 588 -841 588 -743 633.5 c 128,-1,18
 -645 679 -645 679 -491 593 c 0,19,20
 -468 580 -468 580 -423 539.5 c 128,-1,21
 -378 499 -378 499 -343 515 c 0,22,23
 -341 515 -341 515 -375.5 562 c 128,-1,24
 -410 609 -410 609 -344 657 c 0,25,26
 -300 688 -300 688 -247.5 644.5 c 128,-1,27
 -195 601 -195 601 -233 519 c 0,28,29
 -255 473 -255 473 -307 463 c 128,-1,30
 -359 453 -359 453 -397 456 c 1,31,32
 -523 462 -523 462 -585.5 518 c 128,-1,33
 -648 574 -648 574 -730 582 c 1,34,35
 -812 588 -812 588 -822.5 563.5 c 128,-1,36
 -833 539 -833 539 -865 543 c 1,37,38
 -874 543 -874 543 -884 556 c 128,-1,39
 -894 569 -894 569 -895 574 c 0,40,41
 -898 590 -898 590 -891 599 c 128,-1,42
 -884 608 -884 608 -881 614 c 2,43,-1
 -802 765 l 1,44,45
 -907 838 -907 838 -907 968 c 0,46,47
 -907 1070 -907 1070 -834 1143 c 128,-1,48
 -761 1216 -761 1216 -660 1216 c 0,49,50
 -644 1216 -644 1216 -617 1212 c 1,0,1
-660 1162 m 0,51,52
 -740 1162 -740 1162 -797 1105 c 128,-1,53
 -854 1048 -854 1048 -854 968 c 256,54,55
 -854 888 -854 888 -797 830.5 c 128,-1,56
 -740 773 -740 773 -660 773 c 0,57,58
 -579 773 -579 773 -522 830.5 c 128,-1,59
 -465 888 -465 888 -465 968 c 256,60,61
 -465 1048 -465 1048 -522 1105 c 128,-1,62
 -579 1162 -579 1162 -660 1162 c 0,51,52
EndSplineSet
EndChar

StartChar: at
Encoding: 64 64 33
Width: 0
Flags: W
LayerCount: 2
Fore
SplineSet
-548 3045 m 1,0,1
 -405 3045 -405 3045 -335.5 3039.5 c 128,-1,2
 -266 3034 -266 3034 -192 3026 c 0,3,4
 -113 3018 -113 3018 -41 2988 c 1,5,6
 36 2954 36 2954 52 2880 c 0,7,8
 68 2802 68 2802 36.5 2742.5 c 128,-1,9
 5 2683 5 2683 -72 2686 c 1,10,11
 -161 2687 -161 2687 -163 2788 c 0,12,13
 -163 2822 -163 2822 -130 2848 c 128,-1,14
 -97 2874 -97 2874 -60 2864 c 0,15,16
 -20 2854 -20 2854 -10 2859 c 128,-1,17
 0 2864 0 2864 0 2881 c 0,18,19
 0 2924 0 2924 -54.5 2951.5 c 128,-1,20
 -109 2979 -109 2979 -172 2987 c 1,21,22
 -303 3000 -303 3000 -368 3002 c 128,-1,23
 -433 3004 -433 3004 -547 3004 c 1,24,25
 -554 2895 -554 2895 -633.5 2821.5 c 128,-1,26
 -713 2748 -713 2748 -823 2748 c 0,27,28
 -932 2748 -932 2748 -1011 2821 c 128,-1,29
 -1090 2894 -1090 2894 -1097 3003 c 1,30,31
 -1269 3006 -1269 3006 -1369.5 3000 c 128,-1,32
 -1470 2994 -1470 2994 -1595 2994 c 0,33,34
 -1602 2994 -1602 2994 -1615.5 2997 c 128,-1,35
 -1629 3000 -1629 3000 -1629 3005 c 2,36,-1
 -1629 3029 l 2,37,38
 -1629 3033 -1629 3033 -1615.5 3036 c 128,-1,39
 -1602 3039 -1602 3039 -1595 3039 c 0,40,41
 -1470 3039 -1470 3039 -1346.5 3042 c 128,-1,42
 -1223 3045 -1223 3045 -1099 3045 c 1,43,44
 -1090 3152 -1090 3152 -1011 3226 c 128,-1,45
 -932 3300 -932 3300 -823 3300 c 256,46,47
 -714 3300 -714 3300 -635 3226 c 128,-1,48
 -556 3152 -556 3152 -548 3045 c 1,0,1
-1042 3045 m 1,49,-1
 -603 3045 l 1,50,51
 -611 3129 -611 3129 -673.5 3187 c 128,-1,52
 -736 3245 -736 3245 -823 3245 c 0,53,54
 -908 3245 -908 3245 -971 3187 c 128,-1,55
 -1034 3129 -1034 3129 -1042 3045 c 1,49,-1
-1042 3003 m 1,56,57
 -1037 2916 -1037 2916 -974 2859.5 c 128,-1,58
 -911 2803 -911 2803 -823 2803 c 0,59,60
 -737 2803 -737 2803 -674 2861 c 128,-1,61
 -611 2919 -611 2919 -604 3003 c 1,62,-1
 -1042 3003 l 1,56,57
EndSplineSet
EndChar

StartChar: A
Encoding: 65 65 34
Width: 75
Flags: W
LayerCount: 2
Fore
SplineSet
-769 1739 m 1,0,1
 -847 1683 -847 1683 -870 1591 c 1,2,3
 -886 1520 -886 1520 -872 1455 c 1,4,5
 -856 1389 -856 1389 -734 1455 c 1,6,7
 -664 1491 -664 1491 -658 1519 c 1,8,9
 -645 1543 -645 1543 -635 1592 c 1,10,11
 -610 1694 -610 1694 -642 1875 c 0,12,13
 -649 1914 -649 1914 -649 2010 c 0,14,15
 -649 2102 -649 2102 -593 2192 c 0,16,17
 -562 2241 -562 2241 -498 2252 c 0,18,19
 -435 2262 -435 2262 -387 2262 c 0,20,21
 -278 2262 -278 2262 -227 2161 c 1,22,23
 -218 2073 -218 2073 -220 2027 c 0,24,25
 -222 1974 -222 1974 -218 1929 c 1,26,27
 -205 1848 -205 1848 -197 1816 c 0,28,29
 -190 1790 -190 1790 -108 1784 c 1,30,31
 -39 1759 -39 1759 -35 1657 c 0,32,33
 -32 1589 -32 1589 -38.5 1522.5 c 128,-1,34
 -45 1456 -45 1456 -35 1390 c 1,35,36
 -33 1368 -33 1368 -19 1319 c 1,37,38
 -9 1288 -9 1288 53 1267 c 0,39,40
 71 1260 71 1260 72 1261 c 1,41,42
 72 1252 72 1252 -1 1262 c 128,-1,43
 -74 1272 -74 1272 -92 1279 c 0,44,45
 -176 1316 -176 1316 -197 1415 c 1,46,47
 -209 1477 -209 1477 -205 1540 c 128,-1,48
 -201 1603 -201 1603 -213 1666 c 1,49,50
 -233 1788 -233 1788 -272 1787 c 1,51,52
 -308 1784 -308 1784 -355 1837 c 1,53,54
 -398 1889 -398 1889 -380 1989 c 1,55,56
 -360 2088 -360 2088 -410 2107 c 0,57,58
 -426 2113 -426 2113 -481 2117 c 1,59,60
 -532 2118 -532 2118 -554 2091 c 1,61,62
 -582 2047 -582 2047 -582 1993 c 1,63,64
 -583 1955 -583 1955 -587 1877 c 1,65,66
 -578 1698 -578 1698 -579 1564 c 1,67,68
 -581 1499 -581 1499 -597 1447 c 0,69,70
 -622 1370 -622 1370 -685 1341 c 1,71,72
 -836 1258 -836 1258 -936 1373 c 1,73,74
 -959 1403 -959 1403 -982 1461 c 256,75,76
 -1005 1519 -1005 1519 -987 1603 c 1,77,78
 -952 1741 -952 1741 -847 1788 c 1,79,80
 -767 1819 -767 1819 -745 1818 c 1,81,82
 -715 1827 -715 1827 -666 1816 c 1,83,84
 -618 1789 -618 1789 -665 1783 c 256,85,86
 -712 1777 -712 1777 -769 1739 c 1,0,1
EndSplineSet
EndChar

StartChar: B
Encoding: 66 66 35
Width: 4
Flags: W
LayerCount: 2
Fore
SplineSet
-1722 1154 m 1,0,1
 -1713 1160 -1713 1160 -1704 1169.5 c 128,-1,2
 -1695 1179 -1695 1179 -1688 1186 c 1,3,-1
 -1790 1292 l 2,4,5
 -1811 1313 -1811 1313 -1789 1331 c 128,-1,6
 -1767 1349 -1767 1349 -1749 1331 c 2,7,-1
 -1648 1226 l 1,8,-1
 -1624 1250 l 1,9,-1
 -1617 1261 l 1,10,11
 -1594 1283 -1594 1283 -1572.5 1261 c 128,-1,12
 -1551 1239 -1551 1239 -1575 1215 c 1,13,-1
 -1609 1185 l 1,14,-1
 -1510 1084 l 1,15,16
 -1488 1064 -1488 1064 -1510.5 1045.5 c 128,-1,17
 -1533 1027 -1533 1027 -1551 1046 c 2,18,-1
 -1649 1146 l 1,19,-1
 -1683 1113 l 1,20,-1
 -1584 1012 l 1,21,22
 -1562 992 -1562 992 -1584.5 973.5 c 128,-1,23
 -1607 955 -1607 955 -1625 973 c 2,24,-1
 -1723 1074 l 1,25,-1
 -1756 1040 l 1,26,-1
 -1656 938 l 1,27,28
 -1634 918 -1634 918 -1656 899.5 c 128,-1,29
 -1678 881 -1678 881 -1697 899 c 1,30,-1
 -1796 1001 l 1,31,-1
 -1859 941 l 1,32,33
 -1807 876 -1807 876 -1807 792 c 0,34,35
 -1807 691 -1807 691 -1878.5 620 c 128,-1,36
 -1950 549 -1950 549 -2051 549 c 0,37,38
 -2151 549 -2151 549 -2223 620 c 128,-1,39
 -2295 691 -2295 691 -2295 792 c 0,40,41
 -2295 892 -2295 892 -2223 964 c 128,-1,42
 -2151 1036 -2151 1036 -2051 1036 c 0,43,44
 -1962 1036 -1962 1036 -1895 979 c 1,45,-1
 -1834 1040 l 1,46,-1
 -1937 1146 l 2,47,48
 -1957 1167 -1957 1167 -1935 1185 c 128,-1,49
 -1913 1203 -1913 1203 -1896 1185 c 2,50,-1
 -1794 1080 l 1,51,-1
 -1762 1113 l 1,52,-1
 -1864 1220 l 2,53,54
 -1885 1241 -1885 1241 -1862.5 1259 c 128,-1,55
 -1840 1277 -1840 1277 -1823 1259 c 2,56,-1
 -1722 1154 l 1,0,1
-2051 602 m 0,57,58
 -1972 602 -1972 602 -1916 657.5 c 128,-1,59
 -1860 713 -1860 713 -1860 792 c 256,60,61
 -1860 871 -1860 871 -1916 927 c 128,-1,62
 -1972 983 -1972 983 -2051 983 c 0,63,64
 -2129 983 -2129 983 -2185.5 927 c 128,-1,65
 -2242 871 -2242 871 -2242 792 c 256,66,67
 -2242 713 -2242 713 -2185.5 657.5 c 128,-1,68
 -2129 602 -2129 602 -2051 602 c 0,57,58
EndSplineSet
EndChar

StartChar: C
Encoding: 67 67 36
Width: 0
Flags: W
LayerCount: 2
Fore
SplineSet
-707 952 m 1,0,-1
 -772 827 l 1,1,2
 -783 803 -783 803 -688.5 847 c 128,-1,3
 -594 891 -594 891 -445 808 c 0,4,5
 -423 796 -423 796 -379.5 756.5 c 128,-1,6
 -336 717 -336 717 -303 733 c 1,7,8
 -300 733 -300 733 -333.5 778 c 128,-1,9
 -367 823 -367 823 -304 870 c 1,10,11
 -261 900 -261 900 -210.5 858 c 128,-1,12
 -160 816 -160 816 -197 737 c 0,13,14
 -218 693 -218 693 -268 683 c 128,-1,15
 -318 673 -318 673 -355 676 c 1,16,17
 -476 682 -476 682 -536.5 736 c 128,-1,18
 -597 790 -597 790 -677 798 c 1,19,20
 -755 804 -755 804 -765 780 c 128,-1,21
 -775 756 -775 756 -806 760 c 1,22,23
 -815 760 -815 760 -825 772.5 c 128,-1,24
 -835 785 -835 785 -836 790 c 0,25,26
 -838 806 -838 806 -831.5 814 c 128,-1,27
 -825 822 -825 822 -822 829 c 2,28,-1
 -745 974 l 1,29,30
 -847 1045 -847 1045 -847 1171 c 0,31,32
 -847 1269 -847 1269 -777 1339.5 c 128,-1,33
 -707 1410 -707 1410 -609 1410 c 0,34,35
 -509 1410 -509 1410 -439 1339.5 c 128,-1,36
 -369 1269 -369 1269 -369 1171 c 0,37,38
 -369 1072 -369 1072 -439 1001.5 c 128,-1,39
 -509 931 -509 931 -609 931 c 0,40,41
 -659 931 -659 931 -707 952 c 1,0,-1
-609 1358 m 0,42,43
 -685 1358 -685 1358 -740.5 1302.5 c 128,-1,44
 -796 1247 -796 1247 -796 1171 c 0,45,46
 -796 1093 -796 1093 -740.5 1037.5 c 128,-1,47
 -685 982 -685 982 -609 982 c 0,48,49
 -531 982 -531 982 -475.5 1037.5 c 128,-1,50
 -420 1093 -420 1093 -420 1171 c 0,51,52
 -420 1247 -420 1247 -475.5 1302.5 c 128,-1,53
 -531 1358 -531 1358 -609 1358 c 0,42,43
EndSplineSet
EndChar

StartChar: D
Encoding: 68 68 37
Width: 0
Flags: W
LayerCount: 2
Fore
SplineSet
-717 2849 m 1,0,-1
 -782 2721 l 2,1,2
 -794 2697 -794 2697 -698.5 2741.5 c 128,-1,3
 -603 2786 -603 2786 -453 2703 c 0,4,5
 -430 2691 -430 2691 -386.5 2651.5 c 128,-1,6
 -343 2612 -343 2612 -309 2627 c 1,7,8
 -306 2627 -306 2627 -340.5 2672.5 c 128,-1,9
 -375 2718 -375 2718 -310 2766 c 1,10,11
 -267 2795 -267 2795 -215 2753 c 128,-1,12
 -163 2711 -163 2711 -201 2631 c 1,13,14
 -221 2586 -221 2586 -273 2576 c 128,-1,15
 -325 2566 -325 2566 -362 2569 c 0,16,17
 -484 2576 -484 2576 -545 2630.5 c 128,-1,18
 -606 2685 -606 2685 -686 2693 c 1,19,20
 -765 2699 -765 2699 -776 2675 c 128,-1,21
 -787 2651 -787 2651 -818 2654 c 0,22,23
 -826 2654 -826 2654 -836.5 2666.5 c 128,-1,24
 -847 2679 -847 2679 -847 2685 c 0,25,26
 -848 2700 -848 2700 -833 2724 c 1,27,-1
 -756 2871 l 1,28,29
 -859 2943 -859 2943 -859 3068 c 0,30,31
 -859 3168 -859 3168 -787.5 3239 c 128,-1,32
 -716 3310 -716 3310 -617 3310 c 0,33,34
 -517 3310 -517 3310 -446.5 3239 c 128,-1,35
 -376 3168 -376 3168 -376 3068 c 256,36,37
 -376 2968 -376 2968 -446.5 2897.5 c 128,-1,38
 -517 2827 -517 2827 -617 2827 c 0,39,40
 -668 2827 -668 2827 -717 2849 c 1,0,-1
-617 3258 m 256,41,42
 -695 3258 -695 3258 -750.5 3202 c 128,-1,43
 -806 3146 -806 3146 -806 3068 c 0,44,45
 -806 2991 -806 2991 -750.5 2935 c 128,-1,46
 -695 2879 -695 2879 -617 2879 c 256,47,48
 -539 2879 -539 2879 -483.5 2935 c 128,-1,49
 -428 2991 -428 2991 -428 3068 c 0,50,51
 -428 3146 -428 3146 -483.5 3202 c 128,-1,52
 -539 3258 -539 3258 -617 3258 c 256,41,42
8 1970 m 0,53,54
 10 1970 10 1970 10 1967 c 0,55,56
 10 1965 10 1965 8 1965 c 0,57,58
 5 1965 5 1965 5 1967 c 0,59,60
 5 1970 5 1970 8 1970 c 0,53,54
EndSplineSet
EndChar

StartChar: E
Encoding: 69 69 38
Width: 0
Flags: W
LayerCount: 2
Fore
SplineSet
-766 791 m 1,0,-1
 -971 586 l 1,1,-1
 -994 559 l 1,2,3
 -1016 536 -1016 536 -1037.5 558 c 128,-1,4
 -1059 580 -1059 580 -1036 604 c 1,5,-1
 -975 662 l 1,6,-1
 -803 829 l 1,7,8
 -854 893 -854 893 -854 977 c 0,9,10
 -854 1077 -854 1077 -782.5 1148 c 128,-1,11
 -711 1219 -711 1219 -611 1219 c 0,12,13
 -524 1219 -524 1219 -456 1163 c 1,14,-1
 -354 1265 l 1,15,-1
 -456 1371 l 1,16,17
 -477 1391 -477 1391 -455 1409 c 128,-1,18
 -433 1427 -433 1427 -416 1409 c 2,19,-1
 -315 1304 l 1,20,-1
 -243 1378 l 1,21,-1
 -219 1405 l 1,22,23
 -197 1427 -197 1427 -176 1405.5 c 128,-1,24
 -155 1384 -155 1384 -178 1360 c 1,25,-1
 -238 1302 l 1,26,-1
 -276 1265 l 1,27,-1
 -178 1163 l 1,28,29
 -157 1144 -157 1144 -179 1125 c 128,-1,30
 -201 1106 -201 1106 -219 1125 c 2,31,-1
 -316 1226 l 1,32,-1
 -420 1125 l 1,33,34
 -369 1059 -369 1059 -369 977 c 0,35,36
 -369 877 -369 877 -440 805.5 c 128,-1,37
 -511 734 -511 734 -611 734 c 0,38,39
 -699 734 -699 734 -766 791 c 1,0,-1
-611 787 m 256,40,41
 -533 787 -533 787 -477 842.5 c 128,-1,42
 -421 898 -421 898 -421 977 c 0,43,44
 -421 1055 -421 1055 -477 1111 c 128,-1,45
 -533 1167 -533 1167 -611 1167 c 256,46,47
 -689 1167 -689 1167 -745 1111 c 128,-1,48
 -801 1055 -801 1055 -801 977 c 0,49,50
 -801 898 -801 898 -745 842.5 c 128,-1,51
 -689 787 -689 787 -611 787 c 256,40,41
EndSplineSet
EndChar

StartChar: F
Encoding: 70 70 39
Width: 0
Flags: W
LayerCount: 2
Fore
SplineSet
-202 2060 m 0,0,1
 -200 2060 -200 2060 -200 2057 c 0,2,3
 -200 2055 -200 2055 -202 2055 c 0,4,5
 -205 2055 -205 2055 -205 2057 c 0,6,7
 -205 2060 -205 2060 -202 2060 c 0,0,1
-725 2763 m 1,8,9
 -816 2772 -816 2772 -879 2840.5 c 128,-1,10
 -942 2909 -942 2909 -942 3003 c 0,11,12
 -942 3101 -942 3101 -870.5 3172.5 c 128,-1,13
 -799 3244 -799 3244 -700 3244 c 256,14,15
 -601 3244 -601 3244 -530 3172.5 c 128,-1,16
 -459 3101 -459 3101 -459 3003 c 0,17,18
 -459 2909 -459 2909 -522 2840.5 c 128,-1,19
 -585 2772 -585 2772 -676 2763 c 1,20,-1
 -674 2481 l 2,21,22
 -674 2452 -674 2452 -700.5 2452.5 c 128,-1,23
 -727 2453 -727 2453 -727 2481 c 2,24,-1
 -725 2763 l 1,8,9
-700 2814 m 0,25,26
 -623 2814 -623 2814 -567.5 2869 c 128,-1,27
 -512 2924 -512 2924 -512 3003 c 0,28,29
 -512 3080 -512 3080 -567.5 3135.5 c 128,-1,30
 -623 3191 -623 3191 -700 3191 c 0,31,32
 -778 3191 -778 3191 -834 3135.5 c 128,-1,33
 -890 3080 -890 3080 -890 3003 c 0,34,35
 -890 2924 -890 2924 -834 2869 c 128,-1,36
 -778 2814 -778 2814 -700 2814 c 0,25,26
EndSplineSet
EndChar

StartChar: G
Encoding: 71 71 40
Width: 0
Flags: W
LayerCount: 2
Fore
SplineSet
-860 3047 m 2,0,-1
 -512 3182 l 1,1,-1
 -868 3314 l 2,2,3
 -874 3316 -874 3316 -888 3352.5 c 128,-1,4
 -902 3389 -902 3389 -869 3407 c 2,5,-1
 -536 3582 l 1,6,7
 -619 3606 -619 3606 -702.5 3631 c 128,-1,8
 -786 3656 -786 3656 -870 3681 c 0,9,10
 -887 3686 -887 3686 -891 3742 c 128,-1,11
 -895 3798 -895 3798 -869 3802 c 0,12,13
 -737 3820 -737 3820 -603 3839.5 c 128,-1,14
 -469 3859 -469 3859 -342 3876 c 0,15,16
 -325 3878 -325 3878 -325 3853 c 128,-1,17
 -325 3828 -325 3828 -341 3825 c 0,18,19
 -386 3814 -386 3814 -519.5 3800.5 c 128,-1,20
 -653 3787 -653 3787 -778 3766 c 1,21,-1
 -490 3678 l 2,22,23
 -472 3673 -472 3673 -456.5 3633.5 c 128,-1,24
 -441 3594 -441 3594 -456 3586 c 2,25,-1
 -804 3398 l 1,26,-1
 -469 3279 l 2,27,28
 -452 3273 -452 3273 -426 3226.5 c 128,-1,29
 -400 3180 -400 3180 -425 3171 c 2,30,-1
 -790 3027 l 2,31,32
 -796 3024 -796 3024 -656 3017.5 c 128,-1,33
 -516 3011 -516 3011 -405 2996 c 0,34,35
 -318 2984 -318 2984 -277 2965.5 c 128,-1,36
 -236 2947 -236 2947 -204 2931 c 1,37,38
 -177 2916 -177 2916 -147 2869.5 c 128,-1,39
 -117 2823 -117 2823 -114 2789 c 0,40,41
 -108 2707 -108 2707 -145 2645 c 128,-1,42
 -182 2583 -182 2583 -264 2590 c 1,43,44
 -359 2596 -359 2596 -352 2707 c 0,45,46
 -349 2743 -349 2743 -315.5 2768.5 c 128,-1,47
 -282 2794 -282 2794 -244 2784 c 1,48,49
 -176 2763 -176 2763 -174 2792 c 0,50,51
 -167 2901 -167 2901 -346 2930 c 1,52,53
 -629 2973 -629 2973 -729 2961.5 c 128,-1,54
 -829 2950 -829 2950 -858 2972 c 1,55,56
 -876 2982 -876 2982 -880 3010 c 128,-1,57
 -884 3038 -884 3038 -860 3047 c 2,0,-1
EndSplineSet
EndChar

StartChar: H
Encoding: 72 72 41
Width: 0
Flags: W
LayerCount: 2
Fore
SplineSet
-618 2825 m 1,0,1
 -711 2833 -711 2833 -774.5 2903 c 128,-1,2
 -838 2973 -838 2973 -838 3068 c 0,3,4
 -838 3162 -838 3162 -774.5 3231.5 c 128,-1,5
 -711 3301 -711 3301 -618 3311 c 1,6,-1
 -620 3527 l 2,7,8
 -620 3554 -620 3554 -593.5 3555.5 c 128,-1,9
 -567 3557 -567 3557 -567 3527 c 2,10,-1
 -568 3311 l 1,11,12
 -476 3301 -476 3301 -412.5 3231.5 c 128,-1,13
 -349 3162 -349 3162 -349 3068 c 0,14,15
 -349 2973 -349 2973 -412.5 2903.5 c 128,-1,16
 -476 2834 -476 2834 -568 2825 c 1,17,-1
 -567 2610 l 2,18,19
 -567 2578 -567 2578 -593.5 2579.5 c 128,-1,20
 -620 2581 -620 2581 -620 2610 c 2,21,-1
 -618 2825 l 1,0,1
-593 3260 m 256,22,23
 -672 3260 -672 3260 -729 3203.5 c 128,-1,24
 -786 3147 -786 3147 -786 3068 c 256,25,26
 -786 2989 -786 2989 -729 2933 c 128,-1,27
 -672 2877 -672 2877 -593 2877 c 256,28,29
 -514 2877 -514 2877 -457.5 2933 c 128,-1,30
 -401 2989 -401 2989 -401 3068 c 256,31,32
 -401 3147 -401 3147 -457.5 3203.5 c 128,-1,33
 -514 3260 -514 3260 -593 3260 c 256,22,23
8 1970 m 0,34,35
 10 1970 10 1970 10 1967 c 0,36,37
 10 1965 10 1965 8 1965 c 0,38,39
 5 1965 5 1965 5 1967 c 0,40,41
 5 1970 5 1970 8 1970 c 0,34,35
EndSplineSet
EndChar

StartChar: I
Encoding: 73 73 42
Width: 0
Flags: W
LayerCount: 2
Fore
SplineSet
-374 1265 m 1,0,-1
 -171 1469 l 1,1,-1
 -147 1496 l 1,2,3
 -125 1519 -125 1519 -104 1497.5 c 128,-1,4
 -83 1476 -83 1476 -106 1451 c 1,5,-1
 -166 1394 l 1,6,-1
 -337 1227 l 1,7,8
 -287 1160 -287 1160 -287 1079 c 0,9,10
 -287 977 -287 977 -358.5 906 c 128,-1,11
 -430 835 -430 835 -530 835 c 0,12,13
 -618 835 -618 835 -686 892 c 1,14,-1
 -788 789 l 1,15,-1
 -686 683 l 1,16,17
 -664 662 -664 662 -686 644 c 128,-1,18
 -708 626 -708 626 -726 645 c 2,19,-1
 -828 749 l 1,20,-1
 -901 676 l 1,21,-1
 -924 649 l 1,22,23
 -946 626 -946 626 -967.5 648 c 128,-1,24
 -989 670 -989 670 -966 694 c 1,25,-1
 -905 752 l 1,26,-1
 -867 789 l 1,27,-1
 -966 892 l 1,28,29
 -986 911 -986 911 -964.5 929 c 128,-1,30
 -943 947 -943 947 -926 930 c 2,31,-1
 -826 829 l 1,32,-1
 -722 930 l 1,33,34
 -773 994 -773 994 -773 1079 c 0,35,36
 -773 1178 -773 1178 -701.5 1249.5 c 128,-1,37
 -630 1321 -630 1321 -530 1321 c 0,38,39
 -442 1321 -442 1321 -374 1265 c 1,0,-1
-530 1269 m 0,40,41
 -608 1269 -608 1269 -664 1213 c 128,-1,42
 -720 1157 -720 1157 -720 1079 c 0,43,44
 -720 1000 -720 1000 -664 943.5 c 128,-1,45
 -608 887 -608 887 -530 887 c 0,46,47
 -451 887 -451 887 -395 943.5 c 128,-1,48
 -339 1000 -339 1000 -339 1079 c 0,49,50
 -339 1157 -339 1157 -395 1213 c 128,-1,51
 -451 1269 -451 1269 -530 1269 c 0,40,41
EndSplineSet
EndChar

StartChar: J
Encoding: 74 74 43
Width: 0
Flags: W
LayerCount: 2
Fore
SplineSet
-478 2690 m 1,0,1
 -548 2633 -548 2633 -640.5 2637 c 128,-1,2
 -733 2641 -733 2641 -798 2707 c 1,3,4
 -864 2772 -864 2772 -868 2864 c 128,-1,5
 -872 2956 -872 2956 -815 3027 c 1,6,-1
 -993 3204 l 2,7,8
 -1012 3224 -1012 3224 -994 3243 c 128,-1,9
 -976 3262 -976 3262 -956 3241 c 2,10,-1
 -780 3062 l 1,11,12
 -709 3118 -709 3118 -617 3114 c 128,-1,13
 -525 3110 -525 3110 -459 3045 c 1,14,15
 -394 2979 -394 2979 -389.5 2887.5 c 128,-1,16
 -385 2796 -385 2796 -444 2725 c 1,17,-1
 -275 2558 l 2,18,19
 -253 2536 -253 2536 -272.5 2518 c 128,-1,20
 -292 2500 -292 2500 -312 2521 c 2,21,-1
 -478 2690 l 1,0,1
-762 3009 m 1,22,23
 -817 2953 -817 2953 -817 2875.5 c 128,-1,24
 -817 2798 -817 2798 -762 2743 c 0,25,26
 -706 2688 -706 2688 -628.5 2688 c 128,-1,27
 -551 2688 -551 2688 -497 2743 c 1,28,29
 -441 2798 -441 2798 -441 2875.5 c 128,-1,30
 -441 2953 -441 2953 -497 3009 c 0,31,32
 -551 3063 -551 3063 -628.5 3063 c 128,-1,33
 -706 3063 -706 3063 -762 3009 c 1,22,23
EndSplineSet
EndChar

StartChar: K
Encoding: 75 75 44
Width: 0
Flags: W
LayerCount: 2
Fore
SplineSet
8 1970 m 0,0,1
 10 1970 10 1970 10 1967 c 0,2,3
 10 1965 10 1965 8 1965 c 0,4,5
 5 1965 5 1965 5 1967 c 0,6,7
 5 1970 5 1970 8 1970 c 0,0,1
-746 2981 m 1,8,-1
 -748 3262 l 2,9,10
 -748 3288 -748 3288 -721 3289.5 c 128,-1,11
 -694 3291 -694 3291 -694 3262 c 2,12,-1
 -696 2981 l 1,13,14
 -605 2970 -605 2970 -542.5 2902 c 128,-1,15
 -480 2834 -480 2834 -480 2741 c 0,16,17
 -480 2642 -480 2642 -550.5 2571.5 c 128,-1,18
 -621 2501 -621 2501 -721 2501 c 0,19,20
 -820 2501 -820 2501 -891 2571.5 c 128,-1,21
 -962 2642 -962 2642 -962 2741 c 0,22,23
 -962 2834 -962 2834 -899.5 2902.5 c 128,-1,24
 -837 2971 -837 2971 -746 2981 c 1,8,-1
-721 2929 m 256,25,26
 -798 2929 -798 2929 -854 2873.5 c 128,-1,27
 -910 2818 -910 2818 -910 2741 c 0,28,29
 -910 2663 -910 2663 -854 2608 c 128,-1,30
 -798 2553 -798 2553 -721 2553 c 256,31,32
 -644 2553 -644 2553 -588 2608 c 128,-1,33
 -532 2663 -532 2663 -532 2741 c 0,34,35
 -532 2818 -532 2818 -588 2873.5 c 128,-1,36
 -644 2929 -644 2929 -721 2929 c 256,25,26
EndSplineSet
EndChar

StartChar: L
Encoding: 76 76 45
Width: 3
Flags: W
LayerCount: 2
Fore
SplineSet
-277 3749 m 1,0,1
 -271 3728 -271 3728 -300 3725 c 128,-1,2
 -329 3722 -329 3722 -331 3744 c 1,3,4
 -337 3782 -337 3782 -342 3817 c 1,5,6
 -424 3806 -424 3806 -528 3793 c 128,-1,7
 -632 3780 -632 3780 -715 3766 c 1,8,-1
 -427 3678 l 2,9,10
 -409 3673 -409 3673 -393.5 3633.5 c 128,-1,11
 -378 3594 -378 3594 -393 3586 c 2,12,-1
 -741 3398 l 1,13,-1
 -406 3279 l 2,14,15
 -389 3273 -389 3273 -363 3226.5 c 128,-1,16
 -337 3180 -337 3180 -362 3171 c 2,17,-1
 -727 3027 l 2,18,19
 -733 3024 -733 3024 -593 3017.5 c 128,-1,20
 -453 3011 -453 3011 -342 2996 c 0,21,22
 -255 2984 -255 2984 -214 2965.5 c 128,-1,23
 -173 2947 -173 2947 -141 2931 c 1,24,25
 -114 2916 -114 2916 -84 2869.5 c 128,-1,26
 -54 2823 -54 2823 -51 2789 c 0,27,28
 -45 2707 -45 2707 -82 2645 c 128,-1,29
 -119 2583 -119 2583 -201 2590 c 1,30,31
 -296 2596 -296 2596 -289 2707 c 0,32,33
 -286 2743 -286 2743 -252.5 2768.5 c 128,-1,34
 -219 2794 -219 2794 -181 2784 c 1,35,36
 -113 2763 -113 2763 -111 2792 c 0,37,38
 -104 2901 -104 2901 -283 2930 c 1,39,40
 -566 2973 -566 2973 -666 2961.5 c 128,-1,41
 -766 2950 -766 2950 -795 2972 c 1,42,43
 -813 2982 -813 2982 -817 3010 c 128,-1,44
 -821 3038 -821 3038 -797 3047 c 2,45,-1
 -449 3182 l 1,46,-1
 -805 3314 l 2,47,48
 -811 3316 -811 3316 -825 3352.5 c 128,-1,49
 -839 3389 -839 3389 -806 3407 c 2,50,-1
 -473 3582 l 1,51,52
 -556 3606 -556 3606 -639.5 3631 c 128,-1,53
 -723 3656 -723 3656 -807 3681 c 0,54,55
 -824 3686 -824 3686 -828 3742 c 128,-1,56
 -832 3798 -832 3798 -806 3802 c 1,57,58
 -769 3812 -769 3812 -617 3833.5 c 128,-1,59
 -465 3855 -465 3855 -353 3871 c 1,60,61
 -354 3883 -354 3883 -357.5 3899 c 128,-1,62
 -361 3915 -361 3915 -366 3944 c 1,63,64
 -367 3971 -367 3971 -339 3971 c 128,-1,65
 -311 3971 -311 3971 -310 3952 c 1,66,67
 -306 3927 -306 3927 -303.5 3910 c 128,-1,68
 -301 3893 -301 3893 -299 3878 c 1,69,70
 -278 3880 -278 3880 -255.5 3884 c 128,-1,71
 -233 3888 -233 3888 -216 3891 c 1,72,73
 -196 3892 -196 3892 -194 3863.5 c 128,-1,74
 -192 3835 -192 3835 -210 3833 c 1,75,76
 -221 3830 -221 3830 -244 3828.5 c 128,-1,77
 -267 3827 -267 3827 -291 3824 c 1,78,79
 -287 3804 -287 3804 -277 3749 c 1,0,1
EndSplineSet
EndChar

StartChar: M
Encoding: 77 77 46
Width: 0
Flags: W
LayerCount: 2
Fore
SplineSet
-425 905 m 1,0,1
 -495 847 -495 847 -587 851 c 128,-1,2
 -679 855 -679 855 -745 921 c 0,3,4
 -809 986 -809 986 -813.5 1078 c 128,-1,5
 -818 1170 -818 1170 -761 1241 c 1,6,-1
 -938 1417 l 2,7,8
 -958 1436 -958 1436 -940 1456 c 128,-1,9
 -922 1476 -922 1476 -902 1455 c 2,10,-1
 -726 1275 l 1,11,12
 -656 1332 -656 1332 -564 1328 c 128,-1,13
 -472 1324 -472 1324 -407 1259 c 0,14,15
 -342 1193 -342 1193 -338.5 1101 c 128,-1,16
 -335 1009 -335 1009 -390 940 c 1,17,-1
 -223 773 l 2,18,19
 -201 751 -201 751 -220 733 c 128,-1,20
 -239 715 -239 715 -260 736 c 2,21,-1
 -425 905 l 1,0,1
-709 1222 m 1,22,23
 -763 1167 -763 1167 -763 1089.5 c 128,-1,24
 -763 1012 -763 1012 -709 958 c 0,25,26
 -653 902 -653 902 -575.5 902 c 128,-1,27
 -498 902 -498 902 -443 958 c 1,28,29
 -388 1012 -388 1012 -388 1089.5 c 128,-1,30
 -388 1167 -388 1167 -443 1222 c 256,31,32
 -498 1277 -498 1277 -575.5 1277 c 128,-1,33
 -653 1277 -653 1277 -709 1222 c 1,22,23
EndSplineSet
EndChar

StartChar: O
Encoding: 79 79 47
Width: 0
Flags: W
LayerCount: 2
Fore
SplineSet
-753 916 m 1,0,-1
 -902 724 l 1,1,2
 -927 690 -927 690 -960 670 c 128,-1,3
 -993 650 -993 650 -1015 638 c 0,4,5
 -1039 625 -1039 625 -1087.5 627.5 c 128,-1,6
 -1136 630 -1136 630 -1163 643 c 1,7,8
 -1227 670 -1227 670 -1256.5 725.5 c 128,-1,9
 -1286 781 -1286 781 -1246 837 c 0,10,11
 -1198 905 -1198 905 -1122 852 c 0,12,13
 -1098 836 -1098 836 -1096.5 796 c 128,-1,14
 -1095 756 -1095 756 -1119 735 c 0,15,16
 -1160 697 -1160 697 -1139 685 c 1,17,18
 -1108 664 -1108 664 -1046.5 682.5 c 128,-1,19
 -985 701 -985 701 -952 744 c 2,20,-1
 -797 946 l 1,21,22
 -880 1018 -880 1018 -880 1126 c 0,23,24
 -880 1223 -880 1223 -809.5 1293.5 c 128,-1,25
 -739 1364 -739 1364 -642 1364 c 0,26,27
 -544 1364 -544 1364 -474 1293.5 c 128,-1,28
 -404 1223 -404 1223 -404 1126 c 0,29,30
 -404 1027 -404 1027 -474 957.5 c 128,-1,31
 -544 888 -544 888 -642 888 c 0,32,33
 -703 888 -703 888 -753 916 c 1,0,-1
-642 1312 m 0,34,35
 -718 1312 -718 1312 -773 1257 c 128,-1,36
 -828 1202 -828 1202 -828 1126 c 0,37,38
 -828 1048 -828 1048 -773 993.5 c 128,-1,39
 -718 939 -718 939 -642 939 c 0,40,41
 -564 939 -564 939 -510 993.5 c 128,-1,42
 -456 1048 -456 1048 -456 1126 c 0,43,44
 -456 1202 -456 1202 -510 1257 c 128,-1,45
 -564 1312 -564 1312 -642 1312 c 0,34,35
EndSplineSet
EndChar

StartChar: P
Encoding: 80 80 48
Width: 0
Flags: W
LayerCount: 2
Fore
SplineSet
-369 1175 m 1,0,-1
 -227 1368 l 1,1,-1
 -208 1399 l 1,2,3
 -190 1425 -190 1425 -165.5 1406.5 c 128,-1,4
 -141 1388 -141 1388 -160 1361 c 1,5,-1
 -211 1293 l 1,6,-1
 -328 1139 l 1,7,8
 -260 1068 -260 1068 -260 970 c 0,9,10
 -260 868 -260 868 -331 796 c 128,-1,11
 -402 724 -402 724 -505 724 c 0,12,13
 -564 724 -564 724 -620 753 c 1,14,-1
 -772 556 l 1,15,16
 -798 520 -798 520 -832 499.5 c 128,-1,17
 -866 479 -866 479 -889 468 c 1,18,19
 -913 454 -913 454 -963 457 c 128,-1,20
 -1013 460 -1013 460 -1042 472 c 0,21,22
 -1107 500 -1107 500 -1137.5 557 c 128,-1,23
 -1168 614 -1168 614 -1127 673 c 1,24,25
 -1077 741 -1077 741 -1000 688 c 0,26,27
 -974 671 -974 671 -972.5 630 c 128,-1,28
 -971 589 -971 589 -997 566 c 0,29,30
 -1038 529 -1038 529 -1017 515 c 0,31,32
 -984 493 -984 493 -920.5 512 c 128,-1,33
 -857 531 -857 531 -825 576 c 1,34,-1
 -664 785 l 1,35,36
 -749 857 -749 857 -749 970 c 0,37,38
 -749 1070 -749 1070 -677 1142.5 c 128,-1,39
 -605 1215 -605 1215 -505 1215 c 0,40,41
 -429 1215 -429 1215 -369 1175 c 1,0,-1
-505 1162 m 0,42,43
 -583 1162 -583 1162 -640 1105.5 c 128,-1,44
 -697 1049 -697 1049 -697 970 c 0,45,46
 -697 890 -697 890 -640 834 c 128,-1,47
 -583 778 -583 778 -505 778 c 0,48,49
 -425 778 -425 778 -368.5 834 c 128,-1,50
 -312 890 -312 890 -312 970 c 0,51,52
 -312 1049 -312 1049 -368.5 1105.5 c 128,-1,53
 -425 1162 -425 1162 -505 1162 c 0,42,43
EndSplineSet
EndChar

StartChar: Q
Encoding: 81 81 49
Width: 0
Flags: W
LayerCount: 2
Fore
SplineSet
-549 1011 m 1,0,-1
 -980 1109 l 1,1,2
 -980 1103 -980 1103 -980.5 1097.5 c 128,-1,3
 -981 1092 -981 1092 -981 1086 c 0,4,5
 -981 994 -981 994 -915 929 c 128,-1,6
 -849 864 -849 864 -758 864 c 0,7,8
 -686 864 -686 864 -629 905.5 c 128,-1,9
 -572 947 -572 947 -549 1011 c 1,0,-1
-537 1064 m 1,10,11
 -536 1068 -536 1068 -536 1086 c 0,12,13
 -536 1177 -536 1177 -600.5 1243 c 128,-1,14
 -665 1309 -665 1309 -758 1309 c 0,15,16
 -829 1309 -829 1309 -885.5 1267.5 c 128,-1,17
 -942 1226 -942 1226 -966 1163 c 1,18,-1
 -537 1064 l 1,10,11
-484 1051 m 1,19,-1
 -183 983 l 2,20,21
 -98 964 -98 964 -81.5 1023.5 c 128,-1,22
 -65 1083 -65 1083 -182 1109 c 0,23,24
 -224 1118 -224 1118 -207.5 1194 c 128,-1,25
 -191 1270 -191 1270 -103 1248 c 1,26,27
 -16 1225 -16 1225 1.5 1148.5 c 128,-1,28
 19 1072 19 1072 -1 1025 c 1,29,30
 -11 998 -11 998 -57.5 953 c 128,-1,31
 -104 908 -104 908 -196 930 c 1,32,-1
 -496 998 l 1,33,34
 -523 915 -523 915 -594.5 861.5 c 128,-1,35
 -666 808 -666 808 -758 808 c 0,36,37
 -872 808 -872 808 -954 889.5 c 128,-1,38
 -1036 971 -1036 971 -1036 1086 c 0,39,40
 -1036 1098 -1036 1098 -1033 1122 c 1,41,-1
 -1328 1190 l 1,42,43
 -1416 1209 -1416 1209 -1431.5 1149 c 128,-1,44
 -1447 1089 -1447 1089 -1330 1064 c 0,45,46
 -1287 1055 -1287 1055 -1304 979 c 128,-1,47
 -1321 903 -1321 903 -1409 925 c 0,48,49
 -1496 947 -1496 947 -1514 1023.5 c 128,-1,50
 -1532 1100 -1532 1100 -1512 1148 c 0,51,52
 -1502 1174 -1502 1174 -1456.5 1219.5 c 128,-1,53
 -1411 1265 -1411 1265 -1315 1243 c 2,54,-1
 -1021 1176 l 1,55,56
 -992 1257 -992 1257 -920 1310.5 c 128,-1,57
 -848 1364 -848 1364 -758 1364 c 0,58,59
 -643 1364 -643 1364 -561.5 1282.5 c 128,-1,60
 -480 1201 -480 1201 -480 1086 c 0,61,62
 -480 1074 -480 1074 -484 1051 c 1,19,-1
EndSplineSet
EndChar

StartChar: R
Encoding: 82 82 50
Width: 0
Flags: W
LayerCount: 2
Fore
SplineSet
-759 836 m 1,0,-1
 -927 666 l 2,1,2
 -947 645 -947 645 -966.5 663 c 128,-1,3
 -986 681 -986 681 -963 704 c 2,4,-1
 -795 871 l 1,5,6
 -852 940 -852 940 -848 1033 c 128,-1,7
 -844 1126 -844 1126 -778 1192 c 1,8,9
 -711 1257 -711 1257 -619 1261 c 128,-1,10
 -527 1265 -527 1265 -457 1208 c 1,11,-1
 -281 1388 l 1,12,13
 -261 1410 -261 1410 -243 1390 c 128,-1,14
 -225 1370 -225 1370 -245 1351 c 2,15,-1
 -422 1174 l 1,16,17
 -365 1103 -365 1103 -369 1010 c 128,-1,18
 -373 917 -373 917 -438 852 c 0,19,20
 -504 786 -504 786 -596 781.5 c 128,-1,21
 -688 777 -688 777 -759 836 c 1,0,-1
-475 1155 m 0,22,23
 -530 1210 -530 1210 -608 1210 c 128,-1,24
 -686 1210 -686 1210 -742 1155 c 1,25,26
 -796 1099 -796 1099 -796 1021 c 128,-1,27
 -796 943 -796 943 -742 889 c 0,28,29
 -686 833 -686 833 -608 833 c 128,-1,30
 -530 833 -530 833 -475 889 c 1,31,32
 -419 943 -419 943 -419 1021 c 128,-1,33
 -419 1099 -419 1099 -475 1155 c 0,22,23
EndSplineSet
EndChar

StartChar: S
Encoding: 83 83 51
Width: 14
Flags: W
LayerCount: 2
Fore
SplineSet
-328 2193 m 0,0,1
 -383 2217 -383 2217 -438.5 2177 c 128,-1,2
 -494 2137 -494 2137 -530 2056 c 0,3,4
 -566 1974 -566 1974 -553 1899.5 c 128,-1,5
 -540 1825 -540 1825 -485 1801 c 1,6,7
 -415 1777 -415 1777 -352.5 1805.5 c 128,-1,8
 -290 1834 -290 1834 -264 1938 c 0,9,10
 -211 2144 -211 2144 -328 2193 c 0,0,1
-200 2149 m 1,11,-1
 -191 2260 l 1,12,13
 -148 2273 -148 2273 -101 2253 c 1,14,15
 -98 2180 -98 2180 -108.5 2003.5 c 128,-1,16
 -119 1827 -119 1827 -126 1332 c 0,17,18
 -126 1305 -126 1305 -131.5 1277.5 c 128,-1,19
 -137 1250 -137 1250 -146 1244 c 0,20,21
 -187 1214 -187 1214 -235 1238 c 0,22,23
 -249 1244 -249 1244 -254.5 1276 c 128,-1,24
 -260 1308 -260 1308 -260 1332 c 0,25,26
 -259 1404 -259 1404 -252.5 1429.5 c 128,-1,27
 -246 1455 -246 1455 -243 1474 c 0,28,29
 -228 1585 -228 1585 -222.5 1662.5 c 128,-1,30
 -217 1740 -217 1740 -211 1852 c 1,31,32
 -290 1744 -290 1744 -448 1758 c 0,33,34
 -558 1768 -558 1768 -618 1849 c 128,-1,35
 -678 1930 -678 1930 -667 2032 c 256,36,37
 -656 2134 -656 2134 -580.5 2197.5 c 128,-1,38
 -505 2261 -505 2261 -395 2251 c 0,39,40
 -257 2238 -257 2238 -200 2149 c 1,11,-1
-22 1316 m 257,41,42
 -22 1316 -22 1316 -22 1316 c 129,-1,43
 -22 1316 -22 1316 -22 1316 c 257,44,45
 -22 1316 -22 1316 -22 1316 c 129,-1,46
 -22 1316 -22 1316 -22 1316 c 257,47,48
 -22 1316 -22 1316 -22 1316 c 129,-1,49
 -22 1316 -22 1316 -22 1316 c 257,50,51
 -22 1316 -22 1316 -22 1316 c 129,-1,52
 -22 1316 -22 1316 -22 1316 c 257,41,42
14 2051 m 1,53,54
 14 2051 14 2051 14 2050.5 c 128,-1,55
 14 2050 14 2050 14 2050 c 257,56,57
 14 2050 14 2050 14 2050 c 129,-1,58
 14 2050 14 2050 14 2050 c 1,59,60
 13 2050 13 2050 13 2050 c 129,-1,61
 13 2050 13 2050 13 2050 c 1,62,63
 13 2051 13 2051 14 2051 c 1,53,54
EndSplineSet
EndChar

StartChar: T
Encoding: 84 84 52
Width: 0
Flags: W
LayerCount: 2
Fore
SplineSet
-1471 2744 m 1,0,1
 -1479 2738 -1479 2738 -1488 2728.5 c 128,-1,2
 -1497 2719 -1497 2719 -1505 2712 c 1,3,-1
 -1403 2607 l 2,4,5
 -1381 2585 -1381 2585 -1403 2567 c 128,-1,6
 -1425 2549 -1425 2549 -1444 2568 c 2,7,-1
 -1545 2673 l 1,8,-1
 -1568 2648 l 1,9,-1
 -1576 2638 l 1,10,11
 -1598 2614 -1598 2614 -1619 2636 c 128,-1,12
 -1640 2658 -1640 2658 -1618 2682 c 1,13,-1
 -1584 2713 l 1,14,-1
 -1683 2814 l 2,15,16
 -1703 2833 -1703 2833 -1681 2851.5 c 128,-1,17
 -1659 2870 -1659 2870 -1642 2852 c 2,18,-1
 -1544 2752 l 1,19,-1
 -1510 2785 l 1,20,-1
 -1609 2886 l 1,21,22
 -1630 2905 -1630 2905 -1607.5 2923.5 c 128,-1,23
 -1585 2942 -1585 2942 -1568 2924 c 2,24,-1
 -1470 2824 l 1,25,-1
 -1437 2857 l 1,26,-1
 -1537 2960 l 1,27,28
 -1558 2979 -1558 2979 -1535.5 2997.5 c 128,-1,29
 -1513 3016 -1513 3016 -1496 2998 c 2,30,-1
 -1397 2896 l 1,31,-1
 -1335 2957 l 1,32,33
 -1386 3022 -1386 3022 -1386 3105 c 0,34,35
 -1386 3205 -1386 3205 -1314.5 3276.5 c 128,-1,36
 -1243 3348 -1243 3348 -1143 3348 c 0,37,38
 -1041 3348 -1041 3348 -970 3276.5 c 128,-1,39
 -899 3205 -899 3205 -899 3105 c 0,40,41
 -899 3004 -899 3004 -970 2933 c 128,-1,42
 -1041 2862 -1041 2862 -1143 2862 c 0,43,44
 -1230 2862 -1230 2862 -1298 2918 c 1,45,-1
 -1359 2858 l 1,46,-1
 -1257 2752 l 1,47,48
 -1235 2731 -1235 2731 -1257 2713 c 128,-1,49
 -1279 2695 -1279 2695 -1298 2714 c 2,50,-1
 -1399 2818 l 1,51,-1
 -1431 2784 l 1,52,-1
 -1329 2679 l 2,53,54
 -1308 2658 -1308 2658 -1330 2639.5 c 128,-1,55
 -1352 2621 -1352 2621 -1370 2640 c 2,56,-1
 -1471 2744 l 1,0,1
-1143 3296 m 0,57,58
 -1220 3296 -1220 3296 -1276.5 3239.5 c 128,-1,59
 -1333 3183 -1333 3183 -1333 3105 c 0,60,61
 -1333 3026 -1333 3026 -1276.5 2970.5 c 128,-1,62
 -1220 2915 -1220 2915 -1143 2915 c 0,63,64
 -1064 2915 -1064 2915 -1008 2970.5 c 128,-1,65
 -952 3026 -952 3026 -952 3105 c 0,66,67
 -952 3183 -952 3183 -1008 3239.5 c 128,-1,68
 -1064 3296 -1064 3296 -1143 3296 c 0,57,58
EndSplineSet
EndChar

StartChar: U
Encoding: 85 85 53
Width: 0
Flags: W
LayerCount: 2
Fore
SplineSet
-152 1970 m 0,0,1
 -150 1970 -150 1970 -150 1967 c 0,2,3
 -150 1965 -150 1965 -152 1965 c 0,4,5
 -155 1965 -155 1965 -155 1967 c 0,6,7
 -155 1970 -155 1970 -152 1970 c 0,0,1
-613 743 m 1,8,-1
 -760 740 l 2,9,10
 -784 740 -784 740 -787.5 768 c 128,-1,11
 -791 796 -791 796 -761 797 c 2,12,-1
 -613 800 l 1,13,-1
 -613 946 l 1,14,15
 -701 952 -701 952 -763 1017 c 1,16,17
 -835 1088 -835 1088 -835 1189.5 c 128,-1,18
 -835 1291 -835 1291 -763 1363 c 0,19,20
 -692 1434 -692 1434 -590 1434 c 128,-1,21
 -488 1434 -488 1434 -417 1363 c 0,22,23
 -345 1291 -345 1291 -345 1189.5 c 128,-1,24
 -345 1088 -345 1088 -417 1017 c 1,25,26
 -476 957 -476 957 -560 947 c 1,27,-1
 -557 800 l 1,28,-1
 -415 803 l 2,29,30
 -389 803 -389 803 -387 773.5 c 128,-1,31
 -385 744 -385 744 -413 746 c 1,32,-1
 -557 744 l 1,33,-1
 -556 690 l 1,34,-1
 -553 605 l 1,35,36
 -554 571 -554 571 -585 571 c 128,-1,37
 -616 571 -616 571 -616 604 c 1,38,-1
 -613 639 l 1,39,-1
 -613 743 l 1,8,-1
-455 1326 m 0,40,41
 -511 1381 -511 1381 -590.5 1381 c 128,-1,42
 -670 1381 -670 1381 -726 1326 c 1,43,44
 -782 1269 -782 1269 -782 1189.5 c 128,-1,45
 -782 1110 -782 1110 -726 1054 c 0,46,47
 -670 997 -670 997 -590.5 997 c 128,-1,48
 -511 997 -511 997 -455 1054 c 1,49,50
 -398 1110 -398 1110 -398 1189.5 c 128,-1,51
 -398 1269 -398 1269 -455 1326 c 0,40,41
EndSplineSet
EndChar

StartChar: V
Encoding: 86 86 54
Width: 0
Flags: W
LayerCount: 2
Fore
SplineSet
8 2120 m 0,0,1
 10 2120 10 2120 10 2117 c 0,2,3
 10 2115 10 2115 8 2115 c 0,4,5
 5 2115 5 2115 5 2117 c 0,6,7
 5 2120 5 2120 8 2120 c 0,0,1
-631 878 m 1,8,9
 -723 887 -723 887 -786 956 c 128,-1,10
 -849 1025 -849 1025 -849 1119 c 0,11,12
 -849 1219 -849 1219 -777.5 1290.5 c 128,-1,13
 -706 1362 -706 1362 -606 1362 c 256,14,15
 -506 1362 -506 1362 -435 1290.5 c 128,-1,16
 -364 1219 -364 1219 -364 1119 c 0,17,18
 -364 1025 -364 1025 -427 956 c 128,-1,19
 -490 887 -490 887 -581 878 c 1,20,-1
 -580 585 l 2,21,22
 -580 556 -580 556 -606.5 557 c 128,-1,23
 -633 558 -633 558 -633 585 c 2,24,-1
 -631 878 l 1,8,9
-606 929 m 0,25,26
 -527 929 -527 929 -471.5 984.5 c 128,-1,27
 -416 1040 -416 1040 -416 1119 c 0,28,29
 -416 1197 -416 1197 -471.5 1253 c 128,-1,30
 -527 1309 -527 1309 -606 1309 c 0,31,32
 -684 1309 -684 1309 -740 1253 c 128,-1,33
 -796 1197 -796 1197 -796 1119 c 0,34,35
 -796 1040 -796 1040 -740 984.5 c 128,-1,36
 -684 929 -684 929 -606 929 c 0,25,26
EndSplineSet
EndChar

StartChar: W
Encoding: 87 87 55
Width: 0
Flags: W
LayerCount: 2
Fore
SplineSet
-382 1073 m 1,0,1
 -239 1073 -239 1073 -169.5 1067.5 c 128,-1,2
 -100 1062 -100 1062 -26 1055 c 1,3,4
 54 1046 54 1046 124 1016 c 0,5,6
 201 983 201 983 217 909 c 0,7,8
 233 832 233 832 201.5 772.5 c 128,-1,9
 170 713 170 713 93 716 c 1,10,11
 4 717 4 717 3 817 c 0,12,13
 3 851 3 851 36 877 c 128,-1,14
 69 903 69 903 106 893 c 0,15,16
 145 882 145 882 155.5 888 c 128,-1,17
 166 894 166 894 166 910 c 0,18,19
 166 953 166 953 111 980.5 c 128,-1,20
 56 1008 56 1008 -6 1015 c 0,21,22
 -137 1028 -137 1028 -201.5 1030 c 128,-1,23
 -266 1032 -266 1032 -381 1032 c 1,24,25
 -388 924 -388 924 -466.5 850.5 c 128,-1,26
 -545 777 -545 777 -656 777 c 0,27,28
 -764 777 -764 777 -843 850.5 c 128,-1,29
 -922 924 -922 924 -929 1032 c 1,30,31
 -1100 1035 -1100 1035 -1200 1028.5 c 128,-1,32
 -1300 1022 -1300 1022 -1425 1022 c 0,33,34
 -1433 1022 -1433 1022 -1446 1025 c 128,-1,35
 -1459 1028 -1459 1028 -1459 1033 c 2,36,-1
 -1459 1057 l 2,37,38
 -1459 1061 -1459 1061 -1445.5 1064 c 128,-1,39
 -1432 1067 -1432 1067 -1425 1067 c 0,40,41
 -1300 1067 -1300 1067 -1177 1070.5 c 128,-1,42
 -1054 1074 -1054 1074 -930 1074 c 1,43,44
 -922 1180 -922 1180 -843 1254 c 128,-1,45
 -764 1328 -764 1328 -656 1328 c 0,46,47
 -547 1328 -547 1328 -468 1253.5 c 128,-1,48
 -389 1179 -389 1179 -382 1073 c 1,0,1
-874 1073 m 1,49,-1
 -436 1073 l 1,50,51
 -444 1156 -444 1156 -506 1214.5 c 128,-1,52
 -568 1273 -568 1273 -656 1273 c 0,53,54
 -740 1273 -740 1273 -803 1215 c 128,-1,55
 -866 1157 -866 1157 -874 1073 c 1,49,-1
-874 1032 m 1,56,57
 -869 945 -869 945 -806 888.5 c 128,-1,58
 -743 832 -743 832 -656 832 c 256,59,60
 -569 832 -569 832 -506.5 889.5 c 128,-1,61
 -444 947 -444 947 -437 1032 c 1,62,-1
 -874 1032 l 1,56,57
EndSplineSet
EndChar

StartChar: X
Encoding: 88 88 56
Width: 27
Flags: W
LayerCount: 2
Fore
SplineSet
-577 1532 m 1,0,-1
 -765 1340 l 2,1,2
 -789 1316 -789 1316 -810 1336.5 c 128,-1,3
 -831 1357 -831 1357 -807 1382 c 2,4,-1
 -616 1571 l 1,5,6
 -680 1650 -680 1650 -675.5 1754 c 128,-1,7
 -671 1858 -671 1858 -597 1933 c 0,8,9
 -523 2007 -523 2007 -419 2011.5 c 128,-1,10
 -315 2016 -315 2016 -235 1951 c 1,11,-1
 -37 2155 l 1,12,13
 -13 2178 -13 2178 6.5 2156 c 128,-1,14
 26 2134 26 2134 4 2113 c 2,15,-1
 -196 1912 l 1,16,17
 -131 1832 -131 1832 -135.5 1728 c 128,-1,18
 -140 1624 -140 1624 -215 1550 c 1,19,20
 -288 1475 -288 1475 -392.5 1470.5 c 128,-1,21
 -497 1466 -497 1466 -577 1532 c 1,0,-1
-256 1891 m 0,22,23
 -318 1953 -318 1953 -405.5 1953 c 128,-1,24
 -493 1953 -493 1953 -556 1891 c 0,25,26
 -618 1829 -618 1829 -618 1741 c 128,-1,27
 -618 1653 -618 1653 -556 1591 c 0,28,29
 -493 1529 -493 1529 -405.5 1529 c 128,-1,30
 -318 1529 -318 1529 -256 1591 c 0,31,32
 -193 1653 -193 1653 -193 1741 c 128,-1,33
 -193 1829 -193 1829 -256 1891 c 0,22,23
EndSplineSet
EndChar

StartChar: Y
Encoding: 89 89 57
Width: 301
Flags: W
LayerCount: 2
Fore
SplineSet
225 1970 m 0,0,1
 227 1970 227 1970 227 1967 c 0,2,3
 227 1965 227 1965 225 1965 c 0,4,5
 222 1965 222 1965 222 1967 c 0,6,7
 222 1970 222 1970 225 1970 c 0,0,1
-82 2944 m 1,8,9
 -129 2961 -129 2961 -152 2993 c 128,-1,10
 -175 3025 -175 3025 -175 3070 c 0,11,12
 -175 3138 -175 3138 -126 3184 c 128,-1,13
 -77 3230 -77 3230 4 3230 c 256,14,15
 85 3230 85 3230 134 3183 c 128,-1,16
 183 3136 183 3136 183 3068 c 0,17,18
 183 3025 183 3025 160.5 2993 c 128,-1,19
 138 2961 138 2961 93 2944 c 1,20,21
 149 2925 149 2925 179 2883 c 128,-1,22
 209 2841 209 2841 209 2784 c 0,23,24
 209 2704 209 2704 152.5 2650 c 128,-1,25
 96 2596 96 2596 4 2596 c 0,26,27
 -87 2596 -87 2596 -143.5 2650 c 128,-1,28
 -200 2704 -200 2704 -200 2786 c 0,29,30
 -200 2847 -200 2847 -169.5 2888 c 128,-1,31
 -139 2929 -139 2929 -82 2944 c 1,8,9
-97 3073 m 0,32,33
 -97 3028 -97 3028 -68.5 3000 c 128,-1,34
 -40 2972 -40 2972 4 2972 c 0,35,36
 49 2972 49 2972 77 3000 c 128,-1,37
 105 3028 105 3028 105 3068 c 0,38,39
 105 3110 105 3110 76 3139 c 128,-1,40
 47 3168 47 3168 4 3168 c 0,41,42
 -40 3168 -40 3168 -68.5 3140 c 128,-1,43
 -97 3112 -97 3112 -97 3073 c 0,32,33
-122 2785 m 0,44,45
 -122 2753 -122 2753 -106.5 2722.5 c 128,-1,46
 -91 2692 -91 2692 -60.5 2675 c 128,-1,47
 -30 2658 -30 2658 5 2658 c 0,48,49
 60 2658 60 2658 95.5 2693.5 c 128,-1,50
 131 2729 131 2729 131 2784 c 0,51,52
 131 2838 131 2838 94.5 2874 c 128,-1,53
 58 2910 58 2910 3 2910 c 0,54,55
 -51 2910 -51 2910 -86.5 2874.5 c 128,-1,56
 -122 2839 -122 2839 -122 2785 c 0,44,45
EndSplineSet
EndChar

StartChar: Z
Encoding: 90 90 58
Width: 275
Flags: W
LayerCount: 2
Fore
SplineSet
-319 1334 m 1,0,1
 -327 1318 -327 1318 -385.5 1322.5 c 128,-1,2
 -444 1327 -444 1327 -508 1366 c 128,-1,3
 -572 1405 -572 1405 -618.5 1484 c 128,-1,4
 -665 1563 -665 1563 -650 1697 c 0,5,6
 -626 1912 -626 1912 -643 2050 c 128,-1,7
 -660 2188 -660 2188 -783 2161 c 1,8,9
 -860 2143 -860 2143 -823 2074 c 128,-1,10
 -786 2005 -786 2005 -870 1978 c 1,11,12
 -906 1965 -906 1965 -938 1993.5 c 128,-1,13
 -970 2022 -970 2022 -970 2061 c 0,14,15
 -970 2155 -970 2155 -889 2187 c 1,16,17
 -843 2204 -843 2204 -768 2203.5 c 128,-1,18
 -693 2203 -693 2203 -636 2167 c 1,19,20
 -523 2093 -523 2093 -490.5 2003.5 c 128,-1,21
 -458 1914 -458 1914 -458 1582 c 1,22,23
 -457 1420 -457 1420 -385.5 1392 c 128,-1,24
 -314 1364 -314 1364 -319 1334 c 1,0,1
258 1334 m 1,25,26
 249 1318 249 1318 191 1322.5 c 128,-1,27
 133 1327 133 1327 69 1366 c 128,-1,28
 5 1405 5 1405 -41.5 1484 c 128,-1,29
 -88 1563 -88 1563 -73 1697 c 0,30,31
 -48 1912 -48 1912 -65 2050 c 128,-1,32
 -82 2188 -82 2188 -205 2161 c 0,33,34
 -283 2143 -283 2143 -245.5 2074 c 128,-1,35
 -208 2005 -208 2005 -292 1978 c 1,36,37
 -328 1965 -328 1965 -360 1993.5 c 128,-1,38
 -392 2022 -392 2022 -392 2061 c 0,39,40
 -392 2155 -392 2155 -311 2187 c 1,41,42
 -265 2204 -265 2204 -190 2203.5 c 128,-1,43
 -115 2203 -115 2203 -58 2167 c 1,44,45
 53 2093 53 2093 86 2003.5 c 128,-1,46
 119 1914 119 1914 120 1582 c 0,47,48
 120 1420 120 1420 191 1392 c 128,-1,49
 262 1364 262 1364 258 1334 c 1,25,26
EndSplineSet
EndChar

StartChar: bracketleft
Encoding: 91 91 59
Width: 0
Flags: W
LayerCount: 2
Fore
SplineSet
8 1970 m 0,0,1
 10 1970 10 1970 10 1967 c 0,2,3
 10 1965 10 1965 8 1965 c 0,4,5
 5 1965 5 1965 5 1967 c 0,6,7
 5 1970 5 1970 8 1970 c 0,0,1
-1638 1384 m 1,8,-1
 -1638 1488 l 1,9,-1
 -1641 1524 l 1,10,11
 -1641 1556 -1641 1556 -1610 1555.5 c 128,-1,12
 -1579 1555 -1579 1555 -1578 1522 c 1,13,-1
 -1581 1438 l 1,14,-1
 -1582 1384 l 1,15,-1
 -1438 1381 l 1,16,17
 -1409 1382 -1409 1382 -1411 1353 c 128,-1,18
 -1413 1324 -1413 1324 -1440 1325 c 2,19,-1
 -1582 1327 l 1,20,-1
 -1585 1180 l 1,21,22
 -1500 1169 -1500 1169 -1442 1110 c 1,23,24
 -1370 1039 -1370 1039 -1370 937 c 128,-1,25
 -1370 835 -1370 835 -1442 764 c 1,26,27
 -1513 692 -1513 692 -1615 692 c 128,-1,28
 -1717 692 -1717 692 -1788 764 c 1,29,30
 -1860 835 -1860 835 -1860 937 c 128,-1,31
 -1860 1039 -1860 1039 -1788 1110 c 1,32,33
 -1726 1173 -1726 1173 -1638 1181 c 1,34,-1
 -1638 1328 l 1,35,-1
 -1786 1330 l 2,36,37
 -1816 1330 -1816 1330 -1812.5 1358.5 c 128,-1,38
 -1809 1387 -1809 1387 -1785 1387 c 2,39,-1
 -1638 1384 l 1,8,-1
-1480 802 m 1,40,41
 -1423 858 -1423 858 -1423 937 c 128,-1,42
 -1423 1016 -1423 1016 -1480 1073 c 0,43,44
 -1536 1129 -1536 1129 -1615 1129 c 128,-1,45
 -1694 1129 -1694 1129 -1751 1073 c 1,46,47
 -1807 1016 -1807 1016 -1807 937 c 128,-1,48
 -1807 858 -1807 858 -1751 802 c 0,49,50
 -1694 745 -1694 745 -1615 745 c 128,-1,51
 -1536 745 -1536 745 -1480 802 c 1,40,41
EndSplineSet
EndChar

StartChar: backslash
Encoding: 92 92 60
Width: 740
Flags: W
LayerCount: 2
Fore
SplineSet
-542 759 m 1,0,1
 -399 759 -399 759 -329.5 759 c 128,-1,2
 -260 759 -260 759 -198.5 757.5 c 128,-1,3
 -137 756 -137 756 -207 672 c 2,4,-1
 -291 572 l 1,5,6
 -335 528 -335 528 -279 527 c 2,7,-1
 732 526 l 1,8,9
 761 506 761 506 729 491 c 1,10,-1
 167 492 l 1,11,-1
 -138 492 l 1,12,13
 -297 491 -297 491 -347 491 c 128,-1,14
 -397 491 -397 491 -354 556 c 1,15,-1
 -249 678 l 1,16,17
 -210 717 -210 717 -244.5 717 c 128,-1,18
 -279 717 -279 717 -352.5 717.5 c 128,-1,19
 -426 718 -426 718 -541 718 c 1,20,21
 -548 610 -548 610 -626.5 536.5 c 128,-1,22
 -705 463 -705 463 -816 463 c 0,23,24
 -924 463 -924 463 -1003 536.5 c 128,-1,25
 -1082 610 -1082 610 -1089 718 c 1,26,27
 -1260 721 -1260 721 -1360 714.5 c 128,-1,28
 -1460 708 -1460 708 -1585 708 c 0,29,30
 -1593 708 -1593 708 -1606 711 c 128,-1,31
 -1619 714 -1619 714 -1619 719 c 2,32,-1
 -1619 743 l 2,33,34
 -1619 747 -1619 747 -1605.5 750 c 128,-1,35
 -1592 753 -1592 753 -1585 753 c 0,36,37
 -1460 753 -1460 753 -1337 756.5 c 128,-1,38
 -1214 760 -1214 760 -1090 760 c 1,39,40
 -1082 866 -1082 866 -1003 940 c 128,-1,41
 -924 1014 -924 1014 -816 1014 c 0,42,43
 -707 1014 -707 1014 -628 939.5 c 128,-1,44
 -549 865 -549 865 -542 759 c 1,0,1
-1034 759 m 1,45,-1
 -596 759 l 1,46,47
 -604 842 -604 842 -666 900.5 c 128,-1,48
 -728 959 -728 959 -816 959 c 0,49,50
 -900 959 -900 959 -963 901 c 128,-1,51
 -1026 843 -1026 843 -1034 759 c 1,45,-1
-1034 718 m 1,52,53
 -1029 631 -1029 631 -966 574.5 c 128,-1,54
 -903 518 -903 518 -816 518 c 256,55,56
 -729 518 -729 518 -666.5 575.5 c 128,-1,57
 -604 633 -604 633 -597 718 c 1,58,-1
 -1034 718 l 1,52,53
EndSplineSet
EndChar

StartChar: bracketright
Encoding: 93 93 61
Width: 0
Flags: W
LayerCount: 2
Fore
SplineSet
-1689 1073 m 1,0,1
 -1546 1073 -1546 1073 -1476.5 1073 c 128,-1,2
 -1407 1073 -1407 1073 -1345.5 1072 c 128,-1,3
 -1284 1071 -1284 1071 -1354 986 c 1,4,-1
 -1438 887 l 1,5,6
 -1482 842 -1482 842 -1426 841 c 1,7,-1
 -414 841 l 1,8,9
 -385 821 -385 821 -417 806 c 1,10,-1
 -979 807 l 1,11,-1
 -1285 806 l 2,12,13
 -1444 805 -1444 805 -1494 805.5 c 128,-1,14
 -1544 806 -1544 806 -1501 870 c 1,15,-1
 -1396 992 l 1,16,17
 -1357 1031 -1357 1031 -1391.5 1031 c 128,-1,18
 -1426 1031 -1426 1031 -1499.5 1031.5 c 128,-1,19
 -1573 1032 -1573 1032 -1688 1032 c 1,20,21
 -1695 924 -1695 924 -1773.5 850.5 c 128,-1,22
 -1852 777 -1852 777 -1963 777 c 0,23,24
 -2071 777 -2071 777 -2150 850.5 c 128,-1,25
 -2229 924 -2229 924 -2236 1032 c 1,26,27
 -2407 1035 -2407 1035 -2507 1028.5 c 128,-1,28
 -2607 1022 -2607 1022 -2732 1022 c 0,29,30
 -2740 1022 -2740 1022 -2753 1025 c 128,-1,31
 -2766 1028 -2766 1028 -2766 1033 c 2,32,-1
 -2766 1057 l 2,33,34
 -2766 1061 -2766 1061 -2752.5 1064 c 128,-1,35
 -2739 1067 -2739 1067 -2732 1067 c 0,36,37
 -2607 1067 -2607 1067 -2484 1070.5 c 128,-1,38
 -2361 1074 -2361 1074 -2237 1074 c 1,39,40
 -2229 1180 -2229 1180 -2150 1254 c 128,-1,41
 -2071 1328 -2071 1328 -1963 1328 c 0,42,43
 -1854 1328 -1854 1328 -1775 1253.5 c 128,-1,44
 -1696 1179 -1696 1179 -1689 1073 c 1,0,1
-2181 1073 m 1,45,-1
 -1743 1073 l 1,46,47
 -1751 1156 -1751 1156 -1813 1214.5 c 128,-1,48
 -1875 1273 -1875 1273 -1963 1273 c 0,49,50
 -2047 1273 -2047 1273 -2110 1215 c 128,-1,51
 -2173 1157 -2173 1157 -2181 1073 c 1,45,-1
-2181 1032 m 1,52,53
 -2176 945 -2176 945 -2113 888.5 c 128,-1,54
 -2050 832 -2050 832 -1963 832 c 256,55,56
 -1876 832 -1876 832 -1813.5 889.5 c 128,-1,57
 -1751 947 -1751 947 -1744 1032 c 1,58,-1
 -2181 1032 l 1,52,53
EndSplineSet
EndChar

StartChar: asciicircum
Encoding: 94 94 62
Width: 0
Flags: W
LayerCount: 2
Fore
SplineSet
8 1970 m 0,0,1
 10 1970 10 1970 10 1967 c 0,2,3
 10 1965 10 1965 8 1965 c 0,4,5
 5 1965 5 1965 5 1967 c 0,6,7
 5 1970 5 1970 8 1970 c 0,0,1
-1508 2841 m 1,8,-1
 -1429 2851 l 1,9,10
 -1416 2784 -1416 2784 -1383.5 2755 c 128,-1,11
 -1351 2726 -1351 2726 -1304 2726 c 0,12,13
 -1249 2726 -1249 2726 -1211 2764 c 128,-1,14
 -1173 2802 -1173 2802 -1173 2859 c 0,15,16
 -1173 2913 -1173 2913 -1208.5 2948 c 128,-1,17
 -1244 2983 -1244 2983 -1298 2983 c 0,18,19
 -1320 2983 -1320 2983 -1353 2974 c 1,20,-1
 -1345 3043 l 1,21,22
 -1337 3042 -1337 3042 -1332 3042 c 0,23,24
 -1282 3042 -1282 3042 -1242 3068 c 128,-1,25
 -1202 3094 -1202 3094 -1202 3149 c 0,26,27
 -1202 3192 -1202 3192 -1231.5 3220.5 c 128,-1,28
 -1261 3249 -1261 3249 -1306 3249 c 0,29,30
 -1352 3249 -1352 3249 -1382.5 3220.5 c 128,-1,31
 -1413 3192 -1413 3192 -1421 3133 c 1,32,-1
 -1500 3148 l 1,33,34
 -1486 3226 -1486 3226 -1435 3269.5 c 128,-1,35
 -1384 3313 -1384 3313 -1308 3313 c 0,36,37
 -1256 3313 -1256 3313 -1212 3290.5 c 128,-1,38
 -1168 3268 -1168 3268 -1144.5 3229.5 c 128,-1,39
 -1121 3191 -1121 3191 -1121 3147 c 0,40,41
 -1121 3106 -1121 3106 -1143.5 3072 c 128,-1,42
 -1166 3038 -1166 3038 -1210 3018 c 1,43,44
 -1153 3005 -1153 3005 -1121.5 2964 c 128,-1,45
 -1090 2923 -1090 2923 -1090 2861 c 0,46,47
 -1090 2777 -1090 2777 -1150.5 2719 c 128,-1,48
 -1211 2661 -1211 2661 -1305 2661 c 0,49,50
 -1389 2661 -1389 2661 -1444.5 2711 c 128,-1,51
 -1500 2761 -1500 2761 -1508 2841 c 1,8,-1
EndSplineSet
EndChar

StartChar: underscore
Encoding: 95 95 63
Width: 0
Flags: W
LayerCount: 2
Fore
SplineSet
-78 3335 m 1,0,-1
 63 3526 l 1,1,-1
 82 3557 l 2,2,3
 99 3583 99 3583 124 3564.5 c 128,-1,4
 149 3546 149 3546 130 3518 c 1,5,-1
 79 3453 l 1,6,-1
 -37 3301 l 1,7,8
 31 3231 31 3231 31 3133 c 0,9,10
 31 3032 31 3032 -40 2961.5 c 128,-1,11
 -111 2891 -111 2891 -210 2891 c 0,12,13
 -270 2891 -270 2891 -324 2919 c 1,14,-1
 -475 2723 l 2,15,16
 -501 2689 -501 2689 -535 2669 c 128,-1,17
 -569 2649 -569 2649 -591 2637 c 0,18,19
 -615 2623 -615 2623 -664.5 2626 c 128,-1,20
 -714 2629 -714 2629 -741 2642 c 1,21,22
 -806 2670 -806 2670 -836 2726 c 128,-1,23
 -866 2782 -866 2782 -826 2839 c 1,24,25
 -804 2868 -804 2868 -767.5 2872 c 128,-1,26
 -731 2876 -731 2876 -699 2855 c 1,27,28
 -675 2838 -675 2838 -673.5 2797.5 c 128,-1,29
 -672 2757 -672 2757 -697 2735 c 1,30,31
 -737 2697 -737 2697 -716 2683 c 0,32,33
 -685 2662 -685 2662 -622.5 2681 c 128,-1,34
 -560 2700 -560 2700 -526 2744 c 2,35,-1
 -369 2950 l 1,36,37
 -453 3023 -453 3023 -453 3133 c 0,38,39
 -453 3233 -453 3233 -381.5 3304 c 128,-1,40
 -310 3375 -310 3375 -210 3375 c 0,41,42
 -136 3375 -136 3375 -78 3335 c 1,0,-1
-210 3323 m 256,43,44
 -288 3323 -288 3323 -344 3267 c 128,-1,45
 -400 3211 -400 3211 -400 3133 c 256,46,47
 -400 3055 -400 3055 -344 2999.5 c 128,-1,48
 -288 2944 -288 2944 -210 2944 c 256,49,50
 -132 2944 -132 2944 -76.5 2999.5 c 128,-1,51
 -21 3055 -21 3055 -21 3133 c 256,52,53
 -21 3211 -21 3211 -76.5 3267 c 128,-1,54
 -132 3323 -132 3323 -210 3323 c 256,43,44
EndSplineSet
EndChar

StartChar: grave
Encoding: 96 96 64
Width: 0
Flags: W
LayerCount: 2
Fore
SplineSet
8 1970 m 0,0,1
 10 1970 10 1970 10 1967 c 0,2,3
 10 1965 10 1965 8 1965 c 0,4,5
 5 1965 5 1965 5 1967 c 0,6,7
 5 1970 5 1970 8 1970 c 0,0,1
-1784 2838 m 1,8,-1
 -1344 2838 l 1,9,10
 -1351 2921 -1351 2921 -1413.5 2980 c 128,-1,11
 -1476 3039 -1476 3039 -1564 3039 c 0,12,13
 -1649 3039 -1649 3039 -1712.5 2980.5 c 128,-1,14
 -1776 2922 -1776 2922 -1784 2838 c 1,8,-1
-1784 2796 m 1,15,16
 -1778 2710 -1778 2710 -1715 2653 c 128,-1,17
 -1652 2596 -1652 2596 -1564 2596 c 0,18,19
 -1477 2596 -1477 2596 -1414.5 2653.5 c 128,-1,20
 -1352 2711 -1352 2711 -1344 2796 c 1,21,-1
 -1784 2796 l 1,15,16
-1063 2830 m 1,22,23
 -1002 2827 -1002 2827 -974 2824.5 c 128,-1,24
 -946 2822 -946 2822 -908 2819 c 0,25,26
 -865 2816 -865 2816 -824.5 2802 c 128,-1,27
 -784 2788 -784 2788 -757 2778 c 1,28,29
 -726 2764 -726 2764 -698 2733.5 c 128,-1,30
 -670 2703 -670 2703 -664 2669 c 1,31,32
 -648 2592 -648 2592 -679 2533 c 128,-1,33
 -710 2474 -710 2474 -788 2475 c 0,34,35
 -880 2476 -880 2476 -880 2577 c 0,36,37
 -880 2610 -880 2610 -846.5 2636 c 128,-1,38
 -813 2662 -813 2662 -776 2653 c 0,39,40
 -736 2644 -736 2644 -725.5 2649 c 128,-1,41
 -715 2654 -715 2654 -715 2671 c 0,42,43
 -715 2713 -715 2713 -771 2743.5 c 128,-1,44
 -827 2774 -827 2774 -888 2780 c 0,45,46
 -945 2785 -945 2785 -975 2786.5 c 128,-1,47
 -1005 2788 -1005 2788 -1060 2790 c 1,48,-1
 -1060 2628 l 2,49,50
 -1060 2600 -1060 2600 -1081 2600 c 2,51,-1
 -1091 2600 l 2,52,53
 -1111 2600 -1111 2600 -1111 2628 c 2,54,-1
 -1111 2793 l 1,55,56
 -1143 2793 -1143 2793 -1191.5 2794.5 c 128,-1,57
 -1240 2796 -1240 2796 -1288 2796 c 1,58,59
 -1295 2687 -1295 2687 -1374 2613.5 c 128,-1,60
 -1453 2540 -1453 2540 -1564 2540 c 0,61,62
 -1673 2540 -1673 2540 -1752.5 2613.5 c 128,-1,63
 -1832 2687 -1832 2687 -1839 2796 c 1,64,65
 -2011 2799 -2011 2799 -2112 2793 c 128,-1,66
 -2213 2787 -2213 2787 -2337 2787 c 0,67,68
 -2345 2787 -2345 2787 -2358.5 2790 c 128,-1,69
 -2372 2793 -2372 2793 -2372 2798 c 2,70,-1
 -2372 2821 l 2,71,72
 -2372 2826 -2372 2826 -2358.5 2829.5 c 128,-1,73
 -2345 2833 -2345 2833 -2337 2833 c 0,74,75
 -2213 2833 -2213 2833 -2089 2836 c 128,-1,76
 -1965 2839 -1965 2839 -1840 2839 c 1,77,78
 -1831 2945 -1831 2945 -1752 3019.5 c 128,-1,79
 -1673 3094 -1673 3094 -1564 3094 c 256,80,81
 -1455 3094 -1455 3094 -1376 3019.5 c 128,-1,82
 -1297 2945 -1297 2945 -1289 2839 c 1,83,84
 -1241 2839 -1241 2839 -1200 2835.5 c 128,-1,85
 -1159 2832 -1159 2832 -1111 2833 c 1,86,-1
 -1111 2991 l 2,87,88
 -1111 3020 -1111 3020 -1091 3020 c 2,89,-1
 -1081 3020 l 2,90,91
 -1060 3020 -1060 3020 -1060 2991 c 2,92,-1
 -1063 2830 l 1,22,23
EndSplineSet
EndChar

StartChar: a
Encoding: 97 97 65
Width: 1512
Flags: W
LayerCount: 2
Fore
SplineSet
1440 400 m 1,0,-1
 738 400 l 1,1,-1
 1107 1184 l 1,2,-1
 1440 400 l 1,0,-1
1282 491 m 1,3,-1
 1076 976 l 1,4,-1
 848 491 l 1,5,-1
 1282 491 l 1,3,-1
EndSplineSet
EndChar

StartChar: b
Encoding: 98 98 66
Width: 0
Flags: W
LayerCount: 2
Fore
SplineSet
8 1970 m 0,0,1
 10 1970 10 1970 10 1967 c 0,2,3
 10 1965 10 1965 8 1965 c 0,4,5
 5 1965 5 1965 5 1967 c 0,6,7
 5 1970 5 1970 8 1970 c 0,0,1
-1879 1141 m 1,8,-1
 -1671 1350 l 1,9,-1
 -1648 1377 l 1,10,11
 -1626 1398 -1626 1398 -1605 1377.5 c 128,-1,12
 -1584 1357 -1584 1357 -1607 1333 c 1,13,-1
 -1666 1277 l 1,14,-1
 -1845 1104 l 1,15,16
 -1795 1041 -1795 1041 -1795 960 c 0,17,18
 -1795 862 -1795 862 -1864.5 793 c 128,-1,19
 -1934 724 -1934 724 -2030 724 c 0,20,21
 -2128 724 -2128 724 -2197.5 793 c 128,-1,22
 -2267 862 -2267 862 -2267 960 c 0,23,24
 -2267 1057 -2267 1057 -2197.5 1126.5 c 128,-1,25
 -2128 1196 -2128 1196 -2030 1196 c 0,26,27
 -1945 1196 -1945 1196 -1879 1141 c 1,8,-1
-2030 775 m 0,28,29
 -1955 775 -1955 775 -1900 829.5 c 128,-1,30
 -1845 884 -1845 884 -1845 960 c 256,31,32
 -1845 1036 -1845 1036 -1900 1090.5 c 128,-1,33
 -1955 1145 -1955 1145 -2030 1145 c 0,34,35
 -2106 1145 -2106 1145 -2161 1090.5 c 128,-1,36
 -2216 1036 -2216 1036 -2216 960 c 256,37,38
 -2216 884 -2216 884 -2161 829.5 c 128,-1,39
 -2106 775 -2106 775 -2030 775 c 0,28,29
EndSplineSet
EndChar

StartChar: c
Encoding: 99 99 67
Width: 0
Flags: W
LayerCount: 2
Fore
SplineSet
-1685 985 m 1,0,-1
 -1750 858 l 2,1,2
 -1762 834 -1762 834 -1667.5 878.5 c 128,-1,3
 -1573 923 -1573 923 -1423 840 c 0,4,5
 -1401 828 -1401 828 -1357.5 788.5 c 128,-1,6
 -1314 749 -1314 749 -1281 764 c 1,7,8
 -1278 764 -1278 764 -1311.5 809.5 c 128,-1,9
 -1345 855 -1345 855 -1281 902 c 1,10,11
 -1239 931 -1239 931 -1188 889.5 c 128,-1,12
 -1137 848 -1137 848 -1174 769 c 0,13,14
 -1194 724 -1194 724 -1245 714 c 128,-1,15
 -1296 704 -1296 704 -1333 707 c 0,16,17
 -1453 714 -1453 714 -1514 768 c 128,-1,18
 -1575 822 -1575 822 -1654 830 c 1,19,20
 -1734 836 -1734 836 -1744 812 c 128,-1,21
 -1754 788 -1754 788 -1785 792 c 1,22,23
 -1794 792 -1794 792 -1804 804 c 128,-1,24
 -1814 816 -1814 816 -1814 822 c 1,25,26
 -1817 838 -1817 838 -1810.5 846.5 c 128,-1,27
 -1804 855 -1804 855 -1801 861 c 2,28,-1
 -1723 1007 l 1,29,30
 -1826 1078 -1826 1078 -1826 1202 c 0,31,32
 -1826 1301 -1826 1301 -1755.5 1371.5 c 128,-1,33
 -1685 1442 -1685 1442 -1586 1442 c 256,34,35
 -1487 1442 -1487 1442 -1417 1371.5 c 128,-1,36
 -1347 1301 -1347 1301 -1347 1202 c 256,37,38
 -1347 1103 -1347 1103 -1417 1033 c 128,-1,39
 -1487 963 -1487 963 -1586 963 c 0,40,41
 -1637 963 -1637 963 -1685 985 c 1,0,-1
-1586 1391 m 0,42,43
 -1663 1391 -1663 1391 -1718.5 1335 c 128,-1,44
 -1774 1279 -1774 1279 -1774 1202 c 256,45,46
 -1774 1125 -1774 1125 -1718.5 1070 c 128,-1,47
 -1663 1015 -1663 1015 -1586 1015 c 0,48,49
 -1508 1015 -1508 1015 -1453.5 1070 c 128,-1,50
 -1399 1125 -1399 1125 -1399 1202 c 256,51,52
 -1399 1279 -1399 1279 -1453.5 1335 c 128,-1,53
 -1508 1391 -1508 1391 -1586 1391 c 0,42,43
8 1970 m 0,54,55
 10 1970 10 1970 10 1967 c 0,56,57
 10 1965 10 1965 8 1965 c 0,58,59
 5 1965 5 1965 5 1967 c 0,60,61
 5 1970 5 1970 8 1970 c 0,54,55
EndSplineSet
EndChar

StartChar: d
Encoding: 100 100 68
Width: 0
Flags: W
LayerCount: 2
Fore
SplineSet
-1731 2824 m 1,0,-1
 -1796 2698 l 1,1,2
 -1807 2674 -1807 2674 -1712 2718.5 c 128,-1,3
 -1617 2763 -1617 2763 -1468 2680 c 0,4,5
 -1446 2667 -1446 2667 -1402.5 2627.5 c 128,-1,6
 -1359 2588 -1359 2588 -1325 2603 c 1,7,8
 -1322 2603 -1322 2603 -1356 2649 c 128,-1,9
 -1390 2695 -1390 2695 -1326 2742 c 1,10,11
 -1283 2771 -1283 2771 -1232 2729.5 c 128,-1,12
 -1181 2688 -1181 2688 -1218 2608 c 0,13,14
 -1238 2563 -1238 2563 -1289 2553.5 c 128,-1,15
 -1340 2544 -1340 2544 -1377 2547 c 1,16,17
 -1498 2552 -1498 2552 -1559 2606.5 c 128,-1,18
 -1620 2661 -1620 2661 -1700 2669 c 1,19,20
 -1779 2675 -1779 2675 -1789 2651 c 128,-1,21
 -1799 2627 -1799 2627 -1830 2631 c 1,22,23
 -1839 2631 -1839 2631 -1849 2644 c 128,-1,24
 -1859 2657 -1859 2657 -1859 2661 c 0,25,26
 -1862 2677 -1862 2677 -1855.5 2685.5 c 128,-1,27
 -1849 2694 -1849 2694 -1846 2700 c 2,28,-1
 -1768 2846 l 1,29,30
 -1871 2918 -1871 2918 -1871 3043 c 0,31,32
 -1871 3141 -1871 3141 -1800 3211.5 c 128,-1,33
 -1729 3282 -1729 3282 -1631 3282 c 0,34,35
 -1532 3282 -1532 3282 -1462 3211.5 c 128,-1,36
 -1392 3141 -1392 3141 -1392 3043 c 0,37,38
 -1392 2944 -1392 2944 -1462 2873.5 c 128,-1,39
 -1532 2803 -1532 2803 -1631 2803 c 0,40,41
 -1681 2803 -1681 2803 -1731 2824 c 1,0,-1
-1631 3231 m 256,42,43
 -1708 3231 -1708 3231 -1764 3175.5 c 128,-1,44
 -1820 3120 -1820 3120 -1820 3043 c 0,45,46
 -1820 2965 -1820 2965 -1764 2909.5 c 128,-1,47
 -1708 2854 -1708 2854 -1631 2854 c 256,48,49
 -1554 2854 -1554 2854 -1498.5 2909.5 c 128,-1,50
 -1443 2965 -1443 2965 -1443 3043 c 0,51,52
 -1443 3120 -1443 3120 -1498.5 3175.5 c 128,-1,53
 -1554 3231 -1554 3231 -1631 3231 c 256,42,43
8 1970 m 0,54,55
 10 1970 10 1970 10 1967 c 0,56,57
 10 1965 10 1965 8 1965 c 0,58,59
 5 1965 5 1965 5 1967 c 0,60,61
 5 1970 5 1970 8 1970 c 0,54,55
EndSplineSet
EndChar

StartChar: e
Encoding: 101 101 69
Width: 0
Flags: W
LayerCount: 2
Fore
SplineSet
20 1970 m 0,0,1
 22 1970 22 1970 22 1967 c 0,2,3
 22 1965 22 1965 20 1965 c 0,4,5
 17 1965 17 1965 17 1967 c 0,6,7
 17 1970 17 1970 20 1970 c 0,0,1
-1733 843 m 1,8,-1
 -1939 637 l 1,9,-1
 -1963 610 l 2,10,11
 -1984 586 -1984 586 -2006 608 c 128,-1,12
 -2028 630 -2028 630 -2005 655 c 1,13,-1
 -1944 713 l 1,14,-1
 -1769 882 l 1,15,16
 -1821 947 -1821 947 -1821 1032 c 0,17,18
 -1821 1133 -1821 1133 -1749 1205 c 128,-1,19
 -1677 1277 -1677 1277 -1576 1277 c 0,20,21
 -1486 1277 -1486 1277 -1418 1220 c 1,22,-1
 -1315 1323 l 1,23,-1
 -1418 1429 l 2,24,25
 -1439 1451 -1439 1451 -1417 1468.5 c 128,-1,26
 -1395 1486 -1395 1486 -1378 1469 c 2,27,-1
 -1275 1363 l 1,28,-1
 -1202 1436 l 1,29,-1
 -1178 1464 l 1,30,31
 -1156 1487 -1156 1487 -1134 1465.5 c 128,-1,32
 -1112 1444 -1112 1444 -1136 1419 c 1,33,-1
 -1197 1361 l 1,34,-1
 -1236 1323 l 1,35,-1
 -1136 1220 l 1,36,37
 -1115 1201 -1115 1201 -1136.5 1182 c 128,-1,38
 -1158 1163 -1158 1163 -1176 1182 c 2,39,-1
 -1277 1284 l 1,40,-1
 -1382 1182 l 1,41,42
 -1331 1115 -1331 1115 -1331 1032 c 0,43,44
 -1331 930 -1331 930 -1402.5 858 c 128,-1,45
 -1474 786 -1474 786 -1576 786 c 0,46,47
 -1665 786 -1665 786 -1733 843 c 1,8,-1
-1576 839 m 0,48,49
 -1496 839 -1496 839 -1439.5 895.5 c 128,-1,50
 -1383 952 -1383 952 -1383 1032 c 0,51,52
 -1383 1111 -1383 1111 -1439.5 1167.5 c 128,-1,53
 -1496 1224 -1496 1224 -1576 1224 c 0,54,55
 -1655 1224 -1655 1224 -1711.5 1167.5 c 128,-1,56
 -1768 1111 -1768 1111 -1768 1032 c 0,57,58
 -1768 952 -1768 952 -1711.5 895.5 c 128,-1,59
 -1655 839 -1655 839 -1576 839 c 0,48,49
EndSplineSet
EndChar

StartChar: f
Encoding: 102 102 70
Width: 0
Flags: W
LayerCount: 2
Fore
SplineSet
-1565 2701 m 1,0,1
 -1656 2711 -1656 2711 -1718.5 2779.5 c 128,-1,2
 -1781 2848 -1781 2848 -1781 2942 c 0,3,4
 -1781 3041 -1781 3041 -1710 3111.5 c 128,-1,5
 -1639 3182 -1639 3182 -1540 3182 c 0,6,7
 -1440 3182 -1440 3182 -1369.5 3111.5 c 128,-1,8
 -1299 3041 -1299 3041 -1299 2942 c 0,9,10
 -1299 2848 -1299 2848 -1361.5 2779.5 c 128,-1,11
 -1424 2711 -1424 2711 -1515 2702 c 1,12,-1
 -1513 2421 l 2,13,14
 -1513 2391 -1513 2391 -1540 2392 c 128,-1,15
 -1567 2393 -1567 2393 -1567 2421 c 2,16,-1
 -1565 2701 l 1,0,1
-1540 2753 m 256,17,18
 -1463 2753 -1463 2753 -1407 2808 c 128,-1,19
 -1351 2863 -1351 2863 -1351 2942 c 0,20,21
 -1351 3019 -1351 3019 -1407 3074.5 c 128,-1,22
 -1463 3130 -1463 3130 -1540 3130 c 256,23,24
 -1617 3130 -1617 3130 -1673 3074.5 c 128,-1,25
 -1729 3019 -1729 3019 -1729 2942 c 0,26,27
 -1729 2863 -1729 2863 -1673 2808 c 128,-1,28
 -1617 2753 -1617 2753 -1540 2753 c 256,17,18
8 2130 m 0,29,30
 10 2130 10 2130 10 2127 c 0,31,32
 10 2125 10 2125 8 2125 c 0,33,34
 5 2125 5 2125 5 2127 c 0,35,36
 5 2130 5 2130 8 2130 c 0,29,30
EndSplineSet
EndChar

StartChar: g
Encoding: 103 103 71
Width: 0
Flags: W
LayerCount: 2
Fore
SplineSet
-1749 2821 m 2,0,-1
 -1401 2956 l 1,1,-1
 -1757 3088 l 1,2,3
 -1763 3089 -1763 3089 -1777 3125.5 c 128,-1,4
 -1791 3162 -1791 3162 -1758 3180 c 2,5,-1
 -1425 3356 l 1,6,7
 -1508 3380 -1508 3380 -1591.5 3405 c 128,-1,8
 -1675 3430 -1675 3430 -1759 3454 c 0,9,10
 -1775 3459 -1775 3459 -1779.5 3515 c 128,-1,11
 -1784 3571 -1784 3571 -1758 3576 c 1,12,13
 -1626 3594 -1626 3594 -1492 3613.5 c 128,-1,14
 -1358 3633 -1358 3633 -1231 3650 c 0,15,16
 -1214 3652 -1214 3652 -1214 3626.5 c 128,-1,17
 -1214 3601 -1214 3601 -1230 3598 c 0,18,19
 -1275 3588 -1275 3588 -1408.5 3574.5 c 128,-1,20
 -1542 3561 -1542 3561 -1667 3540 c 1,21,-1
 -1379 3452 l 2,22,23
 -1361 3447 -1361 3447 -1345.5 3407.5 c 128,-1,24
 -1330 3368 -1330 3368 -1345 3360 c 2,25,-1
 -1693 3171 l 1,26,-1
 -1358 3053 l 2,27,28
 -1341 3047 -1341 3047 -1315 3000.5 c 128,-1,29
 -1289 2954 -1289 2954 -1313 2945 c 2,30,-1
 -1679 2800 l 2,31,32
 -1685 2798 -1685 2798 -1545 2791.5 c 128,-1,33
 -1405 2785 -1405 2785 -1294 2770 c 1,34,35
 -1207 2757 -1207 2757 -1165 2739 c 128,-1,36
 -1123 2721 -1123 2721 -1092 2704 c 0,37,38
 -1064 2689 -1064 2689 -1034 2643 c 128,-1,39
 -1004 2597 -1004 2597 -1002 2563 c 0,40,41
 -995 2481 -995 2481 -1032 2419 c 128,-1,42
 -1069 2357 -1069 2357 -1152 2363 c 0,43,44
 -1248 2371 -1248 2371 -1241 2481 c 0,45,46
 -1238 2516 -1238 2516 -1204 2542 c 128,-1,47
 -1170 2568 -1170 2568 -1132 2557 c 0,48,49
 -1063 2536 -1063 2536 -1062 2566 c 1,50,51
 -1054 2675 -1054 2675 -1235 2704 c 1,52,53
 -1518 2747 -1518 2747 -1618 2735.5 c 128,-1,54
 -1718 2724 -1718 2724 -1747 2746 c 1,55,56
 -1765 2756 -1765 2756 -1769 2784 c 128,-1,57
 -1773 2812 -1773 2812 -1749 2821 c 2,0,-1
18 1970 m 1,58,59
 18 1970 18 1970 19 1968.5 c 128,-1,60
 20 1967 20 1967 20 1967 c 257,61,62
 20 1967 20 1967 19 1966 c 128,-1,63
 18 1965 18 1965 18 1965 c 2,64,65
 17 1965 17 1965 16 1966 c 128,-1,66
 15 1967 15 1967 15 1967 c 1,67,68
 15 1970 15 1970 18 1970 c 1,58,59
EndSplineSet
EndChar

StartChar: h
Encoding: 104 104 72
Width: 0
Flags: W
LayerCount: 2
Fore
SplineSet
8 1970 m 0,0,1
 10 1970 10 1970 10 1967 c 0,2,3
 10 1965 10 1965 8 1965 c 0,4,5
 5 1965 5 1965 5 1967 c 0,6,7
 5 1970 5 1970 8 1970 c 0,0,1
-1585 2637 m 1,8,9
 -1677 2647 -1677 2647 -1741 2717 c 128,-1,10
 -1805 2787 -1805 2787 -1805 2882 c 0,11,12
 -1805 2978 -1805 2978 -1741 3047 c 128,-1,13
 -1677 3116 -1677 3116 -1585 3126 c 1,14,-1
 -1586 3343 l 2,15,16
 -1586 3370 -1586 3370 -1559 3371.5 c 128,-1,17
 -1532 3373 -1532 3373 -1532 3343 c 2,18,-1
 -1534 3126 l 1,19,20
 -1442 3116 -1442 3116 -1378 3046.5 c 128,-1,21
 -1314 2977 -1314 2977 -1314 2882 c 256,22,23
 -1314 2787 -1314 2787 -1378 2717 c 128,-1,24
 -1442 2647 -1442 2647 -1534 2637 c 1,25,-1
 -1532 2423 l 2,26,27
 -1532 2390 -1532 2390 -1559 2391.5 c 128,-1,28
 -1586 2393 -1586 2393 -1586 2423 c 2,29,-1
 -1585 2637 l 1,8,9
-1560 3075 m 0,30,31
 -1638 3075 -1638 3075 -1695 3018 c 128,-1,32
 -1752 2961 -1752 2961 -1752 2882 c 256,33,34
 -1752 2803 -1752 2803 -1695 2746.5 c 128,-1,35
 -1638 2690 -1638 2690 -1560 2690 c 0,36,37
 -1480 2690 -1480 2690 -1423.5 2746.5 c 128,-1,38
 -1367 2803 -1367 2803 -1367 2882 c 256,39,40
 -1367 2961 -1367 2961 -1423.5 3018 c 128,-1,41
 -1480 3075 -1480 3075 -1560 3075 c 0,30,31
EndSplineSet
EndChar

StartChar: i
Encoding: 105 105 73
Width: 0
Flags: W
LayerCount: 2
Fore
SplineSet
20 1970 m 0,0,1
 22 1970 22 1970 22 1967 c 0,2,3
 22 1965 22 1965 20 1965 c 0,4,5
 17 1965 17 1965 17 1967 c 0,6,7
 17 1970 17 1970 20 1970 c 0,0,1
-1372 1376 m 1,8,-1
 -1167 1580 l 1,9,-1
 -1144 1608 l 1,10,11
 -1121 1631 -1121 1631 -1099.5 1609.5 c 128,-1,12
 -1078 1588 -1078 1588 -1102 1563 c 1,13,-1
 -1163 1506 l 1,14,-1
 -1336 1338 l 1,15,16
 -1284 1272 -1284 1272 -1284 1190 c 0,17,18
 -1284 1088 -1284 1088 -1356 1017 c 128,-1,19
 -1428 946 -1428 946 -1528 946 c 0,20,21
 -1617 946 -1617 946 -1684 1002 c 1,22,-1
 -1787 900 l 1,23,-1
 -1684 794 l 2,24,25
 -1663 772 -1663 772 -1685 754 c 128,-1,26
 -1707 736 -1707 736 -1725 755 c 2,27,-1
 -1826 859 l 1,28,-1
 -1899 786 l 1,29,-1
 -1923 759 l 2,30,31
 -1944 736 -1944 736 -1966 757.5 c 128,-1,32
 -1988 779 -1988 779 -1965 804 c 1,33,-1
 -1905 862 l 1,34,-1
 -1866 900 l 1,35,-1
 -1965 1002 l 1,36,37
 -1985 1021 -1985 1021 -1963.5 1039.5 c 128,-1,38
 -1942 1058 -1942 1058 -1925 1040 c 2,39,-1
 -1825 938 l 1,40,-1
 -1720 1040 l 1,41,42
 -1772 1105 -1772 1105 -1772 1190 c 0,43,44
 -1772 1290 -1772 1290 -1700 1361.5 c 128,-1,45
 -1628 1433 -1628 1433 -1528 1433 c 0,46,47
 -1439 1433 -1439 1433 -1372 1376 c 1,8,-1
-1528 1381 m 256,48,49
 -1607 1381 -1607 1381 -1663 1324.5 c 128,-1,50
 -1719 1268 -1719 1268 -1719 1190 c 0,51,52
 -1719 1110 -1719 1110 -1663 1054 c 128,-1,53
 -1607 998 -1607 998 -1528 998 c 256,54,55
 -1449 998 -1449 998 -1393 1054 c 128,-1,56
 -1337 1110 -1337 1110 -1337 1190 c 0,57,58
 -1337 1268 -1337 1268 -1393 1324.5 c 128,-1,59
 -1449 1381 -1449 1381 -1528 1381 c 256,48,49
EndSplineSet
EndChar

StartChar: j
Encoding: 106 106 74
Width: 0
Flags: W
LayerCount: 2
Fore
SplineSet
18 1970 m 0,0,1
 20 1970 20 1970 20 1967 c 0,2,3
 20 1965 20 1965 18 1965 c 0,4,5
 15 1965 15 1965 15 1967 c 0,6,7
 15 1970 15 1970 18 1970 c 0,0,1
-1406 2721 m 1,8,9
 -1477 2663 -1477 2663 -1569 2667 c 128,-1,10
 -1661 2671 -1661 2671 -1728 2738 c 0,11,12
 -1793 2804 -1793 2804 -1797 2896 c 128,-1,13
 -1801 2988 -1801 2988 -1744 3059 c 1,14,-1
 -1922 3238 l 2,15,16
 -1942 3257 -1942 3257 -1923.5 3276.5 c 128,-1,17
 -1905 3296 -1905 3296 -1885 3274 c 1,18,-1
 -1709 3094 l 1,19,20
 -1638 3151 -1638 3151 -1545.5 3147 c 128,-1,21
 -1453 3143 -1453 3143 -1388 3077 c 1,22,23
 -1321 3011 -1321 3011 -1317 2919 c 128,-1,24
 -1313 2827 -1313 2827 -1371 2757 c 1,25,-1
 -1201 2589 l 2,26,27
 -1179 2566 -1179 2566 -1198 2548 c 128,-1,28
 -1217 2530 -1217 2530 -1239 2551 c 2,29,-1
 -1406 2721 l 1,8,9
-1691 3041 m 1,30,31
 -1746 2985 -1746 2985 -1746 2907 c 128,-1,32
 -1746 2829 -1746 2829 -1691 2774 c 0,33,34
 -1635 2719 -1635 2719 -1557 2719 c 128,-1,35
 -1479 2719 -1479 2719 -1424 2774 c 256,36,37
 -1369 2829 -1369 2829 -1369 2907 c 128,-1,38
 -1369 2985 -1369 2985 -1424 3041 c 0,39,40
 -1479 3096 -1479 3096 -1557 3096 c 128,-1,41
 -1635 3096 -1635 3096 -1691 3041 c 1,30,31
EndSplineSet
EndChar

StartChar: k
Encoding: 107 107 75
Width: 0
Flags: W
LayerCount: 2
Fore
SplineSet
-1566 2899 m 1,0,-1
 -1568 3179 l 2,1,2
 -1568 3206 -1568 3206 -1541 3207 c 128,-1,3
 -1514 3208 -1514 3208 -1514 3179 c 2,4,-1
 -1516 2899 l 1,5,6
 -1426 2889 -1426 2889 -1363.5 2820.5 c 128,-1,7
 -1301 2752 -1301 2752 -1301 2660 c 0,8,9
 -1301 2561 -1301 2561 -1371.5 2490.5 c 128,-1,10
 -1442 2420 -1442 2420 -1541 2420 c 0,11,12
 -1639 2420 -1639 2420 -1710 2490.5 c 128,-1,13
 -1781 2561 -1781 2561 -1781 2660 c 0,14,15
 -1781 2753 -1781 2753 -1718.5 2821 c 128,-1,16
 -1656 2889 -1656 2889 -1566 2899 c 1,0,-1
-1541 2848 m 256,17,18
 -1618 2848 -1618 2848 -1674 2792.5 c 128,-1,19
 -1730 2737 -1730 2737 -1730 2660 c 0,20,21
 -1730 2582 -1730 2582 -1674 2527 c 128,-1,22
 -1618 2472 -1618 2472 -1541 2472 c 256,23,24
 -1464 2472 -1464 2472 -1408.5 2527 c 128,-1,25
 -1353 2582 -1353 2582 -1353 2660 c 0,26,27
 -1353 2737 -1353 2737 -1408.5 2792.5 c 128,-1,28
 -1464 2848 -1464 2848 -1541 2848 c 256,17,18
8 1970 m 0,29,30
 10 1970 10 1970 10 1967 c 0,31,32
 10 1965 10 1965 8 1965 c 0,33,34
 5 1965 5 1965 5 1967 c 0,35,36
 5 1970 5 1970 8 1970 c 0,29,30
EndSplineSet
EndChar

StartChar: l
Encoding: 108 108 76
Width: 0
Flags: W
LayerCount: 2
Fore
SplineSet
-1226 3518 m 1,0,1
 -1220 3497 -1220 3497 -1249 3494 c 128,-1,2
 -1278 3491 -1278 3491 -1281 3512 c 0,3,4
 -1284 3541 -1284 3541 -1287 3558 c 128,-1,5
 -1290 3575 -1290 3575 -1292 3586 c 1,6,7
 -1374 3575 -1374 3575 -1477.5 3562 c 128,-1,8
 -1581 3549 -1581 3549 -1664 3535 c 1,9,-1
 -1376 3447 l 2,10,11
 -1359 3442 -1359 3442 -1343 3402.5 c 128,-1,12
 -1327 3363 -1327 3363 -1343 3355 c 2,13,-1
 -1690 3166 l 1,14,-1
 -1355 3047 l 2,15,16
 -1338 3041 -1338 3041 -1312 2995 c 128,-1,17
 -1286 2949 -1286 2949 -1311 2940 c 2,18,-1
 -1677 2795 l 2,19,20
 -1682 2792 -1682 2792 -1542.5 2785.5 c 128,-1,21
 -1403 2779 -1403 2779 -1292 2764 c 0,22,23
 -1205 2752 -1205 2752 -1162.5 2734 c 128,-1,24
 -1120 2716 -1120 2716 -1089 2699 c 0,25,26
 -1062 2684 -1062 2684 -1032 2638 c 128,-1,27
 -1002 2592 -1002 2592 -999 2558 c 0,28,29
 -993 2476 -993 2476 -1030 2414 c 128,-1,30
 -1067 2352 -1067 2352 -1149 2358 c 0,31,32
 -1191 2361 -1191 2361 -1216 2396 c 128,-1,33
 -1241 2431 -1241 2431 -1238 2476 c 0,34,35
 -1235 2512 -1235 2512 -1201 2537.5 c 128,-1,36
 -1167 2563 -1167 2563 -1130 2552 c 0,37,38
 -1061 2531 -1061 2531 -1059 2561 c 0,39,40
 -1053 2670 -1053 2670 -1232 2699 c 1,41,42
 -1516 2742 -1516 2742 -1615.5 2730.5 c 128,-1,43
 -1715 2719 -1715 2719 -1744 2741 c 1,44,45
 -1763 2751 -1763 2751 -1767 2779 c 128,-1,46
 -1771 2807 -1771 2807 -1747 2816 c 2,47,-1
 -1398 2951 l 1,48,-1
 -1754 3082 l 2,49,50
 -1760 3085 -1760 3085 -1774 3121 c 128,-1,51
 -1788 3157 -1788 3157 -1755 3175 c 2,52,-1
 -1422 3351 l 1,53,54
 -1506 3375 -1506 3375 -1589 3400 c 128,-1,55
 -1672 3425 -1672 3425 -1756 3449 c 0,56,57
 -1773 3454 -1773 3454 -1777.5 3510.5 c 128,-1,58
 -1782 3567 -1782 3567 -1755 3570 c 1,59,60
 -1718 3581 -1718 3581 -1566 3602.5 c 128,-1,61
 -1414 3624 -1414 3624 -1302 3640 c 1,62,63
 -1303 3652 -1303 3652 -1306.5 3668 c 128,-1,64
 -1310 3684 -1310 3684 -1316 3713 c 1,65,66
 -1316 3740 -1316 3740 -1288.5 3740 c 128,-1,67
 -1261 3740 -1261 3740 -1259 3721 c 0,68,69
 -1256 3696 -1256 3696 -1253 3678.5 c 128,-1,70
 -1250 3661 -1250 3661 -1248 3647 c 1,71,72
 -1227 3649 -1227 3649 -1204.5 3652.5 c 128,-1,73
 -1182 3656 -1182 3656 -1164 3659 c 1,74,75
 -1143 3661 -1143 3661 -1141 3632 c 128,-1,76
 -1139 3603 -1139 3603 -1158 3602 c 1,77,78
 -1169 3599 -1169 3599 -1192.5 3597.5 c 128,-1,79
 -1216 3596 -1216 3596 -1240 3593 c 1,80,81
 -1237 3578 -1237 3578 -1233.5 3560 c 128,-1,82
 -1230 3542 -1230 3542 -1226 3518 c 1,0,1
18 1970 m 0,83,84
 20 1970 20 1970 20 1967 c 0,85,86
 20 1965 20 1965 18 1965 c 0,87,88
 15 1965 15 1965 15 1967 c 0,89,90
 15 1970 15 1970 18 1970 c 0,83,84
EndSplineSet
EndChar

StartChar: m
Encoding: 109 109 77
Width: 0
Flags: W
LayerCount: 2
Fore
SplineSet
18 1970 m 0,0,1
 20 1970 20 1970 20 1967 c 0,2,3
 20 1965 20 1965 18 1965 c 0,4,5
 15 1965 15 1965 15 1967 c 0,6,7
 15 1970 15 1970 18 1970 c 0,0,1
-1386 899 m 1,8,9
 -1457 841 -1457 841 -1549.5 845 c 128,-1,10
 -1642 849 -1642 849 -1709 916 c 0,11,12
 -1775 982 -1775 982 -1779 1074.5 c 128,-1,13
 -1783 1167 -1783 1167 -1725 1239 c 1,14,-1
 -1905 1418 l 2,15,16
 -1924 1437 -1924 1437 -1906 1456.5 c 128,-1,17
 -1888 1476 -1888 1476 -1868 1455 c 2,18,-1
 -1690 1273 l 1,19,20
 -1619 1331 -1619 1331 -1526.5 1327 c 128,-1,21
 -1434 1323 -1434 1323 -1368 1257 c 0,22,23
 -1302 1190 -1302 1190 -1297.5 1097.5 c 128,-1,24
 -1293 1005 -1293 1005 -1351 934 c 1,25,-1
 -1181 766 l 2,26,27
 -1158 744 -1158 744 -1177 725.5 c 128,-1,28
 -1196 707 -1196 707 -1218 728 c 2,29,-1
 -1386 899 l 1,8,9
-1672 1220 m 256,30,31
 -1728 1165 -1728 1165 -1728 1086.5 c 128,-1,32
 -1728 1008 -1728 1008 -1672 952 c 0,33,34
 -1616 897 -1616 897 -1537.5 897 c 128,-1,35
 -1459 897 -1459 897 -1404 952 c 0,36,37
 -1349 1008 -1349 1008 -1349 1086.5 c 128,-1,38
 -1349 1165 -1349 1165 -1404 1220 c 256,39,40
 -1459 1275 -1459 1275 -1537.5 1275 c 128,-1,41
 -1616 1275 -1616 1275 -1672 1220 c 256,30,31
EndSplineSet
EndChar

StartChar: n
Encoding: 110 110 78
Width: 0
Flags: W
LayerCount: 2
Fore
SplineSet
-432 1970 m 0,0,1
 -430 1970 -430 1970 -430 1967 c 0,2,3
 -430 1965 -430 1965 -432 1965 c 0,4,5
 -435 1965 -435 1965 -435 1967 c 0,6,7
 -435 1970 -435 1970 -432 1970 c 0,0,1
-956 1105 m 1,8,-1
 -751 1310 l 1,9,-1
 -728 1337 l 1,10,11
 -707 1358 -707 1358 -686.5 1337.5 c 128,-1,12
 -666 1317 -666 1317 -688 1294 c 1,13,-1
 -746 1239 l 1,14,-1
 -921 1069 l 1,15,16
 -873 1005 -873 1005 -873 926 c 0,17,18
 -873 830 -873 830 -941.5 762 c 128,-1,19
 -1010 694 -1010 694 -1105 694 c 0,20,21
 -1201 694 -1201 694 -1269.5 762 c 128,-1,22
 -1338 830 -1338 830 -1338 926 c 0,23,24
 -1338 1021 -1338 1021 -1269.5 1090 c 128,-1,25
 -1201 1159 -1201 1159 -1105 1159 c 0,26,27
 -1021 1159 -1021 1159 -956 1105 c 1,8,-1
-1105 744 m 0,28,29
 -1029 744 -1029 744 -976 797 c 128,-1,30
 -923 850 -923 850 -923 926 c 0,31,32
 -923 1001 -923 1001 -976 1054.5 c 128,-1,33
 -1029 1108 -1029 1108 -1105 1108 c 0,34,35
 -1180 1108 -1180 1108 -1233.5 1054.5 c 128,-1,36
 -1287 1001 -1287 1001 -1287 926 c 0,37,38
 -1287 850 -1287 850 -1233.5 797 c 128,-1,39
 -1180 744 -1180 744 -1105 744 c 0,28,29
EndSplineSet
EndChar

StartChar: o
Encoding: 111 111 79
Width: 0
Flags: W
LayerCount: 2
Fore
SplineSet
26 1970 m 0,0,1
 28 1970 28 1970 28 1967 c 0,2,3
 28 1965 28 1965 26 1965 c 0,4,5
 23 1965 23 1965 23 1967 c 0,6,7
 23 1970 23 1970 26 1970 c 0,0,1
-1529 1033 m 1,8,-1
 -1677 841 l 1,9,10
 -1701 807 -1701 807 -1734.5 787 c 128,-1,11
 -1768 767 -1768 767 -1790 756 c 1,12,13
 -1814 742 -1814 742 -1862.5 745 c 128,-1,14
 -1911 748 -1911 748 -1938 761 c 1,15,16
 -2002 788 -2002 788 -2032 843 c 128,-1,17
 -2062 898 -2062 898 -2022 954 c 0,18,19
 -1972 1022 -1972 1022 -1897 969 c 1,20,21
 -1873 954 -1873 954 -1871.5 914 c 128,-1,22
 -1870 874 -1870 874 -1895 852 c 0,23,24
 -1936 815 -1936 815 -1914 801 c 0,25,26
 -1883 780 -1883 780 -1821 799 c 128,-1,27
 -1759 818 -1759 818 -1727 861 c 2,28,-1
 -1572 1064 l 1,29,30
 -1655 1136 -1655 1136 -1655 1243 c 0,31,32
 -1655 1341 -1655 1341 -1584.5 1411.5 c 128,-1,33
 -1514 1482 -1514 1482 -1416 1482 c 0,34,35
 -1317 1482 -1317 1482 -1247 1411.5 c 128,-1,36
 -1177 1341 -1177 1341 -1177 1243 c 256,37,38
 -1177 1145 -1177 1145 -1247 1075 c 128,-1,39
 -1317 1005 -1317 1005 -1416 1005 c 0,40,41
 -1477 1005 -1477 1005 -1529 1033 c 1,8,-1
-1416 1431 m 0,42,43
 -1492 1431 -1492 1431 -1547.5 1375.5 c 128,-1,44
 -1603 1320 -1603 1320 -1603 1243 c 256,45,46
 -1603 1166 -1603 1166 -1547.5 1111.5 c 128,-1,47
 -1492 1057 -1492 1057 -1416 1057 c 0,48,49
 -1338 1057 -1338 1057 -1283.5 1111.5 c 128,-1,50
 -1229 1166 -1229 1166 -1229 1243 c 256,51,52
 -1229 1320 -1229 1320 -1283.5 1375.5 c 128,-1,53
 -1338 1431 -1338 1431 -1416 1431 c 0,42,43
EndSplineSet
EndChar

StartChar: p
Encoding: 112 112 80
Width: 0
Flags: W
LayerCount: 2
Fore
SplineSet
26 1970 m 0,0,1
 28 1970 28 1970 28 1967 c 0,2,3
 28 1965 28 1965 26 1965 c 0,4,5
 23 1965 23 1965 23 1967 c 0,6,7
 23 1970 23 1970 26 1970 c 0,0,1
-1172 1252 m 1,8,-1
 -1029 1447 l 1,9,-1
 -1010 1477 l 1,10,11
 -991 1503 -991 1503 -966.5 1484.5 c 128,-1,12
 -942 1466 -942 1466 -961 1438 c 1,13,-1
 -1013 1372 l 1,14,-1
 -1130 1217 l 1,15,16
 -1061 1145 -1061 1145 -1061 1047 c 0,17,18
 -1061 945 -1061 945 -1133.5 873 c 128,-1,19
 -1206 801 -1206 801 -1307 801 c 0,20,21
 -1370 801 -1370 801 -1423 830 c 1,22,-1
 -1576 631 l 2,23,24
 -1602 596 -1602 596 -1636 575.5 c 128,-1,25
 -1670 555 -1670 555 -1694 544 c 1,26,27
 -1719 529 -1719 529 -1768.5 532 c 128,-1,28
 -1818 535 -1818 535 -1847 547 c 0,29,30
 -1912 575 -1912 575 -1942.5 632.5 c 128,-1,31
 -1973 690 -1973 690 -1932 748 c 0,32,33
 -1882 818 -1882 818 -1804 764 c 0,34,35
 -1779 746 -1779 746 -1777.5 705.5 c 128,-1,36
 -1776 665 -1776 665 -1801 643 c 0,37,38
 -1843 605 -1843 605 -1821 590 c 0,39,40
 -1789 568 -1789 568 -1725 587.5 c 128,-1,41
 -1661 607 -1661 607 -1629 652 c 1,42,-1
 -1468 861 l 1,43,44
 -1553 935 -1553 935 -1553 1047 c 0,45,46
 -1553 1148 -1553 1148 -1480.5 1220.5 c 128,-1,47
 -1408 1293 -1408 1293 -1307 1293 c 0,48,49
 -1233 1293 -1233 1293 -1172 1252 c 1,8,-1
-1307 1240 m 256,50,51
 -1387 1240 -1387 1240 -1443.5 1183 c 128,-1,52
 -1500 1126 -1500 1126 -1500 1047 c 0,53,54
 -1500 967 -1500 967 -1443.5 910.5 c 128,-1,55
 -1387 854 -1387 854 -1307 854 c 256,56,57
 -1227 854 -1227 854 -1170.5 910.5 c 128,-1,58
 -1114 967 -1114 967 -1114 1047 c 0,59,60
 -1114 1126 -1114 1126 -1170.5 1183 c 128,-1,61
 -1227 1240 -1227 1240 -1307 1240 c 256,50,51
EndSplineSet
EndChar

StartChar: q
Encoding: 113 113 81
Width: 0
Flags: W
LayerCount: 2
Fore
SplineSet
18 1970 m 0,0,1
 20 1970 20 1970 20 1967 c 0,2,3
 20 1965 20 1965 18 1965 c 0,4,5
 15 1965 15 1965 15 1967 c 0,6,7
 15 1970 15 1970 18 1970 c 0,0,1
-1310 1138 m 1,8,-1
 -1738 1237 l 1,9,10
 -1740 1229 -1740 1229 -1740 1214 c 0,11,12
 -1740 1123 -1740 1123 -1674.5 1058 c 128,-1,13
 -1609 993 -1609 993 -1518 993 c 0,14,15
 -1446 993 -1446 993 -1389.5 1034 c 128,-1,16
 -1333 1075 -1333 1075 -1310 1138 c 1,8,-1
-1298 1192 m 1,17,18
 -1297 1196 -1297 1196 -1297 1214 c 0,19,20
 -1297 1305 -1297 1305 -1361.5 1370 c 128,-1,21
 -1426 1435 -1426 1435 -1518 1435 c 0,22,23
 -1589 1435 -1589 1435 -1645 1394 c 128,-1,24
 -1701 1353 -1701 1353 -1726 1290 c 1,25,-1
 -1298 1192 l 1,17,18
-1245 1179 m 1,26,-1
 -946 1112 l 2,27,28
 -860 1093 -860 1093 -843.5 1152.5 c 128,-1,29
 -827 1212 -827 1212 -944 1237 c 1,30,31
 -987 1245 -987 1245 -970.5 1321 c 128,-1,32
 -954 1397 -954 1397 -865 1374 c 0,33,34
 -777 1352 -777 1352 -759.5 1275.5 c 128,-1,35
 -742 1199 -742 1199 -763 1153 c 1,36,37
 -774 1126 -774 1126 -820.5 1081.5 c 128,-1,38
 -867 1037 -867 1037 -959 1058 c 2,39,-1
 -1257 1126 l 1,40,41
 -1284 1044 -1284 1044 -1355 990.5 c 128,-1,42
 -1426 937 -1426 937 -1518 937 c 0,43,44
 -1632 937 -1632 937 -1714 1018.5 c 128,-1,45
 -1796 1100 -1796 1100 -1796 1214 c 0,46,47
 -1796 1226 -1796 1226 -1792 1249 c 1,48,-1
 -2085 1317 l 1,49,50
 -2174 1336 -2174 1336 -2189.5 1276 c 128,-1,51
 -2205 1216 -2205 1216 -2088 1192 c 0,52,53
 -2045 1183 -2045 1183 -2061.5 1107.5 c 128,-1,54
 -2078 1032 -2078 1032 -2167 1054 c 0,55,56
 -2253 1075 -2253 1075 -2271 1152 c 128,-1,57
 -2289 1229 -2289 1229 -2269 1276 c 0,58,59
 -2258 1302 -2258 1302 -2213 1347 c 128,-1,60
 -2168 1392 -2168 1392 -2072 1371 c 1,61,-1
 -1780 1303 l 1,62,63
 -1751 1385 -1751 1385 -1679.5 1438 c 128,-1,64
 -1608 1491 -1608 1491 -1518 1491 c 0,65,66
 -1403 1491 -1403 1491 -1322 1409.5 c 128,-1,67
 -1241 1328 -1241 1328 -1241 1214 c 0,68,69
 -1241 1195 -1241 1195 -1245 1179 c 1,26,-1
EndSplineSet
EndChar

StartChar: r
Encoding: 114 114 82
Width: 0
Flags: W
LayerCount: 2
Fore
SplineSet
19 1970 m 0,0,1
 21 1970 21 1970 21 1967 c 0,2,3
 21 1965 21 1965 19 1965 c 0,4,5
 16 1965 16 1965 16 1967 c 0,6,7
 16 1970 16 1970 19 1970 c 0,0,1
-1715 909 m 1,8,-1
 -1883 738 l 2,9,10
 -1903 717 -1903 717 -1922.5 735.5 c 128,-1,11
 -1942 754 -1942 754 -1920 776 c 2,12,-1
 -1750 944 l 1,13,14
 -1807 1015 -1807 1015 -1803 1107.5 c 128,-1,15
 -1799 1200 -1799 1200 -1733 1267 c 1,16,17
 -1666 1333 -1666 1333 -1574 1337 c 128,-1,18
 -1482 1341 -1482 1341 -1410 1283 c 1,19,-1
 -1233 1465 l 2,20,21
 -1212 1486 -1212 1486 -1194 1466.5 c 128,-1,22
 -1176 1447 -1176 1447 -1196 1428 c 2,23,-1
 -1376 1249 l 1,24,25
 -1318 1177 -1318 1177 -1322 1084.5 c 128,-1,26
 -1326 992 -1326 992 -1393 926 c 1,27,28
 -1458 859 -1458 859 -1550.5 855 c 128,-1,29
 -1643 851 -1643 851 -1715 909 c 1,8,-1
-1429 1230 m 0,30,31
 -1484 1285 -1484 1285 -1562 1285 c 128,-1,32
 -1640 1285 -1640 1285 -1697 1230 c 1,33,34
 -1751 1175 -1751 1175 -1751 1096.5 c 128,-1,35
 -1751 1018 -1751 1018 -1697 962 c 1,36,37
 -1640 907 -1640 907 -1562 907 c 128,-1,38
 -1484 907 -1484 907 -1429 962 c 0,39,40
 -1373 1018 -1373 1018 -1373 1096.5 c 128,-1,41
 -1373 1175 -1373 1175 -1429 1230 c 0,30,31
EndSplineSet
EndChar

StartChar: s
Encoding: 115 115 83
Width: 1525
Flags: W
LayerCount: 2
Fore
SplineSet
1410 968 m 1,0,1
 1358 893 1358 893 1304.5 818.5 c 128,-1,2
 1251 744 1251 744 1203 668 c 1,3,4
 1206 580 1206 580 1241 522 c 1,5,6
 1284 460 1284 460 1316 456 c 128,-1,7
 1348 452 1348 452 1397 535 c 1,8,9
 1425 567 1425 567 1453 555.5 c 128,-1,10
 1481 544 1481 544 1487 525 c 0,11,12
 1500 483 1500 483 1487 452 c 128,-1,13
 1474 421 1474 421 1464 408 c 0,14,15
 1453 394 1453 394 1425.5 378 c 128,-1,16
 1398 362 1398 362 1368 365 c 1,17,18
 1329 367 1329 367 1307 378 c 0,19,20
 1287 388 1287 388 1262 422 c 1,21,22
 1239 450 1239 450 1227 470.5 c 128,-1,23
 1215 491 1215 491 1209 504 c 0,24,25
 1202 517 1202 517 1192.5 549.5 c 128,-1,26
 1183 582 1183 582 1178 630 c 1,27,-1
 1015 391 l 1,28,-1
 894 391 l 1,29,30
 933 449 933 449 970 496.5 c 128,-1,31
 1007 544 1007 544 1053 622 c 0,32,33
 1065 642 1065 642 1064.5 721.5 c 128,-1,34
 1064 801 1064 801 1057 826 c 0,35,36
 1041 877 1041 877 1007 877 c 0,37,38
 987 877 987 877 972.5 865 c 128,-1,39
 958 853 958 853 927 858 c 0,40,41
 907 861 907 861 897 890.5 c 128,-1,42
 887 920 887 920 905 950 c 0,43,44
 926 986 926 986 987 986 c 0,45,46
 1023 986 1023 986 1053 957 c 1,47,48
 1085 924 1085 924 1090 876 c 1,49,50
 1097 827 1097 827 1100.5 783.5 c 128,-1,51
 1104 740 1104 740 1095 685 c 1,52,-1
 1289 968 l 1,53,-1
 1410 968 l 1,0,1
EndSplineSet
EndChar

StartChar: t
Encoding: 116 116 84
Width: 0
Flags: W
LayerCount: 2
Fore
SplineSet
-1481 2709 m 1,0,-1
 -1505 2685 l 1,1,-1
 -1527 2658 l 1,2,3
 -1548 2636 -1548 2636 -1569 2657.5 c 128,-1,4
 -1590 2679 -1590 2679 -1568 2702 c 1,5,-1
 -1519 2748 l 1,6,-1
 -1616 2847 l 2,7,8
 -1636 2866 -1636 2866 -1614.5 2884.5 c 128,-1,9
 -1593 2903 -1593 2903 -1577 2885 c 1,10,-1
 -1481 2787 l 1,11,-1
 -1430 2835 l 1,12,-1
 -1528 2936 l 1,13,14
 -1548 2955 -1548 2955 -1526.5 2973 c 128,-1,15
 -1505 2991 -1505 2991 -1488 2973 c 2,16,-1
 -1390 2874 l 1,17,-1
 -1330 2933 l 1,18,19
 -1380 2996 -1380 2996 -1380 3078 c 0,20,21
 -1380 3176 -1380 3176 -1309.5 3246 c 128,-1,22
 -1239 3316 -1239 3316 -1141 3316 c 256,23,24
 -1043 3316 -1043 3316 -973 3246 c 128,-1,25
 -903 3176 -903 3176 -903 3078 c 0,26,27
 -903 2979 -903 2979 -973 2909.5 c 128,-1,28
 -1043 2840 -1043 2840 -1141 2840 c 0,29,30
 -1228 2840 -1228 2840 -1294 2896 c 1,31,-1
 -1354 2836 l 1,32,-1
 -1253 2733 l 2,33,34
 -1233 2712 -1233 2712 -1254.5 2694.5 c 128,-1,35
 -1276 2677 -1276 2677 -1293 2694 c 2,36,-1
 -1393 2797 l 1,37,-1
 -1442 2747 l 1,38,-1
 -1342 2644 l 2,39,40
 -1321 2623 -1321 2623 -1342.5 2605.5 c 128,-1,41
 -1364 2588 -1364 2588 -1381 2607 c 1,42,-1
 -1481 2709 l 1,0,-1
-1141 3264 m 256,43,44
 -1218 3264 -1218 3264 -1273.5 3209 c 128,-1,45
 -1329 3154 -1329 3154 -1329 3078 c 0,46,47
 -1329 3000 -1329 3000 -1273.5 2945.5 c 128,-1,48
 -1218 2891 -1218 2891 -1141 2891 c 256,49,50
 -1064 2891 -1064 2891 -1009.5 2945.5 c 128,-1,51
 -955 3000 -955 3000 -955 3078 c 0,52,53
 -955 3154 -955 3154 -1009.5 3209 c 128,-1,54
 -1064 3264 -1064 3264 -1141 3264 c 256,43,44
19 1970 m 0,55,56
 21 1970 21 1970 21 1967 c 0,57,58
 21 1965 21 1965 19 1965 c 0,59,60
 16 1965 16 1965 16 1967 c 0,61,62
 16 1970 16 1970 19 1970 c 0,55,56
EndSplineSet
EndChar

StartChar: u
Encoding: 117 117 85
Width: 0
Flags: W
LayerCount: 2
Fore
SplineSet
8 1970 m 0,0,1
 10 1970 10 1970 10 1967 c 0,2,3
 10 1965 10 1965 8 1965 c 0,4,5
 5 1965 5 1965 5 1967 c 0,6,7
 5 1970 5 1970 8 1970 c 0,0,1
-1620 848 m 1,8,-1
 -1766 846 l 2,9,10
 -1790 846 -1790 846 -1793 874 c 128,-1,11
 -1796 902 -1796 902 -1766 903 c 2,12,-1
 -1620 905 l 1,13,-1
 -1620 1049 l 1,14,15
 -1709 1057 -1709 1057 -1769 1119 c 1,16,17
 -1840 1190 -1840 1190 -1840 1290.5 c 128,-1,18
 -1840 1391 -1840 1391 -1769 1462 c 0,19,20
 -1698 1532 -1698 1532 -1597.5 1532 c 128,-1,21
 -1497 1532 -1497 1532 -1427 1462 c 0,22,23
 -1355 1391 -1355 1391 -1355 1290.5 c 128,-1,24
 -1355 1190 -1355 1190 -1427 1119 c 1,25,26
 -1486 1059 -1486 1059 -1567 1050 c 1,27,-1
 -1565 906 l 1,28,-1
 -1424 907 l 2,29,30
 -1398 907 -1398 907 -1396 878.5 c 128,-1,31
 -1394 850 -1394 850 -1422 851 c 1,32,-1
 -1565 849 l 1,33,-1
 -1564 795 l 1,34,-1
 -1561 712 l 1,35,36
 -1562 678 -1562 678 -1592.5 678 c 128,-1,37
 -1623 678 -1623 678 -1623 710 c 1,38,-1
 -1620 746 l 1,39,-1
 -1620 848 l 1,8,-1
-1463 1424 m 0,40,41
 -1519 1480 -1519 1480 -1597.5 1480 c 128,-1,42
 -1676 1480 -1676 1480 -1732 1424 c 0,43,44
 -1788 1369 -1788 1369 -1788 1290 c 128,-1,45
 -1788 1211 -1788 1211 -1732 1157 c 1,46,47
 -1676 1100 -1676 1100 -1597.5 1100 c 128,-1,48
 -1519 1100 -1519 1100 -1463 1157 c 1,49,50
 -1407 1211 -1407 1211 -1407 1290 c 128,-1,51
 -1407 1369 -1407 1369 -1463 1424 c 0,40,41
EndSplineSet
EndChar

StartChar: v
Encoding: 118 118 86
Width: 0
Flags: W
LayerCount: 2
Fore
SplineSet
-1607 913 m 1,0,1
 -1698 921 -1698 921 -1760.5 990 c 128,-1,2
 -1823 1059 -1823 1059 -1823 1152 c 0,3,4
 -1823 1251 -1823 1251 -1752.5 1321.5 c 128,-1,5
 -1682 1392 -1682 1392 -1583 1392 c 0,6,7
 -1483 1392 -1483 1392 -1413 1321.5 c 128,-1,8
 -1343 1251 -1343 1251 -1343 1152 c 0,9,10
 -1343 1059 -1343 1059 -1405 990.5 c 128,-1,11
 -1467 922 -1467 922 -1558 913 c 1,12,-1
 -1557 623 l 2,13,14
 -1557 594 -1557 594 -1583 595 c 128,-1,15
 -1609 596 -1609 596 -1609 623 c 2,16,-1
 -1607 913 l 1,0,1
-1583 964 m 256,17,18
 -1505 964 -1505 964 -1450 1019 c 128,-1,19
 -1395 1074 -1395 1074 -1395 1152 c 256,20,21
 -1395 1230 -1395 1230 -1450 1285.5 c 128,-1,22
 -1505 1341 -1505 1341 -1583 1341 c 256,23,24
 -1661 1341 -1661 1341 -1716.5 1285.5 c 128,-1,25
 -1772 1230 -1772 1230 -1772 1152 c 256,26,27
 -1772 1074 -1772 1074 -1716.5 1019 c 128,-1,28
 -1661 964 -1661 964 -1583 964 c 256,17,18
8 1970 m 0,29,30
 10 1970 10 1970 10 1967 c 0,31,32
 10 1965 10 1965 8 1965 c 0,33,34
 5 1965 5 1965 5 1967 c 0,35,36
 5 1970 5 1970 8 1970 c 0,29,30
EndSplineSet
EndChar

StartChar: w
Encoding: 119 119 87
Width: 0
Flags: W
LayerCount: 2
Fore
SplineSet
8 1970 m 0,0,1
 10 1970 10 1970 10 1967 c 0,2,3
 10 1965 10 1965 8 1965 c 0,4,5
 5 1965 5 1965 5 1967 c 0,6,7
 5 1970 5 1970 8 1970 c 0,0,1
-1396 1180 m 1,8,9
 -1250 1180 -1250 1180 -1179.5 1173.5 c 128,-1,10
 -1109 1167 -1109 1167 -1033 1159 c 0,11,12
 -949 1151 -949 1151 -877 1121 c 1,13,14
 -798 1086 -798 1086 -782 1010 c 0,15,16
 -766 932 -766 932 -797.5 871 c 128,-1,17
 -829 810 -829 810 -909 813 c 1,18,19
 -1000 814 -1000 814 -1003 917 c 1,20,21
 -1003 952 -1003 952 -969.5 978 c 128,-1,22
 -936 1004 -936 1004 -897 995 c 0,23,24
 -854 984 -854 984 -844 989.5 c 128,-1,25
 -834 995 -834 995 -834 1012 c 0,26,27
 -834 1056 -834 1056 -890.5 1084 c 128,-1,28
 -947 1112 -947 1112 -1011 1120 c 1,29,30
 -1145 1133 -1145 1133 -1211.5 1135 c 128,-1,31
 -1278 1137 -1278 1137 -1395 1137 c 1,32,33
 -1402 1026 -1402 1026 -1483.5 951 c 128,-1,34
 -1565 876 -1565 876 -1677 876 c 0,35,36
 -1788 876 -1788 876 -1868.5 951 c 128,-1,37
 -1949 1026 -1949 1026 -1957 1136 c 1,38,39
 -2133 1139 -2133 1139 -2235.5 1133 c 128,-1,40
 -2338 1127 -2338 1127 -2465 1127 c 0,41,42
 -2473 1127 -2473 1127 -2486.5 1129.5 c 128,-1,43
 -2500 1132 -2500 1132 -2500 1138 c 2,44,-1
 -2500 1162 l 2,45,46
 -2500 1167 -2500 1167 -2486 1170 c 128,-1,47
 -2472 1173 -2472 1173 -2465 1173 c 0,48,49
 -2338 1173 -2338 1173 -2211 1176.5 c 128,-1,50
 -2084 1180 -2084 1180 -1958 1180 c 1,51,52
 -1949 1288 -1949 1288 -1868.5 1364 c 128,-1,53
 -1788 1440 -1788 1440 -1677 1440 c 256,54,55
 -1566 1440 -1566 1440 -1485 1364 c 128,-1,56
 -1404 1288 -1404 1288 -1396 1180 c 1,8,9
-1901 1179 m 1,57,-1
 -1452 1179 l 1,58,59
 -1460 1264 -1460 1264 -1524 1323.5 c 128,-1,60
 -1588 1383 -1588 1383 -1677 1383 c 0,61,62
 -1764 1383 -1764 1383 -1828.5 1324 c 128,-1,63
 -1893 1265 -1893 1265 -1901 1179 c 1,57,-1
-1902 1136 m 1,64,65
 -1895 1047 -1895 1047 -1830.5 989.5 c 128,-1,66
 -1766 932 -1766 932 -1677 932 c 256,67,68
 -1588 932 -1588 932 -1524 991 c 128,-1,69
 -1460 1050 -1460 1050 -1453 1136 c 1,70,-1
 -1902 1136 l 1,64,65
EndSplineSet
EndChar

StartChar: x
Encoding: 120 120 88
Width: 261
Flags: W
LayerCount: 2
Fore
SplineSet
-1215 1832 m 0,0,1
 -1188 1901 -1188 1901 -1064 1881 c 0,2,3
 -1037 1876 -1037 1876 -1032 1822.5 c 128,-1,4
 -1027 1769 -1027 1769 -1069 1710 c 0,5,6
 -1101 1666 -1101 1666 -1096.5 1619.5 c 128,-1,7
 -1092 1573 -1092 1573 -995 1564 c 1,8,9
 -639 1562 -639 1562 -367 1583.5 c 128,-1,10
 -95 1605 -95 1605 66 1605 c 0,11,12
 150 1605 150 1605 199.5 1529 c 128,-1,13
 249 1453 249 1453 240 1369 c 0,14,15
 224 1226 224 1226 112 1238 c 0,16,17
 85 1240 85 1240 60 1275 c 128,-1,18
 35 1310 35 1310 57 1359 c 0,19,20
 78 1408 78 1408 108 1410.5 c 128,-1,21
 138 1413 138 1413 150 1460 c 0,22,23
 170 1539 170 1539 71 1534 c 0,24,25
 -230 1518 -230 1518 -429 1478.5 c 128,-1,26
 -628 1439 -628 1439 -936 1487 c 0,27,28
 -1017 1500 -1017 1500 -1102 1543.5 c 128,-1,29
 -1187 1587 -1187 1587 -1217 1682 c 1,30,31
 -1241 1765 -1241 1765 -1215 1832 c 0,0,1
EndSplineSet
EndChar

StartChar: y
Encoding: 121 121 89
Width: 0
Flags: W
LayerCount: 2
Fore
SplineSet
-371 2735 m 1,0,-1
 -395 2712 l 1,1,-1
 -418 2684 l 1,2,3
 -440 2661 -440 2661 -460.5 2683 c 128,-1,4
 -481 2705 -481 2705 -459 2729 c 1,5,-1
 -410 2776 l 1,6,-1
 -507 2876 l 1,7,8
 -528 2894 -528 2894 -506 2913 c 128,-1,9
 -484 2932 -484 2932 -467 2914 c 2,10,-1
 -370 2814 l 1,11,-1
 -319 2864 l 1,12,-1
 -418 2965 l 1,13,14
 -439 2984 -439 2984 -417 3003 c 128,-1,15
 -395 3022 -395 3022 -378 3004 c 2,16,-1
 -279 2902 l 1,17,-1
 -218 2963 l 1,18,19
 -269 3028 -269 3028 -269 3110 c 0,20,21
 -269 3208 -269 3208 -197.5 3279 c 128,-1,22
 -126 3350 -126 3350 -27 3350 c 0,23,24
 71 3350 71 3350 141.5 3279 c 128,-1,25
 212 3208 212 3208 212 3110 c 0,26,27
 212 3010 212 3010 141.5 2939 c 128,-1,28
 71 2868 71 2868 -27 2868 c 0,29,30
 -114 2868 -114 2868 -181 2925 c 1,31,-1
 -242 2864 l 1,32,-1
 -140 2760 l 1,33,34
 -120 2738 -120 2738 -142 2720.5 c 128,-1,35
 -164 2703 -164 2703 -181 2722 c 1,36,-1
 -281 2825 l 1,37,-1
 -332 2775 l 1,38,-1
 -230 2670 l 2,39,40
 -209 2649 -209 2649 -231 2631 c 128,-1,41
 -253 2613 -253 2613 -270 2632 c 1,42,-1
 -371 2735 l 1,0,-1
-27 3298 m 0,43,44
 -105 3298 -105 3298 -160.5 3242.5 c 128,-1,45
 -216 3187 -216 3187 -216 3110 c 0,46,47
 -216 3031 -216 3031 -160.5 2976 c 128,-1,48
 -105 2921 -105 2921 -27 2921 c 0,49,50
 50 2921 50 2921 105 2976 c 128,-1,51
 160 3031 160 3031 160 3110 c 0,52,53
 160 3187 160 3187 105 3242.5 c 128,-1,54
 50 3298 50 3298 -27 3298 c 0,43,44
EndSplineSet
EndChar

StartChar: z
Encoding: 122 122 90
Width: 1418
Flags: W
LayerCount: 2
Fore
SplineSet
738 937 m 1,0,1
 1020 938 1020 938 1113.5 959 c 128,-1,2
 1207 980 1207 980 1207 980 c 1,3,-1
 1200 1032 l 1,4,5
 1185 1135 1185 1135 1291 1131 c 0,6,7
 1351 1129 1351 1129 1350.5 1044.5 c 128,-1,8
 1350 960 1350 960 1265 937 c 0,9,10
 1166 910 1166 910 1123.5 906.5 c 128,-1,11
 1081 903 1081 903 881 887 c 1,12,-1
 881 400 l 1,13,-1
 738 400 l 1,14,-1
 738 937 l 1,0,1
EndSplineSet
EndChar

StartChar: braceleft
Encoding: 123 123 91
Width: 0
Flags: W
LayerCount: 2
Fore
SplineSet
8 1970 m 0,0,1
 10 1970 10 1970 10 1967 c 0,2,3
 10 1965 10 1965 8 1965 c 0,4,5
 5 1965 5 1965 5 1967 c 0,6,7
 5 1970 5 1970 8 1970 c 0,0,1
-565 1271 m 1,8,-1
 -565 1375 l 1,9,-1
 -568 1411 l 1,10,11
 -568 1442 -568 1442 -537.5 1441.5 c 128,-1,12
 -507 1441 -507 1441 -506 1408 c 1,13,-1
 -508 1325 l 1,14,-1
 -509 1270 l 1,15,-1
 -366 1269 l 1,16,17
 -339 1270 -339 1270 -341 1241 c 128,-1,18
 -343 1212 -343 1212 -368 1213 c 2,19,-1
 -509 1215 l 1,20,-1
 -512 1069 l 1,21,22
 -429 1058 -429 1058 -371 1000 c 0,23,24
 -299 929 -299 929 -299 828 c 128,-1,25
 -299 727 -299 727 -371 657 c 1,26,27
 -441 585 -441 585 -542 585 c 128,-1,28
 -643 585 -643 585 -714 657 c 1,29,30
 -785 727 -785 727 -785 828 c 128,-1,31
 -785 929 -785 929 -714 1000 c 0,32,33
 -652 1063 -652 1063 -565 1070 c 1,34,-1
 -565 1216 l 1,35,-1
 -711 1217 l 2,36,37
 -741 1217 -741 1217 -738 1245 c 128,-1,38
 -735 1273 -735 1273 -710 1273 c 2,39,-1
 -565 1271 l 1,8,-1
-408 694 m 1,40,41
 -352 749 -352 749 -352 828 c 128,-1,42
 -352 907 -352 907 -408 963 c 0,43,44
 -463 1019 -463 1019 -542.5 1019 c 128,-1,45
 -622 1019 -622 1019 -677 963 c 0,46,47
 -733 907 -733 907 -733 828 c 128,-1,48
 -733 749 -733 749 -677 694 c 1,49,50
 -622 637 -622 637 -542.5 637 c 128,-1,51
 -463 637 -463 637 -408 694 c 1,40,41
EndSplineSet
EndChar

StartChar: bar
Encoding: 124 124 92
Width: 0
Flags: W
LayerCount: 2
Fore
SplineSet
-576 597 m 1,0,-1
 -781 392 l 1,1,-1
 -804 365 l 1,2,3
 -826 342 -826 342 -847.5 364 c 128,-1,4
 -869 386 -869 386 -846 410 c 1,5,-1
 -785 468 l 1,6,-1
 -613 635 l 1,7,8
 -664 699 -664 699 -664 783 c 0,9,10
 -664 883 -664 883 -592.5 954 c 128,-1,11
 -521 1025 -521 1025 -421 1025 c 0,12,13
 -334 1025 -334 1025 -266 969 c 1,14,-1
 -164 1071 l 1,15,-1
 -266 1177 l 1,16,17
 -287 1197 -287 1197 -265 1215 c 128,-1,18
 -243 1233 -243 1233 -226 1215 c 2,19,-1
 -125 1110 l 1,20,-1
 -53 1184 l 1,21,-1
 -29 1211 l 1,22,23
 -7 1233 -7 1233 14 1211.5 c 128,-1,24
 35 1190 35 1190 12 1166 c 1,25,-1
 -48 1108 l 1,26,-1
 -86 1071 l 1,27,-1
 12 969 l 1,28,29
 33 950 33 950 11 931 c 128,-1,30
 -11 912 -11 912 -29 931 c 2,31,-1
 -126 1032 l 1,32,-1
 -230 931 l 1,33,34
 -179 865 -179 865 -179 783 c 0,35,36
 -179 683 -179 683 -250 611.5 c 128,-1,37
 -321 540 -321 540 -421 540 c 0,38,39
 -509 540 -509 540 -576 597 c 1,0,-1
-421 593 m 256,40,41
 -343 593 -343 593 -287 648.5 c 128,-1,42
 -231 704 -231 704 -231 783 c 0,43,44
 -231 861 -231 861 -287 917 c 128,-1,45
 -343 973 -343 973 -421 973 c 256,46,47
 -499 973 -499 973 -555 917 c 128,-1,48
 -611 861 -611 861 -611 783 c 0,49,50
 -611 704 -611 704 -555 648.5 c 128,-1,51
 -499 593 -499 593 -421 593 c 256,40,41
EndSplineSet
EndChar

StartChar: braceright
Encoding: 125 125 93
Width: 0
Flags: W
LayerCount: 2
Fore
SplineSet
-1692 2839 m 1,0,1
 -1549 2839 -1549 2839 -1479.5 2839 c 128,-1,2
 -1410 2839 -1410 2839 -1348.5 2837.5 c 128,-1,3
 -1287 2836 -1287 2836 -1357 2752 c 2,4,-1
 -1441 2652 l 1,5,6
 -1485 2608 -1485 2608 -1429 2607 c 2,7,-1
 -417 2606 l 1,8,9
 -388 2586 -388 2586 -420 2571 c 1,10,-1
 -982 2572 l 1,11,-1
 -1288 2572 l 1,12,13
 -1447 2571 -1447 2571 -1497 2571 c 128,-1,14
 -1547 2571 -1547 2571 -1504 2636 c 1,15,-1
 -1399 2758 l 1,16,17
 -1360 2797 -1360 2797 -1394.5 2797 c 128,-1,18
 -1429 2797 -1429 2797 -1502.5 2797.5 c 128,-1,19
 -1576 2798 -1576 2798 -1691 2798 c 1,20,21
 -1698 2690 -1698 2690 -1776.5 2616.5 c 128,-1,22
 -1855 2543 -1855 2543 -1966 2543 c 0,23,24
 -2074 2543 -2074 2543 -2153 2616.5 c 128,-1,25
 -2232 2690 -2232 2690 -2239 2798 c 1,26,27
 -2410 2801 -2410 2801 -2510 2794.5 c 128,-1,28
 -2610 2788 -2610 2788 -2735 2788 c 0,29,30
 -2743 2788 -2743 2788 -2756 2791 c 128,-1,31
 -2769 2794 -2769 2794 -2769 2799 c 2,32,-1
 -2769 2823 l 2,33,34
 -2769 2827 -2769 2827 -2755.5 2830 c 128,-1,35
 -2742 2833 -2742 2833 -2735 2833 c 0,36,37
 -2610 2833 -2610 2833 -2487 2836.5 c 128,-1,38
 -2364 2840 -2364 2840 -2240 2840 c 1,39,40
 -2232 2946 -2232 2946 -2153 3020 c 128,-1,41
 -2074 3094 -2074 3094 -1966 3094 c 0,42,43
 -1857 3094 -1857 3094 -1778 3019.5 c 128,-1,44
 -1699 2945 -1699 2945 -1692 2839 c 1,0,1
-2184 2838 m 1,45,-1
 -1744 2838 l 1,46,47
 -1751 2921 -1751 2921 -1813.5 2980 c 128,-1,48
 -1876 3039 -1876 3039 -1964 3039 c 0,49,50
 -2049 3039 -2049 3039 -2112.5 2980.5 c 128,-1,51
 -2176 2922 -2176 2922 -2184 2838 c 1,45,-1
-2184 2796 m 1,52,53
 -2178 2710 -2178 2710 -2115 2653 c 128,-1,54
 -2052 2596 -2052 2596 -1964 2596 c 0,55,56
 -1877 2596 -1877 2596 -1814.5 2653.5 c 128,-1,57
 -1752 2711 -1752 2711 -1744 2796 c 1,58,-1
 -2184 2796 l 1,52,53
EndSplineSet
EndChar

StartChar: asciitilde
Encoding: 126 126 94
Width: 0
Flags: W
LayerCount: 2
Fore
SplineSet
-1046 3018 m 1,0,-1
 -615 3018 l 1,1,2
 -623 3100 -623 3100 -684 3157 c 128,-1,3
 -745 3214 -745 3214 -830 3214 c 0,4,5
 -914 3214 -914 3214 -975.5 3157.5 c 128,-1,6
 -1037 3101 -1037 3101 -1046 3018 c 1,0,-1
-1046 2977 m 1,7,8
 -1041 2892 -1041 2892 -978.5 2836.5 c 128,-1,9
 -916 2781 -916 2781 -830 2781 c 0,10,11
 -746 2781 -746 2781 -684.5 2837.5 c 128,-1,12
 -623 2894 -623 2894 -615 2977 c 1,13,-1
 -1046 2977 l 1,7,8
-340 3010 m 1,14,15
 -281 3007 -281 3007 -253 3004.5 c 128,-1,16
 -225 3002 -225 3002 -188 2999 c 0,17,18
 -146 2996 -146 2996 -106.5 2982.5 c 128,-1,19
 -67 2969 -67 2969 -41 2958 c 0,20,21
 -12 2945 -12 2945 15.5 2915.5 c 128,-1,22
 43 2886 43 2886 50 2853 c 0,23,24
 65 2777 65 2777 34.5 2719 c 128,-1,25
 4 2661 4 2661 -72 2662 c 0,26,27
 -161 2663 -161 2663 -161 2761 c 0,28,29
 -161 2794 -161 2794 -128.5 2819.5 c 128,-1,30
 -96 2845 -96 2845 -60 2837 c 0,31,32
 -20 2827 -20 2827 -10 2832 c 128,-1,33
 0 2837 0 2837 0 2853 c 0,34,35
 0 2895 0 2895 -54.5 2925.5 c 128,-1,36
 -109 2956 -109 2956 -169 2961 c 0,37,38
 -223 2966 -223 2966 -253 2967.5 c 128,-1,39
 -283 2969 -283 2969 -337 2971 c 1,40,-1
 -337 2813 l 2,41,42
 -337 2784 -337 2784 -358 2784 c 2,43,-1
 -368 2784 l 2,44,45
 -387 2784 -387 2784 -387 2813 c 2,46,-1
 -387 2973 l 1,47,48
 -419 2973 -419 2973 -466 2975 c 128,-1,49
 -513 2977 -513 2977 -560 2977 c 1,50,51
 -567 2871 -567 2871 -644.5 2798.5 c 128,-1,52
 -722 2726 -722 2726 -830 2726 c 0,53,54
 -937 2726 -937 2726 -1015 2798.5 c 128,-1,55
 -1093 2871 -1093 2871 -1100 2977 c 1,56,57
 -1269 2979 -1269 2979 -1367.5 2973.5 c 128,-1,58
 -1466 2968 -1466 2968 -1588 2968 c 0,59,60
 -1595 2968 -1595 2968 -1608.5 2970.5 c 128,-1,61
 -1622 2973 -1622 2973 -1622 2978 c 2,62,-1
 -1622 3002 l 2,63,64
 -1622 3006 -1622 3006 -1608.5 3009 c 128,-1,65
 -1595 3012 -1595 3012 -1588 3012 c 0,66,67
 -1466 3012 -1466 3012 -1344.5 3015 c 128,-1,68
 -1223 3018 -1223 3018 -1101 3018 c 1,69,70
 -1092 3122 -1092 3122 -1014.5 3195 c 128,-1,71
 -937 3268 -937 3268 -830 3268 c 256,72,73
 -723 3268 -723 3268 -646 3195 c 128,-1,74
 -569 3122 -569 3122 -561 3018 c 1,75,76
 -514 3018 -514 3018 -474 3014.5 c 128,-1,77
 -434 3011 -434 3011 -387 3012 c 1,78,-1
 -387 3167 l 2,79,80
 -387 3196 -387 3196 -368 3196 c 2,81,-1
 -358 3196 l 2,82,83
 -337 3196 -337 3196 -337 3167 c 2,84,-1
 -340 3010 l 1,14,15
EndSplineSet
EndChar

StartChar: copyright
Encoding: 169 169 95
Width: 0
Flags: W
LayerCount: 2
Fore
SplineSet
-281 3585 m 0,0,1
 -281 3636 -281 3636 -248 3669 c 128,-1,2
 -215 3702 -215 3702 -163 3702 c 0,3,4
 -87 3702 -87 3702 -42 3649.5 c 128,-1,5
 3 3597 3 3597 3 3507 c 0,6,7
 3 3428 3 3428 -62 3339.5 c 128,-1,8
 -127 3251 -127 3251 -222 3203 c 1,9,-1
 -222 3203 l 1,10,-1
 -244 3242 l 1,11,-1
 -244 3242 l 1,12,13
 -146 3302 -146 3302 -104 3376 c 1,14,15
 -86 3410 -86 3410 -75 3451 c 0,16,17
 -70 3471 -70 3471 -81.5 3481 c 128,-1,18
 -93 3491 -93 3491 -115 3486 c 0,19,20
 -138 3481 -138 3481 -162 3481 c 0,21,22
 -214 3481 -214 3481 -247.5 3510 c 128,-1,23
 -281 3539 -281 3539 -281 3585 c 0,0,1
EndSplineSet
EndChar

StartChar: N
Encoding: 78 78 96
Width: 0
Flags: W
LayerCount: 2
Fore
SplineSet
-433 1970 m 0,0,1
 -431 1970 -431 1970 -431 1967 c 0,2,3
 -431 1965 -431 1965 -433 1965 c 0,4,5
 -436 1965 -436 1965 -436 1967 c 0,6,7
 -436 1970 -436 1970 -433 1970 c 0,0,1
-778 1284 m 1,8,9
 -769 1290 -769 1290 -760 1299.5 c 128,-1,10
 -751 1309 -751 1309 -744 1316 c 1,11,-1
 -846 1422 l 2,12,13
 -867 1443 -867 1443 -845 1461 c 128,-1,14
 -823 1479 -823 1479 -805 1461 c 2,15,-1
 -704 1356 l 1,16,-1
 -680 1380 l 1,17,-1
 -673 1391 l 1,18,19
 -650 1413 -650 1413 -628.5 1391 c 128,-1,20
 -607 1369 -607 1369 -631 1345 c 1,21,-1
 -665 1315 l 1,22,-1
 -566 1214 l 1,23,24
 -544 1194 -544 1194 -566.5 1175.5 c 128,-1,25
 -589 1157 -589 1157 -607 1176 c 2,26,-1
 -705 1276 l 1,27,-1
 -739 1243 l 1,28,-1
 -640 1142 l 1,29,30
 -618 1122 -618 1122 -640.5 1103.5 c 128,-1,31
 -663 1085 -663 1085 -681 1103 c 2,32,-1
 -779 1204 l 1,33,-1
 -812 1170 l 1,34,-1
 -712 1068 l 1,35,36
 -690 1048 -690 1048 -712 1029.5 c 128,-1,37
 -734 1011 -734 1011 -753 1029 c 1,38,-1
 -852 1131 l 1,39,-1
 -915 1071 l 1,40,41
 -863 1006 -863 1006 -863 922 c 0,42,43
 -863 821 -863 821 -934.5 750 c 128,-1,44
 -1006 679 -1006 679 -1107 679 c 0,45,46
 -1207 679 -1207 679 -1279 750 c 128,-1,47
 -1351 821 -1351 821 -1351 922 c 0,48,49
 -1351 1022 -1351 1022 -1279 1094 c 128,-1,50
 -1207 1166 -1207 1166 -1107 1166 c 0,51,52
 -1018 1166 -1018 1166 -951 1109 c 1,53,-1
 -890 1170 l 1,54,-1
 -993 1276 l 2,55,56
 -1013 1297 -1013 1297 -991 1315 c 128,-1,57
 -969 1333 -969 1333 -952 1315 c 2,58,-1
 -850 1210 l 1,59,-1
 -818 1243 l 1,60,-1
 -920 1350 l 2,61,62
 -941 1371 -941 1371 -918.5 1389 c 128,-1,63
 -896 1407 -896 1407 -879 1389 c 2,64,-1
 -778 1284 l 1,8,9
-1107 732 m 0,65,66
 -1028 732 -1028 732 -972 787.5 c 128,-1,67
 -916 843 -916 843 -916 922 c 256,68,69
 -916 1001 -916 1001 -972 1057 c 128,-1,70
 -1028 1113 -1028 1113 -1107 1113 c 0,71,72
 -1185 1113 -1185 1113 -1241.5 1057 c 128,-1,73
 -1298 1001 -1298 1001 -1298 922 c 256,74,75
 -1298 843 -1298 843 -1241.5 787.5 c 128,-1,76
 -1185 732 -1185 732 -1107 732 c 0,65,66
EndSplineSet
EndChar
